<?xml version="1.0" encoding="utf-8"?>
<!-- Generator: Adobe Illustrator 27.5.0, SVG Export Plug-In . SVG Version: 6.00 Build 0)  -->
<svg version="1.1" xmlns="http://www.w3.org/2000/svg" xmlns:xlink="http://www.w3.org/1999/xlink" x="0px" y="0px"
	 viewBox="0 0 500 500" style="enable-background:new 0 0 500 500;" xml:space="preserve">
<g id="background">
	<rect y="-0.08" style="fill:#FFFFFF;" width="500" height="500"/>
</g>
<g id="objects">
	<path style="fill:#33AF8A;" d="M198.259,232.631l-7.298,0.087l0.136,11.449l7.554-0.09c0.416,1.265,0.952,2.475,1.594,3.615
		l-5.067,5.172l8.179,8.013l5.097-5.203c1.223,0.642,2.52,1.157,3.874,1.535l0.06,6.946l11.45-0.099l-0.061-7.072
		c1.466-0.474,2.856-1.117,4.153-1.901l4.913,4.718l7.931-8.258l-5.125-4.922c0.618-1.27,1.113-2.612,1.459-4.013l6.854-0.127
		l-0.212-11.448l-7.114,0.132c-0.459-1.366-1.058-2.666-1.78-3.883l4.755-4.919l-8.232-7.959l-4.914,5.083
		c-1.275-0.632-2.625-1.133-4.034-1.481l-0.104-6.82l-11.449,0.174l0.11,7.224c-1.318,0.471-2.573,1.073-3.747,1.798l-5.046-4.911
		l-7.986,8.206l5.388,5.244C199.037,230.099,198.587,231.34,198.259,232.631z M217.379,227.982c5.351-0.046,9.725,4.254,9.772,9.605
		c0.046,5.351-4.254,9.726-9.605,9.772c-5.351,0.046-9.726-4.254-9.772-9.605C207.728,232.403,212.029,228.028,217.379,227.982z"/>
	<path style="fill:#33AF8A;" d="M245.269,212.434l-3.589,0.043l0.067,5.631l3.715-0.044c0.205,0.622,0.468,1.217,0.784,1.778
		l-2.492,2.544l4.023,3.941l2.507-2.559c0.602,0.316,1.239,0.569,1.905,0.755l0.029,3.416l5.631-0.048l-0.03-3.478
		c0.721-0.233,1.404-0.55,2.042-0.935l2.416,2.321l3.901-4.062l-2.521-2.421c0.304-0.624,0.547-1.284,0.718-1.974l3.371-0.063
		l-0.105-5.63l-3.499,0.065c-0.226-0.672-0.52-1.311-0.875-1.91l2.339-2.419l-4.049-3.914l-2.417,2.5
		c-0.627-0.311-1.291-0.557-1.984-0.729l-0.051-3.354l-5.631,0.086l0.054,3.553c-0.648,0.231-1.265,0.528-1.843,0.884l-2.482-2.415
		l-3.928,4.036l2.65,2.579C245.652,211.188,245.431,211.799,245.269,212.434z M254.673,210.147c2.632-0.023,4.783,2.092,4.806,4.724
		c0.023,2.632-2.092,4.783-4.724,4.806c-2.632,0.023-4.783-2.092-4.806-4.724C249.926,212.321,252.041,210.17,254.673,210.147z"/>
	<path style="fill:none;stroke:#333259;stroke-linecap:round;stroke-linejoin:round;stroke-miterlimit:10;" d="M177.037,81.083
		l4.439-0.015l-0.023-6.965l-4.595,0.015c-0.247-0.772-0.566-1.51-0.951-2.207l3.109-3.119l-4.933-4.917l-3.127,3.138
		c-0.741-0.397-1.527-0.717-2.348-0.954v-4.225h-6.965v4.302c-0.894,0.281-1.743,0.665-2.536,1.135l-2.964-2.896l-4.867,4.982
		l3.091,3.021c-0.383,0.769-0.691,1.583-0.908,2.433l-4.17,0.042l0.069,6.964l4.328-0.043c0.272,0.833,0.63,1.627,1.062,2.371
		l-2.918,2.967l4.965,4.884l3.015-3.066c0.773,0.391,1.59,0.703,2.446,0.922l0.028,4.149l6.965-0.046l-0.029-4.394
		c0.804-0.279,1.57-0.639,2.288-1.074l3.044,3.014l4.9-4.949l-3.25-3.218C176.55,82.619,176.831,81.866,177.037,81.083z
		 M165.383,83.811c-3.255,0-5.893-2.638-5.893-5.893s2.639-5.893,5.893-5.893c3.255,0,5.893,2.639,5.893,5.893
		S168.638,83.811,165.383,83.811z"/>
	<path style="fill:none;stroke:#333259;stroke-linecap:round;stroke-linejoin:round;stroke-miterlimit:10;" d="M294.623,133h-36.507
		c-3.307,0-5.988,2.681-5.988,5.988v23.748c0,3.307,2.681,5.988,5.988,5.988h28.682h1.403l10.284,8.08l-2.965-8.155
		c2.881-0.433,5.092-2.912,5.092-5.914v-23.748C300.611,135.681,297.93,133,294.623,133z"/>
	<g>
		<rect x="202.25" y="35.816" style="fill:#FFFFFF;stroke:#333259;stroke-miterlimit:10;" width="102.5" height="60.684"/>
		<rect x="241.261" y="41.17" style="fill:#2E62A6;" width="26.517" height="10.199"/>
		<rect x="223.923" y="60.549" style="fill:#2E62A6;" width="26.517" height="10.199"/>
		<rect x="258.599" y="60.549" style="fill:#2E62A6;" width="26.517" height="10.199"/>
		<rect x="208.624" y="79.927" style="fill:#2E62A6;" width="26.517" height="10.199"/>
		<rect x="240.751" y="79.927" style="fill:#2E62A6;" width="26.517" height="10.199"/>
		<rect x="272.368" y="79.927" style="fill:#2E62A6;" width="26.517" height="10.199"/>
		<polyline style="fill:none;stroke:#333259;stroke-miterlimit:10;" points="236.896,60.549 236.927,56.214 271.603,56.214 
			271.603,60.549 		"/>
		<polyline style="fill:none;stroke:#333259;stroke-miterlimit:10;" points="219.558,79.927 219.588,75.592 254.265,75.592 
			254.265,79.927 		"/>
		<polyline style="fill:none;stroke:#333259;stroke-miterlimit:10;" points="254.234,79.927 254.265,75.592 288.941,75.592 
			288.941,79.927 		"/>
		<line style="fill:none;stroke:#333259;stroke-miterlimit:10;" x1="271.588" y1="70.747" x2="271.573" y2="75.592"/>
		<line style="fill:none;stroke:#333259;stroke-miterlimit:10;" x1="254.25" y1="51.369" x2="254.234" y2="56.214"/>
		<line style="fill:none;stroke:#333259;stroke-miterlimit:10;" x1="237.421" y1="70.747" x2="237.406" y2="75.592"/>
	</g>
	<polyline style="fill:none;stroke:#333259;stroke-linecap:round;stroke-linejoin:round;stroke-miterlimit:10;" points="
		465.008,333.839 454.25,343.113 465.008,351.645 	"/>
	<polyline style="fill:none;stroke:#333259;stroke-linecap:round;stroke-linejoin:round;stroke-miterlimit:10;" points="
		477.992,334.581 488.75,343.855 477.992,352.387 	"/>
	
		<line style="fill:none;stroke:#333259;stroke-linecap:round;stroke-linejoin:round;stroke-miterlimit:10;" x1="475.766" y1="332.726" x2="467.605" y2="353.5"/>
	<g>
		<rect x="92.025" y="274.695" style="fill:#333259;" width="138.725" height="94.305"/>
		<rect x="122.777" y="293.146" style="fill:#2E62A6;" width="19.818" height="2.734"/>
		<rect x="158.996" y="297.929" style="fill:#62ABD9;" width="34.169" height="2.734"/>
		<rect x="193.848" y="297.929" style="fill:#33AF8A;" width="9.567" height="2.734"/>
		<rect x="204.098" y="297.929" style="fill:#2E62A6;" width="20.501" height="2.734"/>
		
			<rect x="190.431" y="302.713" transform="matrix(-1 -1.224647e-16 1.224647e-16 -1 415.0306 608.1592)" style="fill:#62ABD9;" width="34.169" height="2.733"/>
		
			<rect x="180.18" y="302.713" transform="matrix(-1 -1.224647e-16 1.224647e-16 -1 369.928 608.1592)" style="fill:#33AF8A;" width="9.567" height="2.733"/>
		
			<rect x="176.764" y="307.496" transform="matrix(-1 -1.224647e-16 1.224647e-16 -1 380.1787 617.7265)" style="fill:#F2845C;" width="26.651" height="2.734"/>
		
			<rect x="158.996" y="307.496" transform="matrix(-1 -1.224647e-16 1.224647e-16 -1 335.0761 617.7265)" style="fill:#33AF8A;" width="17.084" height="2.734"/>
		
			<rect x="96.126" y="302.03" transform="matrix(-1 -1.224647e-16 1.224647e-16 -1 209.3355 606.7925)" style="fill:#2E62A6;" width="17.084" height="2.734"/>
		
			<rect x="92.709" y="283.578" transform="matrix(-1 -1.224647e-16 1.224647e-16 -1 202.5017 569.8903)" style="fill:#2E62A6;" width="17.084" height="2.734"/>
		
			<rect x="100.909" y="288.362" transform="matrix(-1 -1.224647e-16 1.224647e-16 -1 218.9027 579.4575)" style="fill:#2E62A6;" width="17.084" height="2.734"/>
		
			<rect x="105.009" y="293.146" transform="matrix(-1 -1.224647e-16 1.224647e-16 -1 227.1032 589.0247)" style="fill:#2E62A6;" width="17.084" height="2.734"/>
		
			<rect x="158.996" y="302.713" transform="matrix(-1 -1.224647e-16 1.224647e-16 -1 338.493 608.1592)" style="fill:#2E62A6;" width="20.501" height="2.733"/>
		
			<rect x="190.431" y="341.665" transform="matrix(-1 -1.224647e-16 1.224647e-16 -1 401.3632 686.0637)" style="fill:#62ABD9;" width="20.501" height="2.734"/>
		
			<rect x="180.18" y="341.665" transform="matrix(-1 -1.224647e-16 1.224647e-16 -1 369.928 686.0637)" style="fill:#33AF8A;" width="9.567" height="2.734"/>
		
			<rect x="211.616" y="341.665" transform="matrix(-1 -1.224647e-16 1.224647e-16 -1 436.2152 686.0637)" style="fill:#33AF8A;" width="12.984" height="2.734"/>
		
			<rect x="196.581" y="346.449" transform="matrix(-1 -1.224647e-16 1.224647e-16 -1 407.5136 695.6309)" style="fill:#F2845C;" width="14.351" height="2.734"/>
		
			<rect x="178.13" y="346.449" transform="matrix(-1 -1.224647e-16 1.224647e-16 -1 374.0283 695.6309)" style="fill:#F2845C;" width="17.768" height="2.734"/>
		
			<rect x="158.996" y="346.449" transform="matrix(-1 -1.224647e-16 1.224647e-16 -1 335.0761 695.6309)" style="fill:#33AF8A;" width="17.084" height="2.734"/>
		
			<rect x="158.996" y="341.665" transform="matrix(-1 -1.224647e-16 1.224647e-16 -1 338.493 686.0637)" style="fill:#2E62A6;" width="20.501" height="2.734"/>
		<rect x="96.809" y="293.146" style="fill:#2E62A6;" width="7.517" height="2.734"/>
		<rect x="122.094" y="306.813" style="fill:#2E62A6;" width="19.818" height="2.734"/>
		
			<rect x="92.709" y="297.929" transform="matrix(-1 -1.224647e-16 1.224647e-16 -1 202.5017 598.5919)" style="fill:#2E62A6;" width="17.084" height="2.734"/>
		
			<rect x="113.21" y="297.929" transform="matrix(-1 -1.224647e-16 1.224647e-16 -1 243.5041 598.5919)" style="fill:#2E62A6;" width="17.084" height="2.734"/>
		
			<rect x="95.442" y="321.164" transform="matrix(-1 -1.224647e-16 1.224647e-16 -1 207.9687 645.0613)" style="fill:#2E62A6;" width="17.084" height="2.734"/>
		
			<rect x="104.326" y="312.28" transform="matrix(-1 -1.224647e-16 1.224647e-16 -1 225.7365 627.2937)" style="fill:#2E62A6;" width="17.084" height="2.734"/>
		<rect x="96.126" y="312.28" style="fill:#2E62A6;" width="7.517" height="2.734"/>
		
			<rect x="92.025" y="317.064" transform="matrix(-1 -1.224647e-16 1.224647e-16 -1 201.1351 636.8609)" style="fill:#2E62A6;" width="17.084" height="2.734"/>
		
			<rect x="112.526" y="317.064" transform="matrix(-1 -1.224647e-16 1.224647e-16 -1 242.1374 636.8609)" style="fill:#2E62A6;" width="17.084" height="2.734"/>
		
			<rect x="104.326" y="306.813" transform="matrix(-1 -1.224647e-16 1.224647e-16 -1 225.7365 616.3597)" style="fill:#2E62A6;" width="17.084" height="2.734"/>
		<rect x="96.126" y="306.813" style="fill:#2E62A6;" width="7.517" height="2.734"/>
		<rect x="150.795" y="321.847" style="fill:#FE4B3D;" width="7.517" height="2.734"/>
		<rect x="158.996" y="326.631" style="fill:#62ABD9;" width="12.301" height="2.734"/>
		<rect x="171.98" y="326.631" style="fill:#F2845C;" width="21.184" height="2.734"/>
		<rect x="193.848" y="326.631" style="fill:#33AF8A;" width="9.567" height="2.734"/>
		<rect x="204.098" y="326.631" style="fill:#2E62A6;" width="20.501" height="2.734"/>
		
			<rect x="190.431" y="331.414" transform="matrix(-1 -1.224647e-16 1.224647e-16 -1 415.0306 665.5625)" style="fill:#33AF8A;" width="34.169" height="2.734"/>
		
			<rect x="180.18" y="331.414" transform="matrix(-1 -1.224647e-16 1.224647e-16 -1 369.928 665.5625)" style="fill:#2E62A6;" width="9.567" height="2.734"/>
		
			<rect x="176.764" y="336.198" transform="matrix(-1 -1.224647e-16 1.224647e-16 -1 380.1787 675.1297)" style="fill:#2E62A6;" width="26.651" height="2.734"/>
		
			<rect x="158.996" y="336.198" transform="matrix(-1 -1.224647e-16 1.224647e-16 -1 335.0761 675.1297)" style="fill:#62ABD9;" width="17.084" height="2.734"/>
		
			<rect x="158.996" y="331.414" transform="matrix(-1 -1.224647e-16 1.224647e-16 -1 338.493 665.5625)" style="fill:#33AF8A;" width="20.501" height="2.734"/>
		<rect x="150.795" y="316.38" style="fill:#F2845C;" width="7.517" height="2.734"/>
		<rect x="150.795" y="293.146" style="fill:#FE4B3D;" width="7.517" height="2.734"/>
		<rect x="150.795" y="287.679" style="fill:#F2845C;" width="7.517" height="2.734"/>
		<rect x="145.67" y="293.146" style="fill:#B2B2B2;" width="1.708" height="2.734"/>
		<rect x="145.67" y="297.929" style="fill:#B2B2B2;" width="1.708" height="2.734"/>
		
			<rect x="145.67" y="307.496" transform="matrix(-1 -1.224647e-16 1.224647e-16 -1 293.0486 617.7265)" style="fill:#B2B2B2;" width="1.708" height="2.734"/>
		
			<rect x="145.67" y="302.713" transform="matrix(-1 -1.224647e-16 1.224647e-16 -1 293.0486 608.1592)" style="fill:#B2B2B2;" width="1.708" height="2.733"/>
		
			<rect x="145.67" y="346.449" transform="matrix(-1 -1.224647e-16 1.224647e-16 -1 293.0486 695.6309)" style="fill:#B2B2B2;" width="1.708" height="2.734"/>
		
			<rect x="145.67" y="341.665" transform="matrix(-1 -1.224647e-16 1.224647e-16 -1 293.0486 686.0637)" style="fill:#B2B2B2;" width="1.708" height="2.734"/>
		<rect x="145.67" y="287.679" style="fill:#B2B2B2;" width="1.708" height="2.734"/>
		<rect x="145.67" y="321.847" style="fill:#B2B2B2;" width="1.708" height="2.734"/>
		<rect x="145.67" y="326.631" style="fill:#B2B2B2;" width="1.708" height="2.734"/>
		
			<rect x="145.67" y="336.198" transform="matrix(-1 -1.224647e-16 1.224647e-16 -1 293.0486 675.1297)" style="fill:#B2B2B2;" width="1.708" height="2.734"/>
		
			<rect x="145.67" y="331.414" transform="matrix(-1 -1.224647e-16 1.224647e-16 -1 293.0486 665.5625)" style="fill:#B2B2B2;" width="1.708" height="2.734"/>
		<rect x="145.67" y="316.38" style="fill:#B2B2B2;" width="1.708" height="2.734"/>
		<line style="fill:none;stroke:#000000;stroke-miterlimit:10;" x1="143.114" y1="274.695" x2="143.114" y2="369"/>
	</g>
	<g>
		<polygon style="fill:#62ABD9;" points="458.75,102.761 438.442,88.846 438.442,94.111 427.912,94.111 427.912,82.077 
			416.63,82.077 416.63,76.812 421.895,76.812 403.355,56.504 384.814,76.812 389.553,76.812 389.553,82.077 361.724,82.077 
			361.724,94.111 353.451,94.111 353.451,88.846 333.143,102.761 353.451,116.675 353.451,110.658 361.724,110.658 361.724,118.179 
			389.553,118.179 389.553,122.692 384.814,122.692 403.355,143 421.895,122.692 416.63,122.692 416.63,118.179 427.912,118.179 
			427.912,110.658 438.442,110.658 438.442,116.675 		"/>
		<g>
			
				<text transform="matrix(1 0 0 1 368.583 109.3037)" style="fill:#333259; font-family:'Staatliches-Regular'; font-size:33.429px;">?</text>
			
				<text transform="matrix(1 0 0 1 386.6328 109.3037)" style="fill:#333259; font-family:'Staatliches-Regular'; font-size:33.429px;">?</text>
			
				<text transform="matrix(1 0 0 1 404.6846 109.3037)" style="fill:#333259; font-family:'Staatliches-Regular'; font-size:33.429px;">?</text>
		</g>
		<polygon style="fill:none;stroke:#333259;stroke-linecap:round;stroke-linejoin:round;stroke-miterlimit:10;" points="
			457.246,101.256 436.938,87.342 436.938,92.607 426.408,92.607 426.408,80.573 415.126,80.573 415.126,75.308 420.391,75.308 
			401.85,55 383.31,75.308 388.049,75.308 388.049,80.573 360.22,80.573 360.22,92.607 351.947,92.607 351.947,87.342 
			331.639,101.256 351.947,115.171 351.947,109.154 360.22,109.154 360.22,116.675 388.049,116.675 388.049,121.188 383.31,121.188 
			401.85,141.496 420.391,121.188 415.126,121.188 415.126,116.675 426.408,116.675 426.408,109.154 436.938,109.154 
			436.938,115.171 		"/>
	</g>
	<polygon style="fill:none;stroke:#333259;stroke-miterlimit:10;" points="152.75,241.07 147.207,232.705 151.068,230.147 
		137.944,223.266 139.164,238.035 143.346,235.263 148.889,243.629 	"/>
	<g>
		<rect x="404.75" y="166" style="fill:#F1F1F1;stroke:#333259;stroke-miterlimit:10;" width="87" height="94"/>
		<rect x="404.75" y="166" style="fill:#333259;" width="87" height="7"/>
		<line style="fill:#2E62A6;stroke:#333259;stroke-miterlimit:10;" x1="421.962" y1="173" x2="421.962" y2="260"/>
		<line style="fill:#2E62A6;stroke:#333259;stroke-miterlimit:10;" x1="440.113" y1="173" x2="440.113" y2="260"/>
		<line style="fill:#2E62A6;stroke:#333259;stroke-miterlimit:10;" x1="457.013" y1="173" x2="457.013" y2="260"/>
		<line style="fill:#2E62A6;stroke:#333259;stroke-miterlimit:10;" x1="474.538" y1="173" x2="474.538" y2="260"/>
		<line style="fill:#2E62A6;stroke:#333259;stroke-miterlimit:10;" x1="404.75" y1="193.8" x2="491.75" y2="193.8"/>
		<line style="fill:#2E62A6;stroke:#333259;stroke-miterlimit:10;" x1="404.75" y1="214.5" x2="491.75" y2="214.5"/>
		<line style="fill:#2E62A6;stroke:#333259;stroke-miterlimit:10;" x1="404.75" y1="253.5" x2="491.75" y2="253.5"/>
		<line style="fill:#2E62A6;stroke:#333259;stroke-miterlimit:10;" x1="404.75" y1="233.5" x2="491.75" y2="233.5"/>
	</g>
	<text transform="matrix(1 0 0 1 36.6692 207.5195)" style="font-family:'Staatliches-Regular'; font-size:13.8859px;">STRUCTURED</text>
	<text transform="matrix(1 0 0 1 42.75 177.1641)" style="fill:#333259; font-family:'DeliusUnicase-Bold'; font-size:81.5613px;">S</text>
	<text transform="matrix(1 0 0 1 94.093 177.1641)" style="fill:#333259; font-family:'DeliusUnicase-Bold'; font-size:81.5613px;">Q</text>
	
		<text transform="matrix(1 0 0 1 161.2556 177.1641)" style="fill:#333259; font-family:'DeliusUnicase-Bold'; font-size:81.5613px;">L</text>
	<text transform="matrix(1 0 0 1 112.4697 207.5195)" style="font-family:'Staatliches-Regular'; font-size:13.8859px;">QUERY</text>
	<text transform="matrix(1 0 0 1 161.4697 208.5195)" style="font-family:'Staatliches-Regular'; font-size:13.8859px;">LANGUAGE</text>
	
		<line style="fill:none;stroke:#333259;stroke-linecap:round;stroke-linejoin:round;stroke-miterlimit:10;" x1="27.742" y1="353.286" x2="42.575" y2="339.11"/>
	
		<line style="fill:none;stroke:#333259;stroke-linecap:round;stroke-linejoin:round;stroke-miterlimit:10;" x1="34.788" y1="352.687" x2="49.621" y2="338.511"/>
	
		<line style="fill:none;stroke:#333259;stroke-linecap:round;stroke-linejoin:round;stroke-miterlimit:10;" x1="41.833" y1="352.088" x2="56.667" y2="337.912"/>
	<path style="fill:#E8B19D;" d="M354.583,183.003c18.979,2.632,28.469,66.679-3.796,69.311
		C318.523,254.946,324.421,178.82,354.583,183.003z"/>
	<path style="fill:#E8B19D;" d="M369.184,218.335c0,0,1.619-9.043,5.454-7.869c3.835,1.174,3.371,15.126-0.946,16.134
		C369.374,227.609,369.184,218.335,369.184,218.335z"/>
	<path style="fill:#E8B19D;" d="M331.683,216.748c0,0-1.409-10.507-5.529-9.002c-4.121,1.505-4.111,17.785,0.447,18.814
		C331.158,227.588,331.683,216.748,331.683,216.748z"/>
	<path style="fill:#2E62A6;" d="M432.663,437.875l-27.47,0.307l-101.142,1.123L261.75,440c0,0,8.822-93.142,11.989-118.349
		c1.649-13.178,4.817-25.391,10.651-32.05c7.054-8.045,18.021-15.705,33.612-20.355c8.923-2.667,19.363-4.343,31.453-4.545
		c12.651-0.211,24.338,1.79,34.568,5.08c16.626,5.352,29.426,14.126,36.358,22.452c4.606,5.536,7.422,14.748,9.098,25.031
		C433.576,342.357,432.663,437.875,432.663,437.875z"/>
	<path style="fill:#E8B19D;" d="M365.098,265.573l-0.02-26.42l-28.047,1.438l0.138,24.874c-7.039,0.766-13.423,2.065-19.168,3.782
		c4.475,7.633,14.652,20.03,33.945,21.232c17.652,1.105,27.33-11.327,32.076-20.697
		C378.162,267.897,371.822,266.439,365.098,265.573z"/>
	<path style="fill:none;stroke:#333259;stroke-linecap:round;stroke-linejoin:round;stroke-miterlimit:10;" d="M319.263,275.891
		c5.064,7.255,16.19,18.809,35.518,18.481c17.685-0.294,26.348-13.453,30.339-23.169"/>
	<g>
		<g>
			<path style="fill:#736357;" d="M349.461,212.488c-0.217,1.12-0.249,2.269-0.386,3.401c-0.139,1.141-0.306,2.277-0.531,3.405
				c-0.451,2.262-1.082,4.483-1.893,6.642c-0.119,0.317,0.079,0.72,0.358,0.881c0.944,0.543,3.896,1.173,3.983-0.613
				c0.008-0.162-0.094-0.307-0.224-0.391c-0.452-0.29-0.945-0.103-1.429-0.036c-0.543,0.076-1.067-0.042-1.542-0.307
				c0.119,0.293,0.239,0.587,0.358,0.881c0.809-2.245,1.43-4.549,1.82-6.904c0.37-2.234,0.759-4.703,0.389-6.958
				C350.291,212.034,349.546,212.047,349.461,212.488L349.461,212.488z"/>
		</g>
	</g>
	<g>
		<path style="fill:#FFFFFF;" d="M344.265,234.084c4.375,0.626,9.051,1.21,13.038-0.697c-0.61,1.993-1.329,4.064-2.87,5.468
			c-1.736,1.583-4.42,2.03-6.576,1.097c-2.156-0.933-3.666-3.197-3.7-5.546"/>
		<g>
			<path style="fill:#736357;" d="M344.118,234.619c1.069,0.393,2.29,0.464,3.415,0.59c1.164,0.131,2.335,0.212,3.506,0.206
				c2.305-0.013,4.548-0.409,6.652-1.365c-0.376-0.289-0.752-0.578-1.128-0.867c-0.486,1.518-1.001,3.117-2.006,4.383
				c-0.951,1.198-2.367,1.958-3.898,2.056c-3.047,0.195-5.532-2.214-5.693-5.216c-0.056-1.032-1.625-1.048-1.617,0
				c0.028,3.799,3.337,6.964,7.126,6.823c1.864-0.07,3.684-0.851,4.945-2.239c1.375-1.513,2.056-3.473,2.624-5.399
				c0.202-0.686-0.552-1.142-1.128-0.867c-1.931,0.926-4.081,1.227-6.204,1.233c-1.062,0.003-2.122-0.065-3.179-0.163
				c-1.076-0.099-2.187-0.339-3.268-0.265C343.63,233.573,343.525,234.402,344.118,234.619L344.118,234.619z"/>
		</g>
	</g>
	<g>
		<g>
			<path style="fill:#736357;" d="M355.496,210.513c1.574-0.516,3.167-0.725,4.823-0.653c0.849,0.037,1.71,0.043,2.528,0.293
				c0.402,0.123,0.785,0.291,1.18,0.436c0.48,0.176,0.89,0.198,1.393,0.167c0.333-0.02,0.512-0.409,0.273-0.66
				c-1.349-1.422-3.592-1.662-5.458-1.641c-0.914,0.01-1.833,0.077-2.725,0.285c-0.417,0.097-0.833,0.221-1.223,0.399
				c-0.464,0.212-0.754,0.482-1.103,0.839C354.97,210.198,355.183,210.616,355.496,210.513L355.496,210.513z"/>
		</g>
	</g>
	<g>
		<g>
			<path style="fill:#736357;" d="M374.245,216.035c0.389,1.131,0.666,2.335,0.604,3.536c-0.03,0.591-0.14,1.173-0.319,1.736
				c-0.173,0.545-0.44,1.065-0.43,1.611c0.004,0.194,0.208,0.306,0.376,0.216c0.584-0.313,0.828-0.961,1.018-1.561
				c0.205-0.646,0.32-1.325,0.355-2.002c0.069-1.345-0.173-2.692-0.919-3.825C374.708,215.409,374.099,215.613,374.245,216.035
				L374.245,216.035z"/>
		</g>
	</g>
	<g>
		<g>
			<path style="fill:#736357;" d="M345.756,209.978c-0.328-0.336-0.598-0.596-1.032-0.803c-0.387-0.185-0.799-0.315-1.215-0.416
				c-0.917-0.222-1.863-0.293-2.805-0.304c-1.867-0.021-4.109,0.218-5.458,1.641c-0.239,0.252-0.059,0.64,0.273,0.66
				c0.503,0.03,0.913,0.008,1.393-0.167c0.394-0.144,0.777-0.313,1.18-0.436c0.819-0.25,1.68-0.256,2.528-0.293
				c1.656-0.072,3.248,0.137,4.823,0.653C345.757,210.616,345.971,210.198,345.756,209.978L345.756,209.978z"/>
		</g>
	</g>
	<g>
		<g>
			<path style="fill:#736357;" d="M326.01,215.746c-0.746,1.133-0.988,2.479-0.919,3.825c0.034,0.658,0.143,1.319,0.338,1.949
				c0.191,0.617,0.436,1.293,1.035,1.615c0.168,0.09,0.373-0.022,0.376-0.216c0.01-0.53-0.241-1.03-0.413-1.558
				c-0.189-0.58-0.304-1.18-0.336-1.79c-0.062-1.201,0.215-2.405,0.604-3.536C326.84,215.616,326.234,215.406,326.01,215.746
				L326.01,215.746z"/>
		</g>
	</g>
	<g>
		<g>
			<path style="fill:#736357;" d="M344.778,250.754c2.548,1.075,5.174,1.833,7.967,1.551c1.172-0.118,2.283-0.401,3.356-0.889
				c0.957-0.435,2.153-1.107,2.527-2.154c0.078-0.217-0.167-0.463-0.384-0.384c-0.938,0.338-1.717,1.09-2.622,1.522
				c-1.01,0.483-2.163,0.802-3.276,0.919c-2.493,0.264-5.081-0.249-7.435-1.048C344.599,250.166,344.491,250.633,344.778,250.754
				L344.778,250.754z"/>
		</g>
	</g>
	<path style="fill:#534741;" d="M329.97,210.823c1.288,0.509,2.787-0.316,3.533-1.483c0.747-1.167,0.938-2.589,1.18-3.953
		c0.778-4.386,2.255-8.647,4.358-12.574c0.695-1.296,1.479-2.583,2.612-3.521c1.249-1.034,2.837-1.572,4.424-1.905
		c3.429-0.72,7.037-0.572,10.396,0.426c1.533,0.456,3.067,1.123,4.123,2.323c1.152,1.309,1.592,3.076,2.101,4.744
		c1.763,5.783,4.741,11.108,7.697,16.382c0.212,0.378,0.445,0.777,0.829,0.978c0.726,0.379,1.659-0.172,1.984-0.924
		c0.325-0.752,0.215-1.612,0.093-2.423c-0.635-4.228-1.423-8.434-2.362-12.605c-0.621-2.76-1.32-5.537-2.643-8.038
		c-1.323-2.501-3.343-4.731-5.966-5.789c-1.465-0.591-3.052-0.796-4.62-0.993c-5.93-0.745-12.323-1.363-17.544,1.545
		c-3.381,1.883-8.291,5.973-8.652,10.047C330.989,198.985,330.678,204.91,329.97,210.823z"/>
	<path style="fill:#736357;" d="M358.281,218.342c0,0.969-0.589,1.755-1.316,1.755s-1.316-0.786-1.316-1.755
		s0.589-1.755,1.316-1.755S358.281,217.373,358.281,218.342z"/>
	<ellipse style="fill:#736357;" cx="339.296" cy="218.342" rx="1.316" ry="1.755"/>
	<path style="fill:#534741;" d="M362.773,172.394c-0.317,0.651-0.3,1.456-0.747,2.025c-1.029,1.309-3.066,0.205-4.422-0.76
		c-5.659-4.026-13.243-4.375-20.018-2.85c-2.466,0.555-5.042,1.445-6.57,3.459c-1.528,2.014-1.388,5.432,0.849,6.609
		c-2.514,0.374-4.918,1.46-6.86,3.099c-1.474,1.244-2.724,3.433-1.598,5c0.341,0.475,0.851,0.798,1.365,1.077
		c3.833,2.088,8.619,2.33,12.643,0.64c-0.694,2.044,0.99,4.313,3.063,4.913c2.073,0.6,4.306-0.065,6.242-1.017
		s3.741-2.2,5.791-2.876c0.678,2.242,3.685,2.957,5.89,2.167c2.205-0.79,3.876-2.573,5.729-4.005
		c0.503-0.389,1.176-0.768,1.736-0.467c0.527,0.283,0.638,1.021,1.118,1.38c0.855,0.639,1.99-0.34,2.504-1.276
		c2.129-3.875,1.925-8.878,0.571-13.005C369.381,174.439,364.852,168.124,362.773,172.394z"/>
	<rect x="0.25" y="427" style="fill:#F1F1F1;" width="500" height="73"/>
	<path style="fill:#E8B19D;" d="M398.75,328l31-11c0,0,31.829,79.055,21,103c-12.229,27.039-103,59-103,59l-15-20
		c0,0,72.41-28.845,82-51C422.852,389.282,398.75,328,398.75,328z"/>
	
		<line style="fill:none;stroke:#333259;stroke-linecap:round;stroke-linejoin:round;stroke-miterlimit:10;" x1="-0.25" y1="427" x2="499.75" y2="427"/>
	<path style="fill:#2E62A6;" d="M276.75,306c0,0-16,82-18,83c-12,6-63.601,21.485-63.601,21.485L194.75,440l85-3l30-96L276.75,306z"
		/>
	<path style="fill:#2E62A6;" d="M398.75,328l25-30c0,0,41,86,27,122c-10.756,27.658-99,60-99,60l-16-24c0,0,68.772-34.658,79-50
		C416.75,403,398.75,328,398.75,328z"/>
	<path style="fill:none;stroke:#333259;stroke-linecap:round;stroke-linejoin:round;stroke-miterlimit:10;" d="M307.559,341.626
		c0,0-5.223,49.348-15.923,65.825"/>
	<polygon style="fill:#B2B2B2;stroke:#333259;stroke-linecap:round;stroke-linejoin:round;stroke-miterlimit:10;" points="
		192.75,468 282.75,443 360.75,443 305.75,468 	"/>
	
		<rect x="192.75" y="395" style="fill:#B2B2B2;stroke:#333259;stroke-linecap:round;stroke-linejoin:round;stroke-miterlimit:10;" width="113" height="73"/>
	<path style="fill:#E8B19D;" d="M332.75,459c0,0-34,12-33,16c0.767,3.068,14-2,14-2s-16,6-15,9c1.14,3.421,10,0,10,0s-4,3-3,5
		c1.414,2.828,17-5,17-5s-9,5-7,8c1.24,1.861,32-11,32-11L332.75,459z"/>
	<path style="fill:none;stroke:#333259;stroke-linecap:round;stroke-linejoin:round;stroke-miterlimit:10;" d="M312.6,473.42
		c5.65-2.92,10.65-3.92,10.65-3.92"/>
	<path style="fill:none;stroke:#333259;stroke-linecap:round;stroke-linejoin:round;stroke-miterlimit:10;" d="M309.25,482.5
		c10-7,17-8,17-8"/>
	<path style="fill:none;stroke:#333259;stroke-linecap:round;stroke-linejoin:round;stroke-miterlimit:10;" d="M322.25,482.5
		c2.853-1.675,7-3,7-3"/>
	<path style="fill:none;stroke:#333259;stroke-linecap:round;stroke-linejoin:round;stroke-miterlimit:10;" d="M396.75,342
		c0,0,10.5,48.5,5.5,67.5c-2.657,10.097-22.511,23.618-22.511,23.618"/>
	<ellipse style="fill:none;stroke:#333259;stroke-miterlimit:10;" cx="358.965" cy="216.781" rx="6.58" ry="5.703"/>
	<ellipse style="fill:none;stroke:#333259;stroke-miterlimit:10;" cx="340.98" cy="216.342" rx="6.58" ry="5.703"/>
	<line style="fill:none;stroke:#333259;stroke-miterlimit:10;" x1="347.56" y1="217.113" x2="352.385" y2="217.219"/>
	<line style="fill:none;stroke:#333259;stroke-miterlimit:10;" x1="365.546" y1="216.342" x2="371.687" y2="211.955"/>
	<line style="fill:none;stroke:#333259;stroke-miterlimit:10;" x1="334.75" y1="218" x2="330.451" y2="210.201"/>
	<path style="fill:#E8B19D;" d="M206.25,413.5c0-3-20-5-20,0S206.25,416.5,206.25,413.5z"/>
	<path style="fill:#E8B19D;" d="M206.25,419.5c0-3-20-5-20,0S206.25,422.5,206.25,419.5z"/>
	<path style="fill:#E8B19D;" d="M206.25,425.5c0-3-20-5-20,0S206.25,428.5,206.25,425.5z"/>
	<path style="fill:#E8B19D;" d="M206.25,431.5c0-3-20-5-20,0S206.25,434.5,206.25,431.5z"/>
	<path style="fill:none;stroke:#333259;stroke-linecap:round;stroke-linejoin:round;stroke-miterlimit:10;" d="M206.25,419.5
		c0-1.5-5-2.75-10-3c5-0.25,10-1.5,10-3"/>
	<path style="fill:none;stroke:#333259;stroke-linecap:round;stroke-linejoin:round;stroke-miterlimit:10;" d="M193.166,434.519
		c5.78,0.242,13.084-1.206,13.084-3.019c0-1.5-5-2.75-10-3c5-0.25,10-1.5,10-3s-5-2.75-10-3c5-0.25,10-1.5,10-3"/>
	<g>
		<polyline style="fill:#333259;" points="54.25,361.362 75.75,361.362 75.75,419 32.75,419 32.75,383.898 		"/>
		<polyline style="fill:#F1F1F1;" points="54.25,364.106 73.463,364.106 73.463,416.255 35.037,416.255 35.037,384.497 		"/>
		<polyline style="fill:#333259;" points="54.749,361.402 54.665,383.938 33.166,383.858 		"/>
		<polyline style="fill:none;stroke:#333259;stroke-linecap:round;stroke-linejoin:round;stroke-miterlimit:10;" points="
			51.825,394.155 47.617,397.783 51.825,401.12 		"/>
		<polyline style="fill:none;stroke:#333259;stroke-linecap:round;stroke-linejoin:round;stroke-miterlimit:10;" points="
			56.904,394.445 61.112,398.073 56.904,401.41 		"/>
		
			<line style="fill:none;stroke:#333259;stroke-linecap:round;stroke-linejoin:round;stroke-miterlimit:10;" x1="56.033" y1="393.72" x2="52.841" y2="401.846"/>
	</g>
	
		<line style="fill:none;stroke:#333259;stroke-linecap:round;stroke-linejoin:round;stroke-miterlimit:10;" x1="176.25" y1="471.5" x2="282.25" y2="471.5"/>
	<circle style="fill:#2E62A6;" cx="41.25" cy="286.5" r="4"/>
	<circle style="fill:#2E62A6;" cx="64.25" cy="310.5" r="5"/>
	
		<circle style="fill:none;stroke:#333259;stroke-linecap:round;stroke-linejoin:round;stroke-miterlimit:10;" cx="465.75" cy="291" r="6.5"/>
	
		<circle style="fill:none;stroke:#333259;stroke-linecap:round;stroke-linejoin:round;stroke-miterlimit:10;" cx="76" cy="240" r="6.5"/>
	<circle style="fill:#33AF8A;" cx="461.25" cy="320.5" r="4"/>
	<circle style="fill:#62ABD9;" cx="467.75" cy="26" r="2.5"/>
	
		<circle style="fill:none;stroke:#333259;stroke-linecap:round;stroke-linejoin:round;stroke-miterlimit:10;" cx="349.75" cy="23" r="1.5"/>
	<circle style="fill:#62ABD9;" cx="99.5" cy="85.5" r="2.5"/>
	
		<circle style="fill:none;stroke:#333259;stroke-linecap:round;stroke-linejoin:round;stroke-miterlimit:10;" cx="22.75" cy="95" r="1.5"/>
	<circle style="fill:#2E62A6;" cx="471.25" cy="60.5" r="6"/>
	<circle style="fill:#33AF8A;" cx="17" cy="232" r="6"/>
	
		<circle style="fill:none;stroke:#333259;stroke-linecap:round;stroke-linejoin:round;stroke-miterlimit:10;" cx="209.25" cy="21.5" r="2"/>
	<polyline style="fill:none;stroke:#333259;stroke-linecap:round;stroke-linejoin:round;stroke-miterlimit:10;" points="309.75,61 
		335.75,61 335.75,71 376.75,71 	"/>
	<polyline style="fill:none;stroke:#333259;stroke-linecap:round;stroke-linejoin:round;stroke-miterlimit:10;" points="
		310.25,43.5 445.25,43.5 445.25,85.5 	"/>
	<polyline style="fill:none;stroke:#333259;stroke-linecap:round;stroke-linejoin:round;stroke-miterlimit:10;" points="
		369.25,125.5 369.25,154.5 453.25,154.5 453.25,162.5 	"/>
	<polyline style="fill:none;stroke:#333259;stroke-linecap:round;stroke-linejoin:round;stroke-miterlimit:10;" points="
		433.25,125.5 433.25,141.5 483.25,141.5 483.25,162.5 	"/>
	<polyline style="fill:none;stroke:#333259;stroke-linecap:round;stroke-linejoin:round;stroke-miterlimit:10;" points="
		114.25,372.5 114.25,394.5 172.25,394.5 172.25,401.5 186.25,401.5 	"/>
	<polyline style="fill:none;stroke:#333259;stroke-linecap:round;stroke-linejoin:round;stroke-miterlimit:10;" points="
		187.25,372.5 187.25,385.5 224.25,385.5 224.25,392.5 	"/>
	<g>
		<text transform="matrix(1 0 0 1 34.676 43.5819)"><tspan x="0" y="0" style="font-family:'BalooThambi2-Regular'; font-size:7px;">Lorem ipsum dolor sit amet, </tspan><tspan x="0" y="8.4" style="font-family:'BalooThambi2-Regular'; font-size:7px;">consectetur adipiscing elit, sed do </tspan><tspan x="0" y="16.8" style="font-family:'BalooThambi2-Regular'; font-size:7px;">eiusmod </tspan></text>
	</g>
	
		<line style="fill:none;stroke:#333259;stroke-linecap:round;stroke-linejoin:round;stroke-miterlimit:10;" x1="33" y1="21" x2="76" y2="21"/>
	
		<line style="fill:none;stroke:#333259;stroke-linecap:round;stroke-linejoin:round;stroke-miterlimit:10;" x1="48.5" y1="29.5" x2="91.5" y2="29.5"/>
</g>
</svg>
