<svg xmlns="http://www.w3.org/2000/svg" viewBox="0 0 750 500"><g id="freepik--background-complete--inject-190"><rect x="71.45" y="72.3" width="33.65" height="11.19" transform="translate(176.56 155.79) rotate(180)" style="fill:#ebebeb"></rect><path d="M90.22,58.19c10-.15,23.8-.47,33.65-.45h.46v.46l0,11.19v.5h-.51l-16.82-.07c-5.69,0-11.38-.13-17.07-.19v-.24l.24-11.19Zm0,0,.25,11.19-.24-.25c5.6-.06,11.21-.16,16.82-.18l16.82-.07-.49.5,0-11.19.45.45c-9.66,0-23.82-.28-33.65-.45Z" style="fill:#ebebeb"></path><path d="M52.68,58.19c10-.15,23.79-.47,33.65-.45h.46v.46l0,11.19v.5h-.5l-16.82-.07c-5.69,0-11.38-.13-17.08-.19v-.24l.24-11.19Zm0,0,.25,11.19-.25-.25C58.29,69.07,63.9,69,69.51,69l16.82-.07-.5.5,0-11.19.45.45c-9.66,0-23.82-.28-33.65-.45Z" style="fill:#ebebeb"></path><path d="M609.91,284.6c10-.15,23.79-.47,33.65-.46H644v.46l0,11.19v.5h-.5l-16.83-.07c-5.69,0-11.38-.13-17.07-.19v-.24l.24-11.19Zm0,0,.24,11.19-.24-.25c5.61-.06,11.22-.16,16.82-.18l16.83-.07-.5.5,0-11.19.46.45c-9.66,0-23.82-.28-33.65-.45Z" style="fill:#ebebeb"></path><rect x="628.68" y="270.49" width="33.65" height="11.19" transform="translate(1291.01 552.17) rotate(180)" style="fill:#ebebeb"></rect><path d="M591.14,270.49c10-.15,23.79-.47,33.65-.46h.45v.46l0,11.19v.5h-.5L608,282.11c-5.69,0-11.38-.13-17.07-.19v-.24l.25-11.19Zm0,0,.24,11.19-.24-.25c5.61-.06,11.22-.16,16.82-.18l16.83-.07-.5.5,0-11.19.46.45c-9.66,0-23.82-.28-33.65-.45Z" style="fill:#ebebeb"></path><path d="M648.36,68.37c10-.15,23.8-.47,33.65-.45h.46v.45l0,11.19v.5H682L665.19,80c-5.69,0-11.38-.12-17.08-.19v-.24l.24-11.19Zm0,0,.25,11.19-.25-.24c5.61-.07,11.22-.16,16.83-.19L682,79.06l-.5.5,0-11.19.45.45c-9.66,0-23.82-.28-33.65-.45Z" style="fill:#ebebeb"></path><path d="M293.21,205.46c10-.15,23.79-.47,33.65-.45h.45v.45l.05,11.19v.51h-.5L310,217.09c-5.69,0-11.38-.13-17.07-.19v-.25l.25-11.19Zm0,0,.24,11.19-.24-.24c5.61-.06,11.21-.16,16.82-.19l16.83-.07-.5.5,0-11.19.46.46c-9.67,0-23.83-.29-33.65-.46Z" style="fill:#ebebeb"></path><path d="M73.4,402.85c10-.15,23.79-.47,33.65-.45h.45v.45l0,11.19v.5h-.5l-16.83-.07c-5.69,0-11.38-.12-17.07-.19V414l.24-11.19Zm0,0L73.64,414l-.24-.24c5.61-.07,11.22-.16,16.82-.19l16.83-.07-.5.5,0-11.19.45.46c-9.66,0-23.82-.29-33.65-.46Z" style="fill:#ebebeb"></path><rect x="54.63" y="388.74" width="33.65" height="11.19" transform="translate(142.91 788.67) rotate(180)" style="fill:#ebebeb"></rect><rect x="663.67" y="402.84" width="33.65" height="11.19" transform="translate(1360.98 816.87) rotate(180)" style="fill:#ebebeb"></rect></g><g id="freepik--Floor--inject-190"><path d="M49.81,450.71c208.34-.62,442-.62,650.38,0-208.34.61-442,.61-650.38,0Z" style="fill:#263238"></path></g><g id="freepik--Device--inject-190"><rect x="59.22" y="427.7" width="631.56" height="23" style="fill:#c7c7c7"></rect><rect x="115.2" y="80.13" width="519.6" height="347.57" style="fill:#dbdbdb"></rect><rect x="118.98" y="84.37" width="512.05" height="339.1" style="fill:#263238"></rect><rect x="141.65" y="106.17" width="466.7" height="295.5" style="fill:#fff"></rect><rect x="141.65" y="106.17" width="466.7" height="295.5" style="fill:#fff"></rect><rect x="141.65" y="106.17" width="466.7" height="11.37" style="fill:#407BFF"></rect><path d="M152.35,111.85a2.15,2.15,0,1,1-2.15-2.15A2.15,2.15,0,0,1,152.35,111.85Z" style="fill:#c7c7c7"></path><path d="M161.14,111.85A2.15,2.15,0,1,1,159,109.7,2.15,2.15,0,0,1,161.14,111.85Z" style="fill:#fff"></path><path d="M169.92,111.85a2.15,2.15,0,1,1-2.15-2.15A2.15,2.15,0,0,1,169.92,111.85Z" style="fill:#455a64"></path><rect x="296.86" y="139.12" width="156.29" height="2.34" style="fill:#dbdbdb"></rect><rect x="323.58" y="146.07" width="102.84" height="2.34" style="fill:#dbdbdb"></rect><path d="M433.85,231.16a28.53,28.53,0,1,1-13.74-53.54v28.53Z" style="fill:#ebebeb"></path><path d="M437,183.19l-16.92,23V177.62A28.27,28.27,0,0,1,437,183.19Z" style="fill:#407BFF"></path><path d="M448.64,206.15a28.37,28.37,0,0,1-7.57,19.34l-21-19.34,16.92-23A28.45,28.45,0,0,1,448.64,206.15Z" style="fill:#a6a6a6"></path><path d="M451.34,238.72a28.64,28.64,0,0,1-7.22,5.68l-13.74-25Z" style="fill:#455a64"></path><path d="M332.8,178.71,325,206.15v28.53a28.53,28.53,0,0,1,0-57.06A28.88,28.88,0,0,1,332.8,178.71Z" style="fill:#a6a6a6"></path><path d="M341.86,229.13a28.35,28.35,0,0,1-16.9,5.55V206.15Z" style="fill:#ebebeb"></path><path d="M353.5,206.15a28.46,28.46,0,0,1-11.64,23l-16.9-23,22.19-17.94A28.42,28.42,0,0,1,353.5,206.15Z" style="fill:#455a64"></path><path d="M353.5,179l-22.19,17.94,7.84-27.44A28.69,28.69,0,0,1,353.5,179Z" style="fill:#407BFF"></path><path d="M229.81,177.62v28.53L210.6,227.23a28.53,28.53,0,0,1,19.21-49.61Z" style="fill:#455a64"></path><path d="M250.24,186.23l-20.43,19.92V177.62A28.47,28.47,0,0,1,250.24,186.23Z" style="fill:#407BFF"></path><path d="M258.34,206.15a28.44,28.44,0,0,1-10.5,22.11l-18-22.11,20.43-19.92A28.45,28.45,0,0,1,258.34,206.15Z" style="fill:#a6a6a6"></path><path d="M247.84,235.74a28.51,28.51,0,0,1-37.24-1l19.21-21.08Z" style="fill:#ebebeb"></path><path d="M515.27,177.62v57.06a28.53,28.53,0,1,1,0-57.06Z" style="fill:#407BFF"></path><path d="M522.47,178.54l-7.2,27.61V177.62A28.53,28.53,0,0,1,522.47,178.54Z" style="fill:#263238"></path><path d="M548.71,204.51a28.61,28.61,0,0,1-2,10.46l-26.55-10.46,7.2-27.61A28.52,28.52,0,0,1,548.71,204.51Z" style="fill:#455a64"></path><path d="M541.82,216.61a28.55,28.55,0,0,1-26.55,18.07V206.15Z" style="fill:#a6a6a6"></path><rect x="221.59" y="251.44" width="25.77" height="1.6" style="fill:#dbdbdb"></rect><rect x="221.59" y="254.78" width="17.1" height="1.6" style="fill:#dbdbdb"></rect><rect x="212.27" y="251.42" width="4.99" height="4.99" style="fill:#455a64"></rect><rect x="316.74" y="251.44" width="25.77" height="1.6" style="fill:#dbdbdb"></rect><rect x="316.74" y="254.78" width="17.1" height="1.6" style="fill:#dbdbdb"></rect><rect x="307.42" y="251.42" width="4.99" height="4.99" style="fill:#a6a6a6"></rect><rect x="411.88" y="251.44" width="25.77" height="1.6" style="fill:#dbdbdb"></rect><rect x="411.88" y="254.78" width="17.1" height="1.6" style="fill:#dbdbdb"></rect><rect x="402.57" y="251.42" width="4.99" height="4.99" style="fill:#ebebeb"></rect><rect x="507.03" y="251.44" width="25.77" height="1.6" style="fill:#dbdbdb"></rect><rect x="507.03" y="254.78" width="17.1" height="1.6" style="fill:#dbdbdb"></rect><rect x="497.72" y="251.42" width="4.99" height="4.99" style="fill:#407BFF"></rect><path d="M390.46,287.32l79.13-.19c26.37.07,52.75,0,79.12.19-26.37.16-52.75.12-79.12.18Z" style="fill:#455a64"></path><path d="M390.46,293l79.13-.18c26.37.06,52.75,0,79.12.18-26.37.16-52.75.12-79.12.18Z" style="fill:#455a64"></path><path d="M390.46,298.6l79.13-.18c26.37.06,52.75,0,79.12.18-26.37.16-52.75.12-79.12.19Z" style="fill:#455a64"></path><path d="M390.46,304.24l79.13-.18c26.37.07,52.75,0,79.12.18-26.37.16-52.75.12-79.12.19Z" style="fill:#455a64"></path><path d="M390.46,309.89l79.13-.19c26.37.07,52.75,0,79.12.19-26.37.16-52.75.12-79.12.18Z" style="fill:#455a64"></path><path d="M390.46,315.53l79.13-.18c26.37.06,52.75,0,79.12.18-26.37.16-52.75.12-79.12.18Z" style="fill:#455a64"></path><path d="M390.46,321.17l79.13-.18c26.37.06,52.75,0,79.12.18-26.37.16-52.75.12-79.12.19Z" style="fill:#455a64"></path><path d="M390.46,326.81l79.13-.18c26.37.07,52.75,0,79.12.18-26.37.16-52.75.12-79.12.19Z" style="fill:#455a64"></path><path d="M390.46,332.46l79.13-.19c26.37.07,52.75,0,79.12.19-26.37.16-52.75.12-79.12.18Z" style="fill:#455a64"></path><path d="M390.46,338.1l79.13-.19c26.37.07,52.75,0,79.12.19-26.37.16-52.75.12-79.12.18Z" style="fill:#455a64"></path><path d="M390.46,343.74l79.13-.18c26.37.06,52.75,0,79.12.18-26.37.16-52.75.12-79.12.18Z" style="fill:#455a64"></path><path d="M390.46,349.38l79.13-.18c26.37.06,52.75,0,79.12.18-26.37.16-52.75.12-79.12.19Z" style="fill:#455a64"></path><path d="M390.46,355l79.13-.19c26.37.07,52.75,0,79.12.19-26.37.15-52.75.11-79.12.18Z" style="fill:#455a64"></path><path d="M390.46,360.67l79.13-.19c26.37.07,52.75,0,79.12.19-26.37.16-52.75.12-79.12.18Z" style="fill:#455a64"></path><path d="M390.46,366.31l79.13-.18c26.37.06,52.75,0,79.12.18-26.37.16-52.75.12-79.12.18Z" style="fill:#455a64"></path><rect x="407.2" y="326.81" width="12" height="46.07" style="fill:#407BFF"></rect><rect x="429.46" y="307.33" width="12" height="65.56" style="fill:#ebebeb"></rect><rect x="451.72" y="321.37" width="12" height="51.52" style="fill:#a6a6a6"></rect><rect x="473.98" y="304.24" width="12" height="68.64" style="fill:#407BFF"></rect><rect x="496.25" y="313.45" width="12" height="59.44" style="fill:#ebebeb"></rect><rect x="518.51" y="347.13" width="12" height="25.76" style="fill:#a6a6a6"></rect><path d="M394.76,283.36l.32,22.38.23,22.38c.15,14.92.2,29.85.23,44.77l-.78-.68,38.49,0,38.48.08,38.49.22,38.49.41-38.49.4-38.49.23-38.48.08-38.49,0H394v-.68q0-22.38.22-44.77l.23-22.38Z" style="fill:#455a64"></path><rect x="407.2" y="377.62" width="12" height="0.95" style="fill:#455a64"></rect><rect x="429.46" y="377.62" width="12" height="0.95" style="fill:#455a64"></rect><rect x="451.72" y="377.62" width="12" height="0.95" style="fill:#455a64"></rect><rect x="473.98" y="377.62" width="12" height="0.95" style="fill:#455a64"></rect><rect x="496.25" y="377.62" width="12" height="0.95" style="fill:#455a64"></rect><rect x="518.51" y="377.62" width="12" height="0.95" style="fill:#455a64"></rect><path d="M201.29,287.13c48.73-.65,103.4-.65,152.13,0-48.73.66-103.4.66-152.13,0Z" style="fill:#c7c7c7"></path><path d="M201.29,298.42c48.73-.65,103.4-.66,152.13,0-48.73.66-103.4.65-152.13,0Z" style="fill:#c7c7c7"></path><path d="M201.29,309.7c48.73-.65,103.4-.65,152.13,0-48.73.66-103.4.65-152.13,0Z" style="fill:#c7c7c7"></path><path d="M201.29,321c33.35-.67,70.44-.65,103.82,0-33.39.65-70.46.66-103.82,0Z" style="fill:#c7c7c7"></path><path d="M201.29,343.56c48.73-.65,103.4-.66,152.13,0-48.73.65-103.4.65-152.13,0Z" style="fill:#c7c7c7"></path><path d="M201.29,354.84c48.73-.65,103.4-.65,152.13,0-48.73.66-103.4.65-152.13,0Z" style="fill:#c7c7c7"></path><path d="M201.29,366.13c33.35-.67,70.44-.65,103.82,0-33.39.64-70.46.66-103.82,0Z" style="fill:#c7c7c7"></path></g><g id="freepik--tab-2--inject-190"><rect x="500.25" y="76.52" width="141.77" height="104.67" style="fill:#fff"></rect><path d="M642,181.19c-35.34.12-106.44.34-141.77.35h-.36v-.36l-.14-104.67V76h.5l142.07.19c-.07,26.25-.17,78.74-.3,105Zm0,0c-.15-26.09-.25-78.59-.31-104.67,1.95.77-141.91.28-141.46.5l.49-.5c-.07-.18.33,106.24-.49,104.31,35.33,0,106.44.23,141.77.36Z" style="fill:#263238"></path><rect x="500.25" y="76.52" width="141.77" height="11.03" style="fill:#455a64"></rect><path d="M510.63,82A2.09,2.09,0,1,1,508.54,80,2.08,2.08,0,0,1,510.63,82Z" style="fill:#c7c7c7"></path><path d="M519.15,82A2.09,2.09,0,1,1,517.07,80,2.08,2.08,0,0,1,519.15,82Z" style="fill:#fff"></path><path d="M527.68,82A2.09,2.09,0,1,1,525.59,80,2.09,2.09,0,0,1,527.68,82Z" style="fill:#407BFF"></path><rect x="516.45" y="140.74" width="6.21" height="6.21" style="fill:#407BFF"></rect><rect x="526.97" y="140.74" width="33.44" height="1.83" style="fill:#dbdbdb"></rect><rect x="526.97" y="145.12" width="43.93" height="1.83" style="fill:#dbdbdb"></rect><rect x="516.45" y="152.5" width="6.21" height="6.21" style="fill:#455a64"></rect><rect x="526.97" y="152.5" width="25.41" height="1.83" style="fill:#dbdbdb"></rect><rect x="526.97" y="156.88" width="43.93" height="1.83" style="fill:#dbdbdb"></rect><path d="M536.38,116.64a10.83,10.83,0,1,1-1.43-5.38A10.83,10.83,0,0,1,536.38,116.64Z" style="fill:#455a64"></path><path d="M535,111.26l-9.4,5.38V105.81A10.81,10.81,0,0,1,535,111.26Z" style="fill:#407BFF"></path><path d="M533,116.64a7.49,7.49,0,1,1-7.49-7.49A7.49,7.49,0,0,1,533,116.64Z" style="fill:#fff"></path><rect x="522.44" y="114.97" width="6.23" height="0.88" style="fill:#263238"></rect><rect x="520.89" y="117.42" width="9.32" height="0.88" style="fill:#a6a6a6"></rect><path d="M566.68,116.64a11.64,11.64,0,0,1-.11,1.58,11,11,0,1,1,.11-1.58Z" style="fill:#455a64"></path><path d="M566.68,116.64a11.64,11.64,0,0,1-.11,1.58l-10.71-1.58V105.81a10.83,10.83,0,0,1,10.82,10.83Z" style="fill:#407BFF"></path><path d="M563.34,116.64a7.49,7.49,0,1,1-7.49-7.49A7.49,7.49,0,0,1,563.34,116.64Z" style="fill:#fff"></path><rect x="552.74" y="114.97" width="6.23" height="0.88" style="fill:#263238"></rect><rect x="551.19" y="117.42" width="9.32" height="0.88" style="fill:#a6a6a6"></rect><path d="M597.19,116.64a10.83,10.83,0,1,1-1.43-5.38A10.82,10.82,0,0,1,597.19,116.64Z" style="fill:#455a64"></path><path d="M597.19,116.64a10.82,10.82,0,0,1-7,10.11l-3.88-10.11V105.81a10.83,10.83,0,0,1,10.83,10.83Z" style="fill:#407BFF"></path><path d="M593.85,116.64a7.49,7.49,0,1,1-7.49-7.49A7.49,7.49,0,0,1,593.85,116.64Z" style="fill:#fff"></path><rect x="583.25" y="114.97" width="6.23" height="0.88" style="fill:#263238"></rect><rect x="581.7" y="117.42" width="9.32" height="0.88" style="fill:#a6a6a6"></rect><path d="M627.54,116.64a10.83,10.83,0,1,1-1.43-5.38A10.74,10.74,0,0,1,627.54,116.64Z" style="fill:#455a64"></path><path d="M627.54,116.64a10.82,10.82,0,0,1-17.86,8.23l7-8.23V105.81a10.83,10.83,0,0,1,10.83,10.83Z" style="fill:#407BFF"></path><path d="M624.2,116.64a7.49,7.49,0,1,1-7.49-7.49A7.5,7.5,0,0,1,624.2,116.64Z" style="fill:#fff"></path><rect x="613.59" y="114.97" width="6.23" height="0.88" style="fill:#263238"></rect><rect x="612.05" y="117.42" width="9.32" height="0.88" style="fill:#a6a6a6"></rect></g><g id="freepik--tab-1--inject-190"><rect x="55.72" y="122.35" width="141.77" height="104.67" style="fill:#fff"></rect><path d="M197.49,227c-35.33.12-106.44.34-141.77.35h-.36V227l-.14-104.67v-.5h.5L197.8,122c-.07,26.25-.17,78.74-.31,105Zm0,0c-.14-26.09-.24-78.59-.3-104.67,1.95.77-141.91.28-141.47.5l.5-.5c-.08-.18.32,106.24-.5,104.31,35.33,0,106.44.22,141.77.36Z" style="fill:#263238"></path><rect x="55.72" y="122.35" width="141.77" height="11.03" style="fill:#455a64"></rect><path d="M66.11,127.86A2.09,2.09,0,1,1,64,125.78,2.09,2.09,0,0,1,66.11,127.86Z" style="fill:#c7c7c7"></path><path d="M74.63,127.86a2.09,2.09,0,1,1-2.09-2.08A2.09,2.09,0,0,1,74.63,127.86Z" style="fill:#fff"></path><path d="M83.15,127.86a2.09,2.09,0,1,1-2.08-2.08A2.08,2.08,0,0,1,83.15,127.86Z" style="fill:#407BFF"></path><rect x="84.17" y="208.1" width="5.33" height="5.33" style="fill:#407BFF"></rect><rect x="93.21" y="208.1" width="58.4" height="1.58" style="fill:#dbdbdb"></rect><rect x="93.21" y="211.85" width="37.73" height="1.58" style="fill:#dbdbdb"></rect><path d="M80.65,154.53c15.32-.1,30.64-.07,46-.11s30.64,0,46,.11c-15.32.1-30.64.07-46,.11S96,154.62,80.65,154.53Z" style="fill:#455a64"></path><path d="M80.65,163.61c15.32-.09,30.64-.07,46-.11s30.64,0,46,.11c-15.32.1-30.64.07-46,.11S96,163.71,80.65,163.61Z" style="fill:#455a64"></path><path d="M80.65,172.69c15.32-.09,30.64-.07,46-.11s30.64,0,46,.11c-15.32.1-30.64.08-46,.12S96,172.79,80.65,172.69Z" style="fill:#455a64"></path><path d="M80.65,181.78c15.32-.1,30.64-.07,46-.11s30.64,0,46,.11c-15.32.09-30.64.07-46,.11S96,181.87,80.65,181.78Z" style="fill:#455a64"></path><path d="M80.65,190.86c15.32-.1,30.64-.07,46-.11s30.64,0,46,.11c-15.32.09-30.64.07-46,.11S96,191,80.65,190.86Z" style="fill:#455a64"></path><path d="M99.15,148.62c.14,8.49.1,17,.16,25.46s0,17-.16,25.46c-.13-8.48-.1-17-.15-25.46S99,157.11,99.15,148.62Z" style="fill:#455a64"></path><path d="M115.05,148.62c.13,8.49.1,17,.16,25.46s0,17-.16,25.46c-.14-8.48-.1-17-.16-25.46S114.91,157.11,115.05,148.62Z" style="fill:#455a64"></path><path d="M130.94,148.62c.14,8.49.11,17,.16,25.46s0,17-.16,25.46c-.13-8.48-.1-17-.15-25.46S130.81,157.11,130.94,148.62Z" style="fill:#455a64"></path><path d="M146.84,148.62c.14,8.49.1,17,.16,25.46s0,17-.16,25.46c-.14-8.48-.1-17-.16-25.46S146.71,157.11,146.84,148.62Z" style="fill:#455a64"></path><path d="M162.74,148.62c.13,8.49.1,17,.15,25.46s0,17-.15,25.46c-.14-8.48-.1-17-.16-25.46S162.6,157.11,162.74,148.62Z" style="fill:#455a64"></path><path d="M83,184.27c2.81,0,4.48-9.22,8.45-9.22s4.4,6.73,7.74,6.73S102.39,170,106.89,170s3.45,4.8,8.16,4.8,2.93-11.14,7.84-11.14,2.93,15.35,8,15.35c3.25,0,4.5-4.88,8.37-4.88,2.56,0,4.07,2.44,7.42,2.44s4.08-9.37,8.27-9.37,4.66,5.54,7.74,5.54,4.18-9.08,9.83-9.08v35.93H83Z" style="fill:#407BFF;opacity:0.5"></path><path d="M83,184.72v-.89c.85,0,2-2.16,2.88-3.73,1.46-2.7,3-5.5,5.57-5.5s3.73,2.05,4.82,3.85c.85,1.42,1.74,2.88,2.92,2.88s2-2.84,2.62-4.91c1.08-3.4,2.2-6.91,5.12-6.91,2.61,0,3.63,1.38,4.53,2.6s1.63,2.2,3.63,2.2c1.81,0,2.51-2.61,3.2-5.12.81-3,1.64-6,4.64-6s3.74,3.85,4.55,7.93c.65,3.3,1.46,7.41,3.5,7.41,1.22,0,2.22-1,3.28-2.08,1.28-1.31,2.74-2.79,5.09-2.79a7.23,7.23,0,0,1,3.58,1.19,7.68,7.68,0,0,0,3.84,1.25c1.16,0,2.22-2.23,3.07-4,1.25-2.63,2.55-5.36,5.2-5.36s3.93,1.77,5.07,3.33c.84,1.14,1.63,2.22,2.67,2.22.88,0,1.88-1.72,2.77-3.25,1.51-2.6,3.39-5.83,7.06-5.83v.89c-2.83,0-4.46,2.8-5.9,5.28-1.23,2.12-2.2,3.8-3.93,3.8s-2.77-1.31-3.78-2.7-2.09-2.85-4-2.85-2.95,2.52-4,4.75c-1.18,2.48-2.2,4.63-4.27,4.63a9,9,0,0,1-4.61-1.44,5.91,5.91,0,0,0-2.81-1c-1.69,0-2.9,1.22-4.06,2.4s-2.43,2.47-4.31,2.47c-3.13,0-3.92-4-4.75-8.17-.63-3.2-1.41-7.17-3.3-7.17s-2.73,2.81-3.41,5.3c-.81,3-1.58,5.83-4.43,5.83a5.28,5.28,0,0,1-4.75-2.67c-.84-1.14-1.57-2.12-3.41-2.12s-3,3.44-3.9,6.22c-1,3.13-1.79,5.6-3.84,5.6s-3-1.66-4.08-3.42-2-3.31-3.66-3.31-3.21,2.73-4.4,4.93C85.71,182.82,84.67,184.72,83,184.72Z" style="fill:#407BFF"></path><path d="M83,149.18c.1,8.39.19,16.79.2,25.18l.09,25.18-.29-.21,44.8.06,22.41,0,22.4.11-22.4.12-22.41,0-44.8.05h-.29v-.21l.09-25.18C82.77,166,82.86,157.57,83,149.18Z" style="fill:#455a64"></path></g><g id="freepik--character-3--inject-190"><path d="M584.39,451.56c2.1.68,62.09-.1,64.36-1.58.87-.55,1.26-9.3,1.44-19.88,0-.11-.07-39.1-.07-39.1l-39.12.4.5,39.09S588.67,441.06,586.35,443,582.28,450.89,584.39,451.56Z" style="fill:#eb9481"></path><path d="M602.41,434.6c.16-.05.24-.09.25-.14Z" style="fill:#407BFF"></path><path d="M650.07,435.62c-.22,8-.61,13.91-1.33,14.36-2.25,1.49-62.25,2.26-64.35,1.58s-.33-6.72,2-8.6c1.11-.91,6.91-3.8,12.66-6.56C590.47,441.25,584.05,448,650.07,435.62Z" style="fill:#263238"></path><path d="M650.07,435.62c-.22,8-.61,13.91-1.33,14.36-.89.59-10.88,1.07-22.73,1.39l14.45-14C643.48,436.84,646.68,436.25,650.07,435.62Z" style="fill:#263238;opacity:0.1"></path><path d="M662.43,218.19s-10.14,102.13-11.6,109.87c-.34,1.76.57,10.58.44,22.9-.32,26.87-1,75.34-1,75.34h-38.9s-1.24-84,.63-99.43,13.84-108.68,13.84-108.68Z" style="fill:#eb9481"></path><path d="M651.27,351c-.09,8-.23,17.85-.36,27.81h0l0,.23-25-160.82h36.61s-10.14,102.13-11.61,109.87C650.49,329.82,651.4,338.65,651.27,351Z" style="fill:#263238;opacity:0.1"></path><path d="M633.49,455.14c2.15.52,61.94-4.5,64.09-6.14.83-.61.6-9.36,0-19.93,0-.11-4.15-38.89-4.15-38.89L655,393.3l4,38.9s-22,12.16-24.2,14.21S631.35,454.62,633.49,455.14Z" style="fill:#eb9481"></path><path d="M697.58,449c-2.15,1.64-61.94,6.67-64.09,6.13s-.8-6.67,1.36-8.72c1.25-1.17,9.06-5.7,15.48-9.33-8.41,5.53-24.43,17.53,47.47-4.29C698.23,441.62,698.31,448.46,697.58,449Z" style="fill:#263238"></path><path d="M658.56,427.84l38.61-2.9s-10-90-10.24-95.73c-.32-8.47-3.55-44.27-7-72.57,0,0,3.73-20.42-5.64-38.48H625.78s3.25,22,8.82,36a63.92,63.92,0,0,1,10.8,4.93s4,64,4.18,71.82C649.94,346.47,658.56,427.84,658.56,427.84Z" style="fill:#eb9481"></path><path d="M625.78,218.16s-15.33,104.35-15.94,114-1,17.76-1,17.76,17.13,3.26,31.74,3.26c19.86,0,50.58-3.91,50.58-3.91s-10.45-92.43-10.52-92.64a59.09,59.09,0,0,0-5.38-38.58Z" style="fill:#407BFF"></path><g style="opacity:0.6000000000000001"><path d="M625.78,218.16s-15.33,104.35-15.94,114-1,17.76-1,17.76,17.13,3.26,31.74,3.26c19.86,0,50.58-3.91,50.58-3.91s-10.45-92.43-10.52-92.64a59.09,59.09,0,0,0-5.38-38.58Z"></path></g><g style="opacity:0.1"><path d="M641,298.52A148,148,0,0,1,642.86,314c.14,2.55.19,5.08.21,7.61,0,1.27,0,2.53.08,3.8a22.51,22.51,0,0,0,.41,4c0,.12-.1.15-.13,0-.33-1.26-.63-2.46-.84-3.75s-.3-2.45-.37-3.67c-.16-2.59-.23-5.17-.37-7.77-.28-5.22-.57-10.45-1.12-15.7C640.7,298.28,641,298.27,641,298.52Z"></path><path d="M633.91,287.22a89,89,0,0,1,3.55,8.78c.5,1.5.92,3,1.31,4.54.18.74.35,1.47.51,2.21s.26,1.64.45,2.45c0,.08-.11.13-.13,0-.2-.76-.52-1.49-.76-2.23s-.49-1.5-.73-2.25c-.49-1.5-1-3-1.47-4.49-.95-3-1.92-6-3-9C633.61,287.13,633.84,287.07,633.91,287.22Z"></path></g><path d="M635.7,133.76c5,8-.31,13.55,2,16.22,6,7,1,8.56,2.53,11,1.23,2,6.84,4.23,3.92,10.53l-26.59-3.46c-.24-4.47,4.47-6.25,5.14-9.3s-2.6-6.61,4.12-12.44C631.15,142.53,633.32,129.93,635.7,133.76Z" style="fill:#263238"></path><path d="M632.16,131.51s-3.58,1.18-4.54,3.61c-1.56,4-.66,10.55-.66,10.55Z" style="fill:#263238"></path><path d="M646.9,173.21c-1.69,11.86-17.29,42.51-25.62,46.61-6,3-34.62-4.93-42.89-8.46-8-3.4,5.56-27.53,10.39-25.86,6.8,2.36,23,10.61,25.55,10,1.8-.42,10.06-9.61,22.2-25.48C643.25,161.25,647.9,166.13,646.9,173.21Z" style="fill:#eb9481"></path><path d="M577.77,179.56c-4.26-.48-9.1-1.38-13.45-.29s-6.66,7.69-6.28,9.35,4.41,11.58,8.78,10.57-.09-8.32-.14-9.26-.14-2.14.7-2.25,16.86,3.42,16.86,3.42Z" style="fill:#eb9481"></path><path d="M577.63,180.23c-.25.06-13-1.87-17.38-.78s-6.65,7.7-6.27,9.35,4.4,11.58,8.77,10.58-.09-8.32-.13-9.27-.15-2.14.69-2.25,16.86,3.42,16.86,3.42Z" style="fill:#eb9481"></path><path d="M564.11,198.48a5.33,5.33,0,0,0,.13-2.75,9.44,9.44,0,0,0-.8-2.75,15.47,15.47,0,0,1-1.09-2.29,5,5,0,0,1,.08-2.45c.2-.69.89-.63,1.49-.56a21.71,21.71,0,0,1,2.62.53c.93.22,1.86.46,2.78.7a21.26,21.26,0,0,1,2.86.81c.07,0,.06.14,0,.13a22.59,22.59,0,0,1-2.45-.49c-.92-.19-1.84-.39-2.77-.57s-1.71-.38-2.58-.53a2.46,2.46,0,0,0-1.23-.08c-.32.15-.29,1-.31,1.29a4.22,4.22,0,0,0,.7,2.33,12.61,12.61,0,0,1,1,2.29,6.57,6.57,0,0,1,.35,2.32,9.71,9.71,0,0,1-.61,2.12C564.23,198.63,564.06,198.57,564.11,198.48Z" style="fill:#263238"></path><path d="M594.14,188.51s-14.66-8.25-17.69-9.86c-6.07-3.24-29.38-7-32.43-6.67s-2.71,6.71,13.21,9.7c8.39,1.58,10.75,5.63,11.16,8.09s-.86,7.49-4.95,8.32-8.1-4.51-12-4.31.15,6.49,3.7,9.84a25.62,25.62,0,0,0,12.92,6c3.82.51,15.79,2.69,15.79,2.69Z" style="fill:#eb9481"></path><path d="M557.73,196.39c1.8.83,3.9,2,5.93,1.58s3.15-2.06,3.72-4a7.94,7.94,0,0,0-.22-5.87,9.72,9.72,0,0,0-3.84-3.92,23.42,23.42,0,0,0-6.36-2.4c-.1,0-.05-.17,0-.15,2.07.4,8.44,1.45,10.79,6.32a8.09,8.09,0,0,1,.18,6c-.53,1.83-1.48,3.69-3.41,4.31-2.36.74-4.88-.73-7-1.8C557.53,196.43,557.64,196.35,557.73,196.39Z" style="fill:#263238"></path><path d="M589.33,185.68,586,217.28s28.83,7.06,36,3.13,21.67-31.06,25.34-46.36c2.24-9.31-4-13.77-11.94-4.14-8.17,9.89-19.7,23.64-20.67,24.26S589.33,185.68,589.33,185.68Z" style="fill:#407BFF"></path><path d="M647.35,174c-3.68,15.31-18.12,42.43-25.34,46.37-2.22,1.2-6.46,1.37-11.27,1l29.85-56.08h0a6.08,6.08,0,0,1,.79-.36,3.25,3.25,0,0,1,.4-.15,5.11,5.11,0,0,1,.93-.24,2.87,2.87,0,0,1,.41,0l.41,0a3.82,3.82,0,0,1,1.77.41,3,3,0,0,1,.72.51C647.69,166.91,648.31,170,647.35,174Z" style="opacity:0.1"></path><path d="M592.88,216.21c0-1.08.09-2.16.14-3.23s.13-2.14.22-3.21q.27-3.11.6-6.19l.66-6.18c.23-2.12.36-4.3.76-6.4a.08.08,0,1,1,.15,0c0,2.14-.28,4.3-.45,6.43s-.34,4.21-.52,6.31-.37,4.21-.59,6.31c-.1,1-.22,2.06-.37,3.08s-.21,2.09-.46,3.1C593,216.32,592.89,216.28,592.88,216.21Z" style="fill:#263238"></path><path d="M624.4,225.16s37.14,1.61,52.85-.25c0,0-10.75-45.39-22.2-57.62-5.21-5.57-10.3-4.72-14.62-1.14-1.08.9-14.43,17.84-15.56,23.75-1,5.22,3.25,11,3.25,11Z" style="fill:#ebebeb"></path><polygon points="644.3 177.62 642.33 173.49 638.99 176.65 639.57 179.69 642.79 180.05 644.3 177.62" style="fill:#455a64"></polygon><polygon points="642.79 180.05 641.98 210.9 635.04 224.54 630.5 210.91 639.57 179.69 642.79 180.05" style="fill:#455a64"></polygon><path d="M640.85,165.61s-5.71,15.38-6.06,19.33,1.43,18.78,1.43,18.78S644.92,188.06,647,183c3.27-7.86,4-18.81,4-18.81s3.26,1.48,7.54,7.35c5.74,7.86,16.08,37.38,19.47,53.82L638.92,231,635,224.54,632.37,231l-9.27-5.16,5-24.9a13.8,13.8,0,0,1-2.82-12.42C627.51,180.72,640.85,165.61,640.85,165.61Z" style="fill:#407BFF"></path><path d="M636.22,203.72A140.69,140.69,0,0,1,635,224.54a142.06,142.06,0,0,1,1.18-20.82Z" style="fill:#263238"></path><path d="M639.69,208.23a1.22,1.22,0,1,1-2.43,0,1.22,1.22,0,0,1,2.43,0Zm0,0a.84.84,0,1,0-1.68,0,.84.84,0,1,0,1.68,0Z" style="fill:#263238"></path><path d="M639.37,214.67a1.22,1.22,0,1,1-2.43,0,1.22,1.22,0,0,1,2.43,0Zm0,0a.85.85,0,0,0-1.69,0,.85.85,0,1,0,1.69,0Z" style="fill:#263238"></path><path d="M639.05,221.11a1.22,1.22,0,0,1-2.44,0,1.22,1.22,0,0,1,2.44,0Zm0,0a.85.85,0,0,0-1.69,0,.85.85,0,1,0,1.69,0Z" style="fill:#263238"></path><polygon points="652.21 209.61 665.99 207.12 666.42 208.9 652.53 211.41 652.21 209.61" style="fill:#000102;opacity:0.1"></polygon><path d="M629.67,180.25c.06-.09-.08-.16-.14-.08a39.66,39.66,0,0,0-2.54,4c.31-.9.65-1.79,1-2.67a0,0,0,1,0-.06,0,21.25,21.25,0,0,0-1.35,3.48c-1.76,3.49-2.72,7.31-1.65,11.25a10.36,10.36,0,0,0,1.72,3.53,8,8,0,0,1,1.05,1.46c0,.21-.5,2.38-.59,2.86-.67,3.42-1.4,6.83-2.11,10.24q-.6,2.85-1.16,5.72a54.85,54.85,0,0,0-.91,5.55c0,.1.13.1.15,0a86.37,86.37,0,0,0,2.28-10q1-5,2-10a41.43,41.43,0,0,0,.83-4.62c-.1-.12-.54-.94-.87-1.37a9.3,9.3,0,0,1-1-1.68,13.32,13.32,0,0,1-.87-8.24A27.8,27.8,0,0,1,629.67,180.25Z" style="fill:#263238"></path><path d="M634.25,202.41a40.6,40.6,0,0,1,5.92,1c1,.25,1.92.54,2.86.85.47.16,1,.3,1.42.43A6.67,6.67,0,0,0,646,205a0,0,0,1,1,0,.07,9,9,0,0,1-1.47,0,11.12,11.12,0,0,1-1.4-.26c-1-.24-2-.53-2.93-.78-2-.51-3.95-1-5.95-1.38C634.13,202.56,634.16,202.4,634.25,202.41Z" style="fill:#263238"></path><path d="M629.32,204.18a43,43,0,0,1,4.95-.24c.83,0,1.65.07,2.47.15.39,0,.78.08,1.18.13s.85.17,1.28.21c0,0,0,.08,0,.08-.41,0-.82,0-1.23,0l-1.24,0c-.82,0-1.65,0-2.47-.06-1.65-.05-3.29-.09-4.94-.09A.07.07,0,1,1,629.32,204.18Z" style="fill:#263238"></path><polygon points="632.89 246.47 598.44 249.02 588.31 200.75 622.76 198.19 632.89 246.47" style="fill:#263238"></polygon><polygon points="631.2 246.59 596.75 249.15 586.62 200.88 621.07 198.32 631.2 246.59" style="fill:#455a64"></polygon><path d="M604.22,221.94a3.76,3.76,0,0,0,3.9,3.08,3,3,0,0,0,2.81-3.58,3.75,3.75,0,0,0-3.9-3.08A3,3,0,0,0,604.22,221.94Z" style="fill:#fff"></path><path d="M655.88,168.05c10.62,11.43,35.2,42,30.06,49.16-8.46,11.82-30.66,23.53-37.7,26.37-3,1.22-16.3-20.44-13.53-22.58,3.33-2.56,25.94-12.28,25.62-14.4-.18-1.2-4.44-13.93-8.1-26.66C648,165.18,652.24,164.13,655.88,168.05Z" style="fill:#eb9481"></path><path d="M645.94,218.37s-9.77-1.92-16.22-2.87c-3.6-.53-9.85-.89-12.67-.07-4.22,1.23-21.09,9-19.28,13.18,1.64,3.74,15.28-4.82,15.28-4.82s-14.53,7.42-11.73,11.56,16.92-7.58,16.92-7.58-14.75,8-11.19,11.77c2.69,2.88,16.08-7,16.08-7s-12.64,6.92-10,10c2.92,3.4,15.85-4.95,15.85-4.95,8,6.7,14.6,7.32,19.26,6C649.34,243.26,645.94,218.37,645.94,218.37Z" style="fill:#eb9481"></path><path d="M617.23,221.27c-11.12,4.65-15.14,10.34-15,10.21,3.25-3.06,9.14-6.59,10.8-7.55s2.59-1.63,4.25-2.6C617.31,221.31,617.27,221.26,617.23,221.27Z" style="fill:#263238"></path><path d="M621.49,226.83A40.94,40.94,0,0,0,609,234.16c-.14.13-.05.15.11.05,2.08-1.28,10.33-6.15,12.46-7.33C621.55,226.86,621.52,226.82,621.49,226.83Z" style="fill:#263238"></path><path d="M625.47,231.37a30.52,30.52,0,0,0-9.54,5.95c-.14.13,0,.16.16.06,3.13-2,5.58-3.66,9.44-5.89A.07.07,0,0,0,625.47,231.37Z" style="fill:#263238"></path><path d="M648,213.39l14.39,24.93s24.23-14.48,25.13-24-25-40.27-29.88-45.23c-1.38-1.4-5.07-4.54-6.67-4-1.81.61-1.38,3.32-.7,9.6.9,8.37,9.55,30.83,9.13,31.82S648,213.39,648,213.39Z" style="fill:#407BFF"></path><path d="M666.67,233.65c-.68-.83-1.19-1.79-1.79-2.68s-1.16-1.81-1.72-2.73q-1.6-2.66-3.16-5.34l-3.11-5.38c-1.07-1.86-2.25-3.69-3.17-5.63a.07.07,0,0,1,.13-.07c1.26,1.73,2.31,3.64,3.43,5.46s2.21,3.6,3.3,5.4,2.19,3.61,3.25,5.43c.52.9,1,1.8,1.51,2.72a29.26,29.26,0,0,1,1.46,2.77C666.83,233.68,666.72,233.71,666.67,233.65Z" style="fill:#263238"></path><path d="M659.77,206.5a13.94,13.94,0,0,0-.76-2.91c-.68-2-3.09-9.67-3.81-11.69-.81-2.25-1.59-4.52-2.48-6.74a.05.05,0,0,0-.1,0c.38,1.36.93,3.17,1.52,5.06-.13-.21-.25-.41-.39-.61a12.36,12.36,0,0,1-1.1-1.9s0,0,0,0a14.38,14.38,0,0,0,.87,2c.16.32.36.63.55.93s.25.35.38.53c1.42,4.5,4.71,14.74,4.77,14.91s-9.43,5.86-11.49,7.14c-.09.05.26.5.46.73a.07.07,0,0,0,.12-.08,2,2,0,0,0-.26-.45C651.61,211.83,659.67,207,659.77,206.5Z" style="fill:#263238"></path><path d="M650.66,167.23c-.27,1-4.29,6-8.75,5.57-1.45-.14-2-7-2-7l-.11-.59-1.44-8.33,10-5.74,1.44-.75s.24,2.3.52,5.17c0,.13,0,.27,0,.41s0,.31,0,.47c.05.42.1.86.13,1.3s.06.65.08,1,0,.7.07,1.05A53.46,53.46,0,0,1,650.66,167.23Z" style="fill:#eb9481"></path><path d="M650.3,155.55a17,17,0,0,1-10.49,9.65l-1.44-8.33,10-5.74,1.44-.75S650,152.68,650.3,155.55Z" style="fill:#263238"></path><path d="M639.8,165.37l2.8,6.67,8.21-8.62,2.41,2.68s-8,13.63-8,13l-2.86-5.74-3.93,4.08.16-10.11Z" style="fill:#ebebeb"></path><path d="M638.22,172.46c.08-1.67.12-3.35.28-5,0-.06.09-.09.11,0,.36,1.6,0,8,0,9.51l0,0c.16-.17,3.64-3.6,3.68-3.54.61.91,2.71,5.09,2.85,5.47,1.26-2.16,6.09-10,7.58-12.09a.06.06,0,0,1,.1.06c-1.1,2.28-7.48,12.88-7.59,12.85a66.88,66.88,0,0,1-3-6.07,44,44,0,0,1-4.12,4.35A52.92,52.92,0,0,1,638.22,172.46Z" style="fill:#263238"></path><path d="M626,144.78c-1.32,14.77,7.38,17.23,10.56,17.51,2.89.26,12.77.76,15.61-13.79s-3.6-19.84-10.18-20.77S627.31,130,626,144.78Z" style="fill:#eb9481"></path><path d="M628.36,142c.35,0,.67-.12,1-.18a1.7,1.7,0,0,0,1-.39.52.52,0,0,0,0-.64,1.31,1.31,0,0,0-1.28-.34,2,2,0,0,0-1.23.64A.57.57,0,0,0,628.36,142Z" style="fill:#263238"></path><path d="M638.68,142.33a8.56,8.56,0,0,1-1-.24,1.61,1.61,0,0,1-1-.44.54.54,0,0,1,0-.64,1.3,1.3,0,0,1,1.3-.27,2,2,0,0,1,1.19.71A.57.57,0,0,1,638.68,142.33Z" style="fill:#263238"></path><path d="M636.23,145.9s.07.06.07.1c-.08,1,0,2.17.89,2.55a0,0,0,0,1,0,.06C636.07,148.39,636,146.84,636.23,145.9Z" style="fill:#263238"></path><path d="M637.18,144.9c1.63,0,1.59,3.22.08,3.25S635.82,144.93,637.18,144.9Z" style="fill:#263238"></path><path d="M637.82,145.08c.28.18.56.51.9.55s.7-.29,1-.62c0,0,.06,0,.06,0,0,.63-.25,1.26-.92,1.35s-1-.48-1.19-1.11C637.6,145.17,637.71,145,637.82,145.08Z" style="fill:#263238"></path><path d="M630.25,145.54s-.07,0-.07.08c0,1-.11,2.18-1,2.51,0,0,0,.06,0,.05C630.27,148,630.44,146.49,630.25,145.54Z" style="fill:#263238"></path><path d="M629.36,144.48c-1.63-.13-1.77,3.12-.26,3.24S630.72,144.59,629.36,144.48Z" style="fill:#263238"></path><path d="M628.67,144.66c-.26.16-.53.47-.84.47s-.61-.35-.82-.7c0,0,0,0,0,0-.05.62.13,1.28.72,1.43s1-.39,1.14-1C628.86,144.78,628.78,144.6,628.67,144.66Z" style="fill:#263238"></path><path d="M635.79,154.41c-.24.24-.47.58-.83.62a2.72,2.72,0,0,1-1.09-.22s-.07,0,0,.05a1.36,1.36,0,0,0,1.3.51,1.09,1.09,0,0,0,.77-.92C635.9,154.39,635.82,154.37,635.79,154.41Z" style="fill:#263238"></path><path d="M631.45,150.53s-.24,1.51-.26,2.22c0,.06.17.1.41.12h0a3.38,3.38,0,0,0,3.31-1.18.07.07,0,0,0-.1-.1,5.2,5.2,0,0,1-3.11.81c0-.2.51-2.56.39-2.57a6,6,0,0,0-1.62.32c.42-3.14,1.34-6.19,1.71-9.33a.1.1,0,0,0-.19,0,51,51,0,0,0-2.26,10C629.69,151.15,631.16,150.65,631.45,150.53Z" style="fill:#263238"></path><path d="M631.9,152.77a3.89,3.89,0,0,0,1.53,1.26,1.8,1.8,0,0,0,1.06.09c.77-.18.81-.88.69-1.49a4,4,0,0,0-.32-.93A5.06,5.06,0,0,1,631.9,152.77Z" style="fill:#263238"></path><path d="M633.43,154a1.8,1.8,0,0,0,1.06.09c.77-.18.81-.88.69-1.49A1.8,1.8,0,0,0,633.43,154Z" style="fill:#ff9cbd"></path><path d="M639.23,127.5c7.06-.69,13,.65,15.94,4.05,6.16,7.1,3.09,19.61,5.77,21.88,7,5.94,2.36,8.29,4.23,10.48,1.53,1.8,7.42,3.11,5.53,9.79l-26.82.75c-.93-4.38,3.44-6.87,3.63-10s-3.61-6.11,2.11-12.93C653.33,147.1,639.23,127.5,639.23,127.5Z" style="fill:#263238"></path><path d="M652.71,148.17c-1.7.12-5.66.38-8.16-1.69-1.37-1.14-2.58-3.07-3.3-6.54-1.28-6.07-5.47-10-11.94-6.45,0,0-1.31-5.43,2.49-7.65s7.68,1.29,7.68,1.29,8.4-.84,12.89,5.51S652.71,148.17,652.71,148.17Z" style="fill:#263238"></path><path d="M651.26,154a3.3,3.3,0,0,1-.69.17,2.08,2.08,0,0,1-.7,0,2,2,0,0,1-.85-.28,2.51,2.51,0,0,1-.56-.43,2.93,2.93,0,0,1-.56-.84l.83-4s3.26-4.62,5.35-3.45S653.73,153.09,651.26,154Z" style="fill:#eb9481"></path><path d="M653.33,147.13s0,.05,0,.06a6.34,6.34,0,0,0-3.28,4,1.37,1.37,0,0,1,2.07-.37s0,.1,0,.09a1.54,1.54,0,0,0-1.7.53,7.26,7.26,0,0,0-.81,1.37c-.09.16-.37.07-.31-.1l0,0C649.24,150.42,651,147.34,653.33,147.13Z" style="fill:#263238"></path><path d="M651.05,153.37a.68.68,0,1,1-.53-.81A.69.69,0,0,1,651.05,153.37Z" style="fill:#fff"></path><path d="M652.47,152.34a.49.49,0,0,1-.57.38.48.48,0,0,1-.38-.58.47.47,0,0,1,.57-.37A.49.49,0,0,1,652.47,152.34Z" style="fill:#fff"></path></g><g id="freepik--character-2--inject-190"><polygon points="258.78 351.41 261.12 365.44 276.96 451 279.52 451 268 365.44 266.29 351.41 258.78 351.41" style="fill:#c7c7c7"></polygon><polygon points="266.29 351.41 258.78 351.41 261.12 365.44 268 365.44 266.29 351.41" style="fill:#a6a6a6"></polygon><polygon points="209.02 451 211.57 451 227.42 365.44 229.76 351.41 222.25 351.41 220.54 365.44 209.02 451" style="fill:#c7c7c7"></polygon><polygon points="222.25 351.41 220.54 365.44 227.42 365.44 229.76 351.41 222.25 351.41" style="fill:#a6a6a6"></polygon><polygon points="161.49 451 164.05 451 179.89 365.44 182.23 351.41 174.72 351.41 173.01 365.44 161.49 451" style="fill:#c7c7c7"></polygon><polygon points="173.01 365.44 179.89 365.44 182.23 351.41 174.72 351.41 173.01 365.44" style="fill:#a6a6a6"></polygon><polygon points="165.54 358 281.65 358 281.65 345.76 238.19 345.76 223.58 276.56 169.97 276.56 165.54 358" style="fill:#c7c7c7"></polygon><polygon points="172.31 345.77 281.65 345.77 281.65 358 171.87 358 172.31 345.77" style="fill:#dbdbdb"></polygon><polygon points="165.54 358 171.87 358 176 276.56 169.97 276.56 165.54 358" style="fill:#dbdbdb"></polygon><path d="M285.81,466.86c-2.24.28-63.33-14-65.31-15.9-.24-.21,2.64-11.94,2.64-11.94,1-4.83,15-44.22,15-44.22l39.94,9.85L263,441.17s7.62,5.15,14.16,10.06l0,0a88,88,0,0,1,8.27,6.62C287.41,460.2,288,466.6,285.81,466.86Z" style="fill:#ad6359"></path><path d="M285.8,466.86c-2.23.28-63.32-14-65.3-15.9-.24-.21,2.65-11.94,2.65-11.94.32-1.58,2.24-6.91,4.7-13.36l38.22,8.92L263,441.16s7.62,5.16,14.16,10.08v0a87.74,87.74,0,0,1,8.28,6.61C287.42,460.2,288,466.6,285.8,466.86Z" style="fill:#ebebeb"></path><path d="M286,467c-2.31.24-63.89-13.56-65.9-15.57-.78-.75,4.69-20.59,4.71-20.7l39.42,8.7-.17.67s19.81,15.18,21.78,17.63S288.29,466.8,286,467Z" style="fill:#407BFF"></path><path d="M285.82,464.49c-10.32-2.58-52.2-12-62.61-13.79-.08,0-.09.05,0,.07,10.18,2.78,52.13,11.88,62.58,13.89C286,464.7,286,464.55,285.82,464.49Z" style="fill:#263238"></path><path d="M267.21,439.94c-3.92-1.68-9.06-2.17-12.83,0-.15.09,0,.29.12.28a59.37,59.37,0,0,1,12.57.2A.27.27,0,0,0,267.21,439.94Z" style="fill:#263238"></path><path d="M269.75,442.37c-3.91-1.68-9.05-2.17-12.82,0-.15.08,0,.29.12.28a58.71,58.71,0,0,1,12.57.19A.27.27,0,0,0,269.75,442.37Z" style="fill:#263238"></path><path d="M272.3,444.81c-3.91-1.68-9.05-2.17-12.82,0-.15.09,0,.3.12.28a59.37,59.37,0,0,1,12.57.2A.27.27,0,0,0,272.3,444.81Z" style="fill:#263238"></path><path d="M274.52,432.23c-1.11-2.57-4.32-2.24-6.35-1.2a22.37,22.37,0,0,0-8.39,7.94.11.11,0,0,0,.06.17.52.52,0,0,0,.53.65c3.65-.49,7.62-.56,11-2.16C273.36,436.7,275.57,434.66,274.52,432.23Zm-8.77,5.68c-1.79.29-3.58.49-5.36.84a67,67,0,0,1,5-4.53,23.33,23.33,0,0,1,2.69-1.85c1.46-.83,6.8-2.1,5.08,2.21C272.21,437,267.89,437.57,265.75,437.91Z" style="fill:#263238"></path><path d="M249.63,435.58c3.05,2.18,6.94,3,10.44,4.13.36.12.63-.23.64-.55a.11.11,0,0,0,.09-.15,22.37,22.37,0,0,0-6.8-9.33c-1.8-1.4-4.9-2.31-6.46,0S247.86,434.3,249.63,435.58Zm-1.19-3.33c-.9-4.55,4.11-2.33,5.4-1.24a22.9,22.9,0,0,1,2.31,2.31,66.49,66.49,0,0,1,4.09,5.36c-1.69-.67-3.42-1.19-5.12-1.8C253.08,436.16,249,434.77,248.44,432.25Z" style="fill:#263238"></path><path d="M266.15,439.79l-42.61-9.53s35.14-98,32-102.09c-1.56-2.06-41-2.67-53.58-13.3-16.3-13.82-5.36-34.92-5.36-34.92l44.07-1.31s-.53,9.21,1.19,10.59c1.14.93,53.66,5.34,59.43,23C308.39,334,266.15,439.79,266.15,439.79Z" style="fill:#37474f"></path><path d="M267.37,432.09c-1.13-.47-12.13-3.59-14.59-4.22-5-1.27-9.93-2.52-14.92-3.69-2.6-.61-8.17-1.94-8.5-1.91a.14.14,0,0,0,0,.27c4.86,1.51,9.77,2.84,14.69,4.18s21.78,5.46,23.25,5.62C267.41,432.36,267.52,432.15,267.37,432.09Z" style="fill:#263238"></path><path d="M263.11,324.52a6.66,6.66,0,0,0-3.33-1l-19.09-3.2c-5.95-1-11.94-1.89-17.86-3-4.91-.95-9.9-2.22-14.14-4.88A20.53,20.53,0,0,1,200,301a36.54,36.54,0,0,1-1.12-14.53c.11-1.18.33-2.36.55-3.53,0-.09-.13-.12-.14,0-1.62,9-1.76,19.51,5,26.7,3.3,3.51,7.83,5.57,12.46,6.9a142.24,142.24,0,0,0,16,3.12l19.09,3.18c3.06.51,6.17.91,9.21,1.54a3.23,3.23,0,0,1,1.66.74,2.38,2.38,0,0,1,.27,2.2c-.31,1.5-.72,3-1.15,4.45-3.47,11.85-26.91,84.84-27.6,86.14a.12.12,0,0,0,.22.11c5.84-10.39,22.82-70.51,26.68-81.72a71.65,71.65,0,0,0,2.5-8.72C263.91,326.52,264,325.32,263.11,324.52Z" style="fill:#263238"></path><path d="M369.92,467.51c-2.14.72-63.28-.14-65.61-1.63-.9-.86-1.62-8.68-2.17-18.4l-10.52-41.7,39.33-.33,11.52,41.42s8.49,3.53,15.88,7l0,0a87.8,87.8,0,0,1,9.43,4.84C370.16,460.67,372.05,466.81,369.92,467.51Z" style="fill:#ad6359"></path><path d="M371.17,467.56c-2.21.73-65.32.43-67.71-1.11-.92-.57-1.41-9.76-1.69-20.87,0-.12,0-.23,0-.35l40.72-.26,0,.69s24.11,10.91,26.56,12.87S373.38,466.84,371.17,467.56Z" style="fill:#407BFF"></path><path d="M370.47,465.11c-10.64-.31-53.57-.57-64.11-.07-.09,0-.09.06,0,.07,10.53.54,53.47.45,64.11.17C370.69,465.28,370.69,465.12,370.47,465.11Z" style="fill:#263238"></path><path d="M347,445.11c-4.18-.8-9.3-.18-12.51,2.78-.13.11,0,.29.17.25a58.78,58.78,0,0,1,12.33-2.5A.27.27,0,0,0,347,445.11Z" style="fill:#263238"></path><path d="M350,446.94c-4.19-.8-9.31-.18-12.52,2.78-.13.12,0,.29.18.25a58.56,58.56,0,0,1,12.32-2.5A.27.27,0,0,0,350,446.94Z" style="fill:#263238"></path><path d="M353,448.78c-4.18-.81-9.31-.19-12.52,2.78-.12.11,0,.28.18.24A59.33,59.33,0,0,1,353,449.3.26.26,0,0,0,353,448.78Z" style="fill:#263238"></path><path d="M352.5,436c-1.63-2.27-4.7-1.27-6.45.19a22.29,22.29,0,0,0-6.5,9.54.11.11,0,0,0,.1.15c0,.32.29.66.65.53,3.47-1.26,7.33-2.18,10.3-4.47C352.33,440.63,354.05,438.16,352.5,436Zm-7.34,7.42c-1.69.67-3.4,1.24-5.06,2a66.1,66.1,0,0,1,3.92-5.5,22.77,22.77,0,0,1,2.23-2.38c1.25-1.13,6.19-3.51,5.43,1.07C351.26,441.13,347.17,442.66,345.16,443.44Z" style="fill:#263238"></path><path d="M328.92,444.61c3.44,1.49,7.41,1.43,11.07,1.8a.52.52,0,0,0,.51-.67.11.11,0,0,0,.06-.17,22.44,22.44,0,0,0-8.65-7.66c-2.06-1-5.28-1.2-6.3,1.41C324.64,441.78,326.91,443.74,328.92,444.61Zm-1.88-3c-1.86-4.26,3.51-3.16,5-2.37a23.31,23.31,0,0,1,2.75,1.76,67,67,0,0,1,5.15,4.36c-1.79-.29-3.59-.43-5.39-.66C332.41,444.44,328.07,444,327,441.62Z" style="fill:#263238"></path><path d="M345.41,445.41l-45.9,0S279.87,351,276.39,346.55c-4.63-5.92-69.49-5.78-83.4-25.09-12.49-17.33-2-41.87-2-41.87l49.12-1.46a101.66,101.66,0,0,1-4.56,15.45s59.17,10.9,75.75,29C322.53,334.84,345.41,445.41,345.41,445.41Z" style="fill:#37474f"></path><path d="M244.17,290.22a23.43,23.43,0,0,0-4.16,1.33c-1.41.54-2.8,1.15-4.16,1.81a81.43,81.43,0,0,0-7.77,4.39c-.07.05,0,.15.08.11,2.66-1.38,5.4-2.62,8.15-3.8l4-1.71a41,41,0,0,0,4-1.77C244.46,290.49,244.37,290.18,244.17,290.22Z" style="fill:#263238"></path><path d="M241.23,278.11c-.56,2.24-1.06,4.49-1.7,6.71a31.62,31.62,0,0,1-1,3c-.32.84-.82,1.79-1.78,2-1.11.21-1.43-.74-1.34-1.66s.36-2.05.56-3.06c.24-1.16.47-2.32.68-3.49.11-.58.22-1.17.32-1.75,0-.15.13-1.27.21-1.59,0,0,0,.06.07,0h0s.07,0,.07-.06,0-.11,0-.17-.07,0-.11,0c-.21.12-.22.41-.29.63-.18.56-.37,1.13-.53,1.7-.31,1.07-.62,2.14-.89,3.22s-.53,2.16-.8,3.24a5,5,0,0,0-.22,2.48,1.91,1.91,0,0,0,1.76,1.44c0,.07-.08.14-.11.21-.1.22-.17.46-.26.68s-.16.47-.23.71a1.86,1.86,0,0,0-.06.34c0,.13,0,.26,0,.39a.19.19,0,0,0,.35.12c.06-.11.15-.2.21-.31a1.8,1.8,0,0,0,.16-.38c.08-.22.14-.44.2-.67s.13-.46.17-.69,0-.27,0-.41a2.47,2.47,0,0,0,1.29-.49,4.31,4.31,0,0,0,1.34-2.05c.34-.93.6-1.89.86-2.85a41.26,41.26,0,0,0,1.43-7.21A.21.21,0,0,0,241.23,278.11Z" style="fill:#263238"></path><path d="M340.66,437.19A34.79,34.79,0,0,0,337,437l-3.87-.15c-2.54-.07-5.09-.12-7.63-.13-5.12,0-10.24,0-15.37.07-2.66,0-8.39.11-8.71.22a.13.13,0,0,0,0,.26c5.09.27,10.17.35,15.26.44s10.17.17,15.26.09l4.22-.12a41.29,41.29,0,0,0,4.45-.19C340.77,437.43,340.83,437.21,340.66,437.19Z" style="fill:#263238"></path><path d="M281.74,347.2a13.63,13.63,0,0,0-1.91-3.95,7.09,7.09,0,0,0-3.76-1.93c-12.24-3.35-24.87-4.85-37.31-7.21a152.88,152.88,0,0,1-18.15-4.42A70.46,70.46,0,0,1,203.43,322a19.22,19.22,0,0,1-6.32-6.67,29,29,0,0,1-3-8.33,51.05,51.05,0,0,1,.05-20.16,46.33,46.33,0,0,1,1.26-4.9c0-.1-.13-.14-.16,0a49.05,49.05,0,0,0-2.77,20c.45,5.91,1.88,12.12,5.69,16.8a23.7,23.7,0,0,0,7.06,5.55,76.59,76.59,0,0,0,8.65,4.07,115.26,115.26,0,0,0,17.83,5.32c12.41,2.75,25.08,4.14,37.49,6.9,1.53.34,3.06.7,4.57,1.09a15.87,15.87,0,0,1,4.51,1.45c1.47.92,2,2.75,2.54,4.27.64,1.68,20.59,85.65,21,87.34.07.28.49.15.42-.12C300.58,427.64,283,350.52,281.74,347.2Z" style="fill:#263238"></path><path d="M278.12,349c-.47-1.47-.87-3.05-2.25-3.95s-21-3.52-23.22-3.86c-.1,0-.14.14,0,.16,1.9.31,20,3.56,21.66,4.1a3.62,3.62,0,0,1,1.77,1.15,7.65,7.65,0,0,1,1,2.46c.56,1.76,7.79,32.14,8.83,36.2.08.31.53.16.47-.14C285,377.49,278.7,350.83,278.12,349Z" style="fill:#263238"></path><path d="M235.84,293.7a165.7,165.7,0,0,1,26.8,5.49,188,188,0,0,1,25.85,9.35c4.7,2.11,9.25,4.47,13.76,6.95.09.05,0,.18-.08.13a209.26,209.26,0,0,0-25.15-11,201.46,201.46,0,0,0-26.18-7.59c-5-1.09-10-1.94-15.09-2.78C235.41,294.24,235.5,293.66,235.84,293.7Z" style="fill:#263238"></path><path d="M237.86,227.72c18.24,20.36,34.83,42.3,35.21,52.63.52,14.31-8.57,17.29-12.45,16.91-10.58-1-25.2-45.92-30.13-63C225.7,217.69,233.85,223.24,237.86,227.72Z" style="fill:#407BFF"></path><path d="M268.42,294.37a10.68,10.68,0,0,1-7.8,2.89c-10.58-1-25.2-45.92-30.13-63-2.11-7.3-1.7-10.31-.25-11,1.84-.89,5.38,2,7.62,4.46,18.24,20.36,34.83,42.3,35.21,52.63C273.33,287.57,271.15,291.91,268.42,294.37Z" style="fill:#407BFF"></path><path d="M268.42,294.37a10.68,10.68,0,0,1-7.8,2.89c-10.58-1-25.2-45.92-30.13-63-2.11-7.3-1.7-10.31-.25-11Z" style="opacity:0.1"></path><path d="M248.72,291.94l-63.81,9.71c-.27-.35,10.83-64.54,31.29-78.31,3.23-2.18,11.51-5.05,18.79,6.77C242.53,242.36,248.72,291.94,248.72,291.94Z" style="fill:#407BFF"></path><path d="M229.91,234.14c-3.47.75-9.31-4.65-11.57-9-.15-.3.36-3.39.81-7.17.26-2.29.5-4.85.54-7.2l14.69,3.88a37.56,37.56,0,0,0-1.61,9,6,6,0,0,0,.08,1,.7.7,0,0,1,0,.16C233.13,226.64,233.27,233.42,229.91,234.14Z" style="fill:#ad6359"></path><path d="M234.38,214.66a37.58,37.58,0,0,0-1.61,9,4.29,4.29,0,0,0,.09,1s0,.1,0,.15a7.43,7.43,0,0,1-1.52.06c-8.58-.37-10.79-11-11.23-13.95Z" style="fill:#263238"></path><path d="M218.29,193.41c-1.56,5.25,1.3,20.35,5.05,23.69,5.43,4.85,14.27,5.26,18.37-1.26,4-6.31-.1-25.92-4.28-29C231.28,182.41,220.59,185.67,218.29,193.41Z" style="fill:#ad6359"></path><path d="M233.47,202.74s-.07.06-.06.1c.24,1,.36,2.19-.48,2.71,0,0,0,.07,0,.06C234,205.22,233.86,203.65,233.47,202.74Z" style="fill:#263238"></path><path d="M232.35,201.88c-1.65.22-1.09,3.49.44,3.29S233.72,201.69,232.35,201.88Z" style="fill:#263238"></path><path d="M239.42,201.71s.08,0,.09.08c.14,1,.47,2.16,1.45,2.34a0,0,0,0,1,0,.05C239.81,204.22,239.39,202.7,239.42,201.71Z" style="fill:#263238"></path><path d="M240.14,200.5c1.61-.41,2.3,2.84.81,3.21S238.79,200.83,240.14,200.5Z" style="fill:#263238"></path><path d="M230.8,199.56a10.6,10.6,0,0,0,1.19-.66,2.22,2.22,0,0,0,1.09-.91.68.68,0,0,0-.26-.81,1.74,1.74,0,0,0-1.76.12,2.56,2.56,0,0,0-1.26,1.33A.75.75,0,0,0,230.8,199.56Z" style="fill:#263238"></path><path d="M240.81,197.74c-.47,0-.9-.07-1.36-.11a2.17,2.17,0,0,1-1.36-.39.69.69,0,0,1-.1-.85,1.72,1.72,0,0,1,1.65-.61,2.55,2.55,0,0,1,1.7.7A.75.75,0,0,1,240.81,197.74Z" style="fill:#263238"></path><path d="M233.93,211.87c.24.25.47.59.85.63a2.69,2.69,0,0,0,1.11-.23,0,0,0,0,1,0,0,1.39,1.39,0,0,1-1.32.53,1.1,1.1,0,0,1-.78-.93C233.81,211.86,233.89,211.84,233.93,211.87Z" style="fill:#263238"></path><path d="M234.71,208.74a3.48,3.48,0,0,0,2.56,1.14,4.08,4.08,0,0,0,1.25-.15l.45-.14a.25.25,0,0,0,.16-.26h0s-.43-2.16-.43-2.16c.31.1,1.87.5,1.78.1a52.78,52.78,0,0,0-3.13-10.21c0-.11-.21-.05-.18,0,.62,3.24,1.81,6.35,2.49,9.6a6,6,0,0,0-1.72-.22c-.05,0,.61,2.63.6,2.65a4.87,4.87,0,0,1-3.76-.49C234.7,208.59,234.63,208.67,234.71,208.74Z" style="fill:#263238"></path><path d="M217.26,208.48c4.24-.17,5.89-5.43,4.45-9.36,0,0,11.36.25,10.9-8.79a10.3,10.3,0,0,0,8.23,3.34l1.11,3.06c1.11-.46,2-3.85-1.12-6.1a10.79,10.79,0,0,0-4.28-6.78,6.16,6.16,0,0,0-6.69-.2,9.31,9.31,0,0,0-6.93-.92,8,8,0,0,0-5.35,4.93s-5.42,1.68-5.93,5.72a8.22,8.22,0,0,0,1.82,6.46s-1.22,1.7-.15,5C214,206.93,216,208.53,217.26,208.48Z" style="fill:#263238"></path><path d="M232.28,189.56a10.83,10.83,0,0,1,.26,2.19,8.76,8.76,0,0,1-.17,2.17,5.71,5.71,0,0,1-2.23,3.51,9.32,9.32,0,0,1-4,1.49c-.73.06-1.46.17-2.2.18s-1.47,0-2.22,0c.74.1,1.48.16,2.22.24s1.5,0,2.25,0a9.21,9.21,0,0,0,4.27-1.47,6,6,0,0,0,2.32-3.86A9.1,9.1,0,0,0,232.28,189.56Z" style="fill:#263238"></path><path d="M238.62,194.11a11.63,11.63,0,0,1-3.6-1.45,7.39,7.39,0,0,1-1.46-1.22,9.36,9.36,0,0,1-1.13-1.6,5,5,0,0,0,.82,1.85,5.41,5.41,0,0,0,1.49,1.41,6.59,6.59,0,0,0,1.87.81A6,6,0,0,0,238.62,194.11Z" style="fill:#263238"></path><path d="M222.21,206.62s-3.55-4.79-5.73-3.51.57,8.29,3.2,9.19a2.65,2.65,0,0,0,3.51-1.52Z" style="fill:#ad6359"></path><path d="M217.32,205.1s0,.05,0,.07c1.84.69,2.85,2.35,3.57,4.09a1.46,1.46,0,0,0-2.2-.34s0,.11,0,.1a1.62,1.62,0,0,1,1.81.52,7.75,7.75,0,0,1,.9,1.42c.09.16.38.07.31-.12v0C221.72,208.47,219.82,205.26,217.32,205.1Z" style="fill:#263238"></path><path d="M212.14,225.85c-19.09,15-37.86,40.92-38,55.42-.14,14.31,4.85,12.92,6.26,12.83,8.65-.57,29-40.4,35.21-56.63S216.86,222.14,212.14,225.85Z" style="fill:#407BFF"></path><path d="M191.9,282.92c1-1.81,2-3.59,3-5.41l3-5.41c2-3.62,4-7.22,5.87-10.87s3.87-7.27,5.76-10.93c.94-1.82,1.87-3.66,2.77-5.51s1.78-3.71,2.65-5.59a111.89,111.89,0,0,1-4.73,11.44c-1.75,3.74-3.66,7.4-5.57,11.06s-4,7.23-6.09,10.78S194.27,279.54,191.9,282.92Z" style="fill:#263238"></path><path d="M212.91,244a16.9,16.9,0,0,1,1.18-1.87c.21-.29.42-.59.65-.88s.43-.58.69-.87a5.43,5.43,0,0,1-.94,2A6.09,6.09,0,0,1,212.91,244Z" style="fill:#263238"></path><path d="M270.3,258.84c-.2-6.79-1.09-16.33-3.28-18.54s-10.67-10.15-13.2-11.35S240,222,237.74,223.05c-1.83.81-.27,5.57,5.08,8.35a82.08,82.08,0,0,1,8.37,5.24c1.37.78,4.31,5.78,3.15,7.73-.68,1.15-4.35,2.19-6.43,1s-2.16-5.61-4.43-7.92-6.72-2.54-7.1-1.38,1,1.88,2.83,6.17c1.18,2.75.6,9,3.41,13.83a78.26,78.26,0,0,1,3.65,8.72Z" style="fill:#ad6359"></path><path d="M241.34,235.32a4.4,4.4,0,0,1-2.08-1.22,1.84,1.84,0,0,1-.4-.95,2.12,2.12,0,0,1,0-.56c0-.16.12-.42.28-.51s0-.09,0,0a2.61,2.61,0,0,1-.23.24,2,2,0,0,0-.16.24,1.61,1.61,0,0,0-.15.53,1.83,1.83,0,0,0,.32,1.16,3,3,0,0,0,2.41,1.18A0,0,0,0,0,241.34,235.32Z" style="fill:#263238"></path><path d="M267,240.3c-1.76-3.56-6.56-10.17-11.72-12.82-3.5-1.79-16.69,3-16.58,5.4s2.24,2.68,5.45,2.64c1.17,0,7.52-1.55,8.42-.15,1.3,2,2.53,8.5,2.53,8.5Z" style="fill:#ad6359"></path><path d="M239.13,232c1.82-2.4,5.37-3.4,8.88-4.12.05,0,.07.07,0,.09-.89.18-6.69,2.12-8.87,4.07C239.14,232,239.11,232,239.13,232Z" style="fill:#263238"></path><path d="M267,240.3c-1.76-3.56-6.56-10.17-11.72-12.82-3.5-1.79-14.26,5-14.15,7.39s3.16,3,6.69,2.14c1.14-.26,5.11-2.46,6-1.07,1.3,2,4.45,7,4.45,7Z" style="fill:#ad6359"></path><path d="M256.51,239.86c-.29-.57-.39-.77-.68-1.32s-.6-1.11-.93-1.65a4.7,4.7,0,0,0-1-1.3,2.4,2.4,0,0,0-1.47-.46,8.63,8.63,0,0,0-3.4,1.08,10.2,10.2,0,0,1-5.37.93,3.55,3.55,0,0,1-1.36-.53,2.21,2.21,0,0,1-.76-.76c-.63-1.39.49-2.77,1.59-3.72a22.68,22.68,0,0,1,7.17-3.84c.62-.23,1.25-.44,1.87-.65a5.42,5.42,0,0,1,2.22-.38c1.23.12,3.11,1.59,3.7,2a0,0,0,0,0,.05-.07c-.71-.56-2.42-2.3-4.42-2.41a6.49,6.49,0,0,0-2.15.47c-.72.23-1.44.48-2.15.74a29.39,29.39,0,0,0-4,1.83,11.88,11.88,0,0,0-3.41,2.6,3.46,3.46,0,0,0-.6,3.52,3,3,0,0,0,2.11,1.44,5.9,5.9,0,0,0,1.57.15,25.1,25.1,0,0,0,3.51-.63c1.13-.31,2.18-.93,3.32-1.15a2.09,2.09,0,0,1,1.6.28,5.35,5.35,0,0,1,1.09,1.23,17.56,17.56,0,0,1,1.75,2.59C256.45,240.15,256.62,240.09,256.51,239.86Z" style="fill:#263238"></path><path d="M268.29,243.39c-.61-1.68-1.22-8.37-2.27-10.51s-6.07-9.71-8.8-9.7c-3.42,0-.55,6.5.95,9.2s.74,6.94.74,6.94Z" style="fill:#ad6359"></path><path d="M256.15,228c.54.86,1,1.8,1.46,2.72a20,20,0,0,1,1.25,2.65,8.92,8.92,0,0,1,.36,2.86c0,.48-.05.95-.09,1.42s-.16,1-.2,1.55c0,0-.09,0-.09,0a22.6,22.6,0,0,0-.06-2.85,12.4,12.4,0,0,0-.55-2.89c-.6-1.85-1.59-3.56-2.21-5.41C256,227.92,256.11,227.89,256.15,228Z" style="fill:#263238"></path><path d="M258.79,240a9.68,9.68,0,0,1-1.38,4.66,17.37,17.37,0,0,1-1.32,2.08,16.91,16.91,0,0,1-1.62,1.84,19.22,19.22,0,0,0-2.88,3.69,18.9,18.9,0,0,0-1.79,4.4,12.51,12.51,0,0,1,1.12-4.74,14.46,14.46,0,0,1,2.83-4,23.16,23.16,0,0,0,3-3.67A14.29,14.29,0,0,0,258.79,240Z" style="fill:#263238"></path><path d="M260.41,296.66c-6.49-1.67-9.49-13.21-14.72-33.49-.92-3.56,18.78-22.44,20.76-19,2.48,4.28,7.84,27.12,8,33.18C274.67,289.27,268,298.61,260.41,296.66Z" style="fill:#ad6359"></path><path d="M248.38,274.46l23.69-18.13s3.93,18.48,2.49,25.86-5.05,15.56-14.07,15C253.73,296.72,248.38,274.46,248.38,274.46Z" style="fill:#407BFF"></path><path d="M253.56,289.57c-.64-1.18-1.19-2.4-1.72-3.63s-1-2.47-1.47-3.72-.86-2.53-1.21-3.82a23.89,23.89,0,0,1-.78-3.94c.42,1.27.87,2.52,1.33,3.76l1.37,3.75c.44,1.25.89,2.5,1.3,3.77S253.21,288.27,253.56,289.57Z" style="fill:#263238"></path><path d="M252.53,278.6c1.16-1,2.42-1.92,3.64-2.86s2.46-1.87,3.7-2.78q3.74-2.74,7.51-5.41c.69-.49,1.38-1,2.08-1.45s1.56-.92,2.3-1.43c.06,0,.12,0,.07.08-.61.46-1.15,1-1.74,1.48s-1.24,1-1.87,1.44l-3.72,2.75c-2.49,1.83-5,3.65-7.53,5.39-1.43,1-2.85,2-4.35,2.92A.08.08,0,0,1,252.53,278.6Z" style="fill:#263238"></path><polygon points="218.48 270.58 252.93 273.14 263.06 224.87 228.61 222.31 218.48 270.58" style="fill:#263238"></polygon><polygon points="220.17 270.71 254.62 273.26 264.75 224.99 230.3 222.43 220.17 270.71" style="fill:#455a64"></polygon><path d="M247.14,246.05a3.73,3.73,0,0,1-3.89,3.08,3,3,0,0,1-2.81-3.58,3.75,3.75,0,0,1,3.89-3.08A3,3,0,0,1,247.14,246.05Z" style="fill:#fff"></path><path d="M178.37,294.07c6.4.88,14.37-4.09,35-19.19,2.87-2.09-6.44-26.25-9.62-24.18-4,2.61-18.92,13.62-19.91,14.56C175.53,273.21,174,293.47,178.37,294.07Z" style="fill:#ad6359"></path><path d="M196.42,258s5.89-8.26,10.33-11.65a35.77,35.77,0,0,1,15.91-6.43c6.19-.92,21.81,1.16,22,5.77.16,4.16-15.69,1.23-15.69,1.23s16.66.32,15.94,5.38-18.93.6-18.93.6,17.11.71,15.54,5.81c-1.18,3.85-17.91.75-17.91.75s14.71.71,13.66,4.72c-1.16,4.43-16.77,2.54-16.77,2.54-4.38,9.75-10.66,12.5-15.22,14C204.18,281.11,196.42,258,196.42,258Z" style="fill:#ad6359"></path><path d="M223.21,246.45c2,0,3.94-.08,5.9.06s3.9.35,5.84.67a34.42,34.42,0,0,1,7.4,2c-4.35-1.35-11.34-2-13.3-2.1s-3.89-.38-5.84-.53C223.16,246.52,223.17,246.45,223.21,246.45Z" style="fill:#263238"></path><path d="M222.58,253.5c2.5.06,5,0,7.49.21s4.83.56,7.3.91c.19,0,.11.12-.08.1-2.48-.25-4.79-.28-7.28-.5s-5-.53-7.44-.66C222.53,253.56,222.54,253.5,222.58,253.5Z" style="fill:#263238"></path><path d="M220.94,259.45a55.68,55.68,0,0,1,11.43,1.21c.18,0,.07.14-.12.12-3.79-.48-6.76-.87-11.31-1.2C220.87,259.58,220.86,259.45,220.94,259.45Z" style="fill:#263238"></path><path d="M196.42,254.72l8.15,29.7s-21.87,12.87-26.7,9.47-1.67-20.55,3.8-27.09C184,264.07,196.42,254.72,196.42,254.72Z" style="fill:#407BFF"></path><path d="M196.69,255.71l-.32-1,.08,0c-2.07,1.68-4.14,3.35-6.18,5.06s-4.09,3.4-6,5.19a30.59,30.59,0,0,0-2.78,2.8,23.27,23.27,0,0,0-2.2,3.26,25.16,25.16,0,0,0-2.64,7.45,21,21,0,0,1,2.14-7.72,18.79,18.79,0,0,1,2.18-3.41,29.76,29.76,0,0,1,2.8-2.92c2-1.8,4.05-3.49,6.16-5.13s4.28-3.19,6.5-4.67l.06,0,0,.07Z" style="fill:#263238"></path><path d="M191.63,262.09c.5,1.46.87,3,1.29,4.45s.81,3,1.19,4.48c.75,3,1.49,6,2.2,9,.19.82.38,1.64.56,2.47s.27,1.79.46,2.67c0,.07-.08.09-.1,0-.2-.73-.51-1.43-.72-2.16s-.43-1.51-.63-2.27c-.39-1.49-.78-3-1.16-4.48-.76-3-1.51-6-2.17-9-.38-1.7-.8-3.41-1.08-5.13A.08.08,0,0,1,191.63,262.09Z" style="fill:#263238"></path><path d="M203.84,281.78c.38.91.72,1.83,1,2.76-3,1.59-6.1,3.08-9.19,4.51s-6.1,2.74-9.23,3.91q8.84-4.74,18-8.76l-.13.29c-.2-.9-.36-1.8-.49-2.71Z" style="fill:#263238"></path></g><g id="freepik--character-1--inject-190"><polygon points="147.76 351.41 150.1 365.44 165.94 451 168.5 451 156.97 365.44 155.27 351.41 147.76 351.41" style="fill:#c7c7c7"></polygon><polygon points="155.27 351.41 147.76 351.41 150.1 365.44 156.97 365.44 155.27 351.41" style="fill:#a6a6a6"></polygon><polygon points="98 451 100.55 451 116.4 365.44 118.74 351.41 111.22 351.41 109.52 365.44 98 451" style="fill:#c7c7c7"></polygon><polygon points="111.22 351.41 109.52 365.44 116.4 365.44 118.74 351.41 111.22 351.41" style="fill:#a6a6a6"></polygon><polygon points="50.47 451 53.03 451 68.87 365.44 71.21 351.41 63.7 351.41 61.99 365.44 50.47 451" style="fill:#c7c7c7"></polygon><polygon points="61.99 365.44 68.87 365.44 71.21 351.41 63.7 351.41 61.99 365.44" style="fill:#a6a6a6"></polygon><polygon points="54.52 358 170.63 358 170.63 345.76 127.17 345.76 112.56 276.56 58.95 276.56 54.52 358" style="fill:#c7c7c7"></polygon><polygon points="61.29 345.77 170.63 345.77 170.63 358 60.85 358 61.29 345.77" style="fill:#dbdbdb"></polygon><polygon points="54.52 358 60.85 358 64.98 276.56 58.95 276.56 54.52 358" style="fill:#dbdbdb"></polygon><path d="M188.4,467c-2.25.21-63.45-14.43-65.38-16.42-.24-.22,1-5.78,2.75-13.37l0-.15c1.11-4.81,19-43.69,19-43.69l39.66,11.1-18.06,36.08s7.46,5.4,13.86,10.52v0a85.53,85.53,0,0,1,8.08,6.89C190.21,460.39,190.64,466.82,188.4,467Z" style="fill:#d3766a"></path><path d="M188.4,467c-2.25.21-63.45-14.43-65.38-16.42-.24-.22,1-5.79,2.75-13.36l0-.16c8.9,7.1,51.14,20.29,55.52,19.38,3.16-.65-1.9-5.68-5-8.42,1.29,1,2.6,2,3.89,3.06v0a85.53,85.53,0,0,1,8.08,6.89C190.21,460.38,190.64,466.81,188.4,467Z" style="fill:#263238"></path><path d="M170.88,437.26l-42.5-12.75s35-73,33.93-76.71c-.74-2.48-53.26-2.65-68.65-16.47-15.94-14.31-3.53-42.41-3.53-42.41l44.16-.23s-.76,9.22.92,10.65c1.12,1,61.49,6.27,73,28.47C218.75,348,170.88,437.26,170.88,437.26Z" style="fill:#263238"></path><path d="M162.31,347.8c.19.62-.66,3.25-2.22,7.17l31.74,39c11.32-25.8,22-55.55,16.43-66.15-11.56-22.19-71.93-27.51-73-28.46-1.68-1.44-.92-10.66-.92-10.66l-28,.15,46.58,57.21C158.45,346.67,162.12,347.15,162.31,347.8Z" style="fill:#37474f"></path><path d="M171.93,428.27a24.77,24.77,0,0,0-3.46-1.29c-1.23-.42-2.45-.84-3.68-1.23-2.43-.78-4.86-1.53-7.31-2.22-4.94-1.4-9.88-2.77-14.85-4-2.6-.66-8.15-2.1-8.49-2-.17,0-.2.3-.06.35,4.81,1.72,9.68,3.19,14.56,4.68s9.75,2.95,14.69,4.2c1.36.35,2.74.65,4.11,1a32.36,32.36,0,0,0,4.37.94C172,428.62,172.09,428.35,171.93,428.27Z" style="fill:#455a64"></path><path d="M92.5,297.33c.14-1.47.3-2.94.47-4.41,0-.17.29-.17.27,0-.59,6-1.19,12.09-.1,18A25.78,25.78,0,0,0,101,325.25c8.76,8.17,21,10.57,32.42,12.52,6.54,1.11,13.12,2,19.72,2.61q4.85.48,9.71.78c3.21.2,6.43.23,9.64.41,1,.05,1.92.52,1.76,1.68a8.08,8.08,0,0,1-.77,2l-1,2.34q-1.93,4.36-3.89,8.74-4,9-8.18,17.93-8.24,17.76-17.08,35.22c-.73,1.44-1.46,2.89-2.2,4.33,0,.09-.18,0-.14-.09q8.46-17.67,16.7-35.46c2.72-5.88,5.45-11.77,8.14-17.66q2-4.42,4-8.86,1-2.22,2-4.44l1-2.22c.28-.61,1.27-2.09.59-2.66-.47-.39-1.42-.25-2-.27l-2.57-.08c-1.62-.06-3.24-.12-4.86-.21-3.29-.16-6.57-.39-9.85-.67-6.41-.56-12.81-1.37-19.17-2.39-11.35-1.83-23.68-3.89-32.76-11.5a27.25,27.25,0,0,1-8.7-12.7C91.8,309.05,92,303.09,92.5,297.33Z" style="fill:#455a64"></path><path d="M281.77,411.06c-1.59,1.59-58.07,29.35-60.83,29-.32,0-2.94-5.07-6.4-12.05l-.07-.13c-2.22-4.42-22.31-41.52-22.31-41.52l35.14-17.79L248,404.72s9.19-.6,17.39-.73h0a89.43,89.43,0,0,1,10.62.16C278.94,404.8,283.38,409.48,281.77,411.06Z" style="fill:#d3766a"></path><path d="M281.77,411.06c-1.59,1.6-58.07,29.34-60.83,29.05-.28,0-2.29-3.84-5.09-9.4,11.4-1,51.12-20.23,53.69-23.89,1.62-2.3-3.54-2.74-7.62-2.76l3.41-.08h0a87.2,87.2,0,0,1,10.62.16C278.94,404.8,283.38,409.47,281.77,411.06Z" style="fill:#263238"></path><path d="M247.77,398.88,205.4,420.05s-33.07-67.24-36.7-71.58c-4.84-5.77-67.84,2.39-82.7-16.27C70.64,312.91,83.8,289,83.8,289l48,0A40.09,40.09,0,0,1,129.14,302s54.84-3.26,70.35,11.82C211.4,325.42,247.77,398.88,247.77,398.88Z" style="fill:#263238"></path><path d="M120.4,306.86A82.23,82.23,0,0,1,128,302.2a30.85,30.85,0,0,1,5.78-2.33c1.39-.34,2-.44.69.18L131,301.72l.74,0c.94-.05,1.89-.08,2.83-.1,1.84,0,3.69,0,5.53,0,3.74,0,7.45.33,11.18.52.1,0,.1.16,0,.15-3.73-.12-7.47.08-11.2.07-1.84,0-3.68,0-5.53.07l-2.7,0c-.75,0-1.54.07-2.29,0l-1,.48c-2.71,1.28-5.42,2.62-8,4.09C120.4,307,120.32,306.91,120.4,306.86Z" style="fill:#455a64"></path><path d="M132.89,287.13c-.48,2.26-.9,4.54-1.47,6.79-.26,1-.51,2.07-.87,3.08-.29.84-.76,1.81-1.72,2s-1.45-.69-1.39-1.61a29.52,29.52,0,0,1,.46-3.09c.2-1.17.39-2.34.56-3.52.09-.59.18-1.17.26-1.76,0-.15.09-1.28.16-1.6a.07.07,0,0,0,.07.05h0s.07,0,.07-.06,0-.11-.06-.17a.09.09,0,0,0-.1,0c-.21.12-.22.42-.28.63-.16.58-.33,1.15-.47,1.73-.28,1.08-.54,2.16-.78,3.25s-.47,2.19-.7,3.28a5.17,5.17,0,0,0-.13,2.5,1.9,1.9,0,0,0,1.81,1.37c0,.08-.08.15-.11.22-.09.23-.15.47-.23.7s-.15.47-.21.71,0,.23-.05.34,0,.26,0,.39.26.32.35.12.14-.21.2-.33a1.58,1.58,0,0,0,.15-.38c.07-.22.12-.45.17-.68s.12-.46.15-.69,0-.28,0-.42a2.62,2.62,0,0,0,1.28-.53,4.42,4.42,0,0,0,1.27-2.1c.3-.94.53-1.92.76-2.89a40.69,40.69,0,0,0,1.19-7.27A.21.21,0,0,0,132.89,287.13Z" style="fill:#455a64"></path><path d="M109.77,293.57c-.16,1.12-.26,2.25-.47,3.37s-.48,2.17-.8,3.24a11.43,11.43,0,0,1-1.27,2.94,11.13,11.13,0,0,1-2.1,2.29,19,19,0,0,1-5.17,3.11,25.18,25.18,0,0,1-2.9,1,13.5,13.5,0,0,1-1.56.33,3.19,3.19,0,0,0-1.25.34.25.25,0,0,0,0,.43,4.6,4.6,0,0,0,2.33,0,18.83,18.83,0,0,0,2.48-.52,18.13,18.13,0,0,0,4.64-2.15,14.75,14.75,0,0,0,3.82-3.35,11,11,0,0,0,2-4.68,22.54,22.54,0,0,0,.48-6.29A.11.11,0,0,0,109.77,293.57Z" style="fill:#455a64"></path><path d="M239.18,391.17a25.62,25.62,0,0,0-3.41,1.44c-1.18.54-2.36,1.07-3.52,1.63-2.3,1.1-4.58,2.23-6.84,3.41-4.55,2.37-9.08,4.77-13.56,7.26-2.34,1.3-7.36,4.07-7.58,4.35s.06.35.21.29c4.67-2.05,9.23-4.32,13.79-6.59s9.12-4.55,13.56-7c1.23-.69,2.44-1.41,3.67-2.11a30.73,30.73,0,0,0,3.81-2.32C239.43,391.41,239.34,391.12,239.18,391.17Z" style="fill:#455a64"></path><path d="M83.84,300.11a.16.16,0,0,1,.32,0c-.1,10.42,1.51,22.06,9.53,29.53,8.79,8.19,21.46,9.17,32.87,9.07,6.55,0,13.09-.22,19.64,0s13.22.53,19.76,1.36a10.8,10.8,0,0,1,6.7,3.21,34,34,0,0,1,4.45,6.39q4.95,8.19,9.57,16.56,9.21,16.62,17,34,1,2.15,1.93,4.31c0,.09-.1.17-.15.08-5.3-11.59-11-23-17.12-34.18q-4.57-8.4-9.45-16.63c-1.53-2.57-3-5.21-4.71-7.68-1.51-2.18-3.39-4.23-6-5a25.09,25.09,0,0,0-4.88-.71c-1.67-.15-3.35-.29-5-.41q-4.9-.36-9.81-.54c-6.6-.24-13.19-.16-19.8,0-11.46.21-24-.18-33.49-7.48a27,27,0,0,1-8.83-12.34A48.58,48.58,0,0,1,83.83,304C83.8,302.73,83.81,301.42,83.84,300.11Z" style="fill:#455a64"></path><path d="M152.47,345.72c2.34,0,4.68.13,7,.21a28.29,28.29,0,0,1,5.81.52c1.77.44,3.17.66,4.62,2.63,1.81,2.48,11.65,21.5,15.79,29.92q1.73,3.5,3.39,7c1.14,2.43,2.16,4.92,3.3,7.35,0,.09-.09.17-.13.08-1-2-2.14-4-3.19-6s-2.06-4.05-3.08-6.08q-3.08-6.16-6.16-12.32c-2.05-4.06-4.53-8-6.61-12.07-1.74-3.4-4.12-8-5.78-8.73a27.66,27.66,0,0,0-7.24-1.76c-2.58-.18-5.16-.34-7.74-.56C152.35,345.89,152.35,345.71,152.47,345.72Z" style="fill:#455a64"></path><path d="M113.11,216a3.77,3.77,0,0,0-1.22.88c-1.55,1.69-1.62,4.14-1.26,6.27.4,2.28,1.34,4.62,1,7a3.88,3.88,0,0,1-1.25,2.41,3.56,3.56,0,0,1-2.89.53c-1-.17-2.26-.6-3.28-.07a3,3,0,0,0-1.4,2.31c-.32,2.35,1.39,4.45,2,6.63a12,12,0,0,1-.26,7.09,11.62,11.62,0,0,1-3.93,5.36A11.46,11.46,0,0,1,97.68,256c-1.15.43-2.37.61-3.54,1a4.24,4.24,0,0,0-2.7,2.07c-.37.85.1,4.22,3.07,7.15.21.21-.18.58-.48.44a14,14,0,0,1-1.63-.85,16.08,16.08,0,0,1-7.74-12.41,16.88,16.88,0,0,1,1.36-8,26.14,26.14,0,0,0,1.7-4.23,8.29,8.29,0,0,0-.06-4c-.59-2.5-1.78-4.82-1.94-7.41A14.18,14.18,0,0,1,87.08,223a16.68,16.68,0,0,1,10.65-8.86C102.31,212.9,113.36,215.85,113.11,216Z" style="fill:#263238"></path><path d="M113,216a6.53,6.53,0,0,0-2.19,2,5.47,5.47,0,0,0-.77,2.56,15.21,15.21,0,0,0,1.23,5.78,9.2,9.2,0,0,1,.6,5.52,4.4,4.4,0,0,1-1.25,2.1,3.45,3.45,0,0,1-2.51.76c-1.68-.09-3.76-.73-5.08.69s-.66,3.55-.22,5.13c1.06,3.86,3,8.7.19,12.31a14.81,14.81,0,0,1-5.75,4c-1.51.66-3.42,1.48-3.91,3.21,0,.06.09.08.1,0,.55-1.83,2.61-2.32,4.18-2.93a15.67,15.67,0,0,0,5.1-3.09,7.7,7.7,0,0,0,2.34-5.29,17.92,17.92,0,0,0-1-6c-.3-1-.62-2-.89-3a6.36,6.36,0,0,1-.29-2.83,2.25,2.25,0,0,1,1.91-1.84,12.41,12.41,0,0,1,2.92.13,4.49,4.49,0,0,0,2.53-.41,4,4,0,0,0,1.51-1.45,6.47,6.47,0,0,0,.74-4.62c-.41-2.23-1.55-4.25-1.92-6.49a5.32,5.32,0,0,1,2.55-6A.12.12,0,0,0,113,216Z" style="fill:#263238"></path><path d="M95.82,213.26a13.6,13.6,0,0,0-9.39,9.85,16.75,16.75,0,0,0-.06,7.87c.53,2.43,1.41,4.83,1.41,7.33,0,2.78-1.52,5.06-2.65,7.48a15.08,15.08,0,0,0-1.43,6.26,15.94,15.94,0,0,0,4.58,11.26,15,15,0,0,0,1.17,1.08c.06,0,.12,0,.07-.08a15.35,15.35,0,0,1-5.22-11,14.87,14.87,0,0,1,.92-6c.89-2.36,2.47-4.44,3-6.92s0-4.73-.62-7a22.19,22.19,0,0,1-1.09-7.49,13.67,13.67,0,0,1,7.54-11.4c4.92-2.31,10.46-1.1,15.36.61l2,.69c.07,0,.12-.08,0-.11C106.57,213.73,101.13,211.89,95.82,213.26Z" style="fill:#263238"></path><path d="M114.39,213.44a2.28,2.28,0,0,0-2.29-.17c-.41.37-1.11,4.6-.44,5.43s2.36-.17,2.36-.17Z" style="fill:#407BFF"></path><path d="M120.49,247.11c-1.07,17.61,5.34,41.65,7.76,43.59,4.27,3.44,35.89,13.33,37.19,13.51,3.23.43,12-19.78,9.87-22.54-.48-.63-31-7.89-32.24-8.57-1.48-.85-6.53-13.47-11.81-26.34C127.56,237.72,121.06,237.74,120.49,247.11Z" style="fill:#d3766a"></path><path d="M161.8,302.24a75.56,75.56,0,0,0,8.56,5.33c2.39,1.16,9.36,4.29,10.89,1.79,1-1.71-2.84-4-5.55-5.74-1.42-.9-3-2.83-2.42-3.74,1.08-1.59,4.74.81,7.08,2.76,4.53,3.77,10.33,10.15,13.83,8.12,1.32-.77.27-2.75-1.41-4.8,2.86,2.54,6,4.77,7.5,4a1.71,1.71,0,0,0,.76-2.22,2.28,2.28,0,0,0,2.53,0c1.22-.91,1-2.6.13-4.44a1.28,1.28,0,0,0,1.05-.46c2.77-3-6.62-14.48-10.28-16a85.85,85.85,0,0,0-22.84-5.6C166.63,284,161.79,302.23,161.8,302.24Z" style="fill:#d3766a"></path><path d="M180,294.57a18.42,18.42,0,0,1,7,4.15c2.32,2.23,4,5,6.05,7.48.06.06-.05.15-.1.08-1-1.24-2-2.39-3.06-3.6s-1.94-2.39-3-3.49a18.33,18.33,0,0,0-6.88-4.57S180,294.56,180,294.57Z" style="fill:#263238"></path><path d="M182.94,290.17a45.13,45.13,0,0,1,8.18,4.49c2.74,2,4.66,4.91,6.56,7.69q1.71,2.5,3.31,5.08c0,.08-.06.16-.11.09q-2.88-4.31-6-8.42a24.28,24.28,0,0,0-7.09-6.34c-1.58-.93-3.22-1.74-4.86-2.54A0,0,0,1,1,182.94,290.17Z" style="fill:#263238"></path><path d="M186.79,286.54c2.76,1.08,5.17,2,7.45,4a41.69,41.69,0,0,1,6.6,8c1,1.56,2,3.14,3,4.74,0,.07-.08.13-.12.07a95.23,95.23,0,0,0-7.27-10.12,19.19,19.19,0,0,0-4.34-4,34.59,34.59,0,0,0-5.29-2.6S186.77,286.54,186.79,286.54Z" style="fill:#263238"></path><path d="M165.83,288.53l-3.67,15.88s-26.51-7.25-34.25-12.93c-4.16-3.06-9.11-35.43-8.53-45.3.56-9.7,5.53-14.38,12.59-1.35,5.42,10,12.73,27.46,13.49,28.07s23,4,23,4l-2.68,11.59" style="fill:#455a64"></path><path d="M128.59,282.51a1.05,1.05,0,1,0,1.06,1.05A1,1,0,0,0,128.59,282.51Zm7.09,10.82a1.06,1.06,0,0,0-.41,2,1.07,1.07,0,0,0,.41.08,1.06,1.06,0,0,0,0-2.11Zm21.24-10.82a1.05,1.05,0,1,0,1.05,1.05A1.06,1.06,0,0,0,156.92,282.51Zm-14.16,0a1.05,1.05,0,1,0,1.05,1.05A1.05,1.05,0,0,0,142.76,282.51Zm-14.17-21a1.05,1.05,0,1,0,1.06,1.05A1,1,0,0,0,128.59,261.49Zm-7.08-10.2a1.05,1.05,0,1,0,1.06,1.05A1,1,0,0,0,121.51,251.29Zm42.49,42a1.06,1.06,0,0,0,0,2.11l.24,0,.42-1.84A1,1,0,0,0,164,293.33Zm-14.16,0a1.06,1.06,0,1,0,0,2.11,1.06,1.06,0,0,0,0-2.11Zm-1-19.64a1.07,1.07,0,0,0,1,.73,1,1,0,0,0,.81-.4Zm-13.16-1.38a1.06,1.06,0,1,0,1,1.05A1.05,1.05,0,0,0,135.68,272.31Zm-6.94-31.84h-.15a1.06,1.06,0,1,0,1,1.49,1,1,0,0,0,.09-.43A1.06,1.06,0,0,0,128.74,240.47Zm6.56,10.89a1,1,0,0,0-.38.25,1,1,0,0,0-.3.73,1.05,1.05,0,0,0,1.06,1l.21,0a.9.9,0,0,0,.32-.13C135.91,252.61,135.6,252,135.3,251.36Z" style="fill:#fff"></path><path d="M159.74,288.84c.47-1.93.94-3.86,1.43-5.78s.91-3.88,1.54-5.75c0-.09.18-.07.16,0-.25,1.89-.73,3.78-1.13,5.65s-.86,4-1.3,5.95c-.88,3.92-1.91,7.79-3,11.65,0,.1-.16.05-.15,0C158,296.62,158.79,292.72,159.74,288.84Z" style="fill:#263238"></path><path d="M162.75,301.84l-.59,2.57S146,300,135.27,295.36a39.38,39.38,0,0,1-7.36-3.88c-4.16-3.06-9.11-35.43-8.53-45.3.44-7.7,3.67-12.24,8.5-7.26l.86,1.55.82,1.48,5.36,9.66,1,1.76,2.5,4.51,0,.06c3.53,7.61,6.56,14.58,7,15a6.38,6.38,0,0,0,1.48.41Z" style="opacity:0.1"></path><path d="M135.44,279.36l.93,16.81-57.82,0S95,248.6,106.14,238.56c7.52-6.79,15.5-5.5,20.14.16,1.17,1.43,13.26,18.28,14.17,26.23C141.24,272,135.44,279.36,135.44,279.36Z" style="fill:#455a64"></path><path d="M108.4,252.34a1.05,1.05,0,1,1-1.05-1.05A1,1,0,0,1,108.4,252.34Zm13.11-1.05a1.05,1.05,0,1,0,1.06,1.05A1,1,0,0,0,121.51,251.29Zm13.33.42a1,1,0,0,0-.22.63,1.06,1.06,0,0,0,1.06,1h.11C135.48,252.82,135.16,252.26,134.84,251.71Zm-20.41-11.25a1.06,1.06,0,1,0,1.06,1.06A1.06,1.06,0,0,0,114.43,240.46Zm13.39.36a1,1,0,0,0-.27.7,1,1,0,0,0,1,1,1,1,0,0,0,.38-.07C128.56,241.87,128.17,241.31,127.82,240.82ZM93.19,272.31a1.06,1.06,0,1,0,1,1.05A1,1,0,0,0,93.19,272.31Zm14.16,0a1.06,1.06,0,1,0,1.05,1.05A1,1,0,0,0,107.35,272.31Zm14.16,0a1.06,1.06,0,0,0,0,2.11,1.06,1.06,0,1,0,0-2.11Zm14.17,0a1.06,1.06,0,1,0,1,1.05A1.05,1.05,0,0,0,135.68,272.31Zm-35.41-10.82a1,1,0,1,0,1,1.05A1,1,0,0,0,100.27,261.49Zm14.16,0a1.05,1.05,0,1,0,1.06,1.05A1,1,0,0,0,114.43,261.49Zm14.16,0a1.05,1.05,0,1,0,1.06,1.05A1,1,0,0,0,128.59,261.49Zm-49.09,32c-.3.84-.53,1.5-.7,2a.91.91,0,0,0,.23,0,1.05,1.05,0,0,0,1-1.06A1,1,0,0,0,79.5,293.45Zm13.69-.12a1.06,1.06,0,1,0,1,1.06A1.05,1.05,0,0,0,93.19,293.33Zm14.16,0a1.06,1.06,0,1,0,1.05,1.06A1.05,1.05,0,0,0,107.35,293.33Zm14.16,0a1.06,1.06,0,1,0,1.06,1.06A1.05,1.05,0,0,0,121.51,293.33Zm14.72.16a1,1,0,0,0-.55-.16,1.06,1.06,0,1,0,0,2.11,1,1,0,0,0,.64-.23Zm-50.12-11a1.05,1.05,0,1,0,1,1.05A1,1,0,0,0,86.11,282.51Zm14.16,0a1.05,1.05,0,1,0,1,1.05A1,1,0,0,0,100.27,282.51Zm14.16,0a1.05,1.05,0,1,0,1.06,1.05A1,1,0,0,0,114.43,282.51Zm14.16,0a1.05,1.05,0,1,0,1.06,1.05A1,1,0,0,0,128.59,282.51Z" style="fill:#fff"></path><path d="M126.47,275.87a55.25,55.25,0,0,0-8.09,1.33c-1.32.33-2.61.73-3.9,1.16-.65.21-1.29.4-2,.58a8.15,8.15,0,0,1-2.08.4,0,0,0,0,0,0,.09,15,15,0,0,0,2,0,15.66,15.66,0,0,0,1.91-.36c1.34-.33,2.67-.72,4-1.07,2.7-.69,5.39-1.38,8.13-1.88C126.63,276.07,126.6,275.85,126.47,275.87Z" style="fill:#263238"></path><path d="M133.2,278.28a61,61,0,0,0-6.76-.33c-1.13,0-2.25.1-3.37.21-.54,0-1.07.11-1.61.18s-1.17.23-1.76.29c-.06,0-.06.11,0,.1.55-.05,1.12,0,1.68,0l1.69-.05c1.12,0,2.25,0,3.37-.08,2.26-.07,4.5-.13,6.75-.12A.1.1,0,0,0,133.2,278.28Z" style="fill:#263238"></path><path d="M108,236c-20.94,9-45.73,30.7-44.87,38.52,1,8.71,31-3.94,30.83-5.25-.18-1.12,6.54-10,16.15-22.66C119.89,233.74,113.18,233.81,108,236Z" style="fill:#455a64"></path><path d="M94.24,252.34a1,1,0,1,1-1-1.05A1,1,0,0,1,94.24,252.34Z" style="fill:#fff"></path><circle cx="100.27" cy="241.52" r="1.05" style="fill:#fff"></circle><path d="M114.07,240.53q-.28.58-.66,1.23a.93.93,0,0,1,0-.24A1.05,1.05,0,0,1,114.07,240.53Z" style="fill:#fff"></path><path d="M65.92,273.36a1,1,0,1,1-1-1.05A1.06,1.06,0,0,1,65.92,273.36Z" style="fill:#fff"></path><path d="M80.08,273.36a1,1,0,1,1-1-1.05A1.06,1.06,0,0,1,80.08,273.36Z" style="fill:#fff"></path><path d="M73,262.54a1,1,0,1,1-1-1.05A1,1,0,0,1,73,262.54Z" style="fill:#fff"></path><path d="M87.16,262.54a1,1,0,1,1-1-1.05A1,1,0,0,1,87.16,262.54Z" style="fill:#fff"></path><path d="M63.13,274.55c1.39,6.13,10.09,10.75,30.93,24.42,2.88,1.9,21.71-14.86,18.73-17-3.74-2.75-18.88-12.59-20.08-13.17C82.61,263.88,62.19,270.39,63.13,274.55Z" style="fill:#d3766a"></path><path d="M108.68,279.05s9,5.37,12.86,9.65a36.93,36.93,0,0,1,8,15.83c1.47,6.3.64,22.55-4.08,23.13-4.27.52-2.59-16-2.59-16s1.07,17.17-4.19,16.85S116.42,309,116.42,309s.71,17.67-4.66,16.49c-4.06-.9-2.28-18.37-2.28-18.37s.5,15.19-3.71,14.45c-4.66-.81-4-17-4-17-10.4-3.69-13.85-9.69-15.79-14.26C85.48,289.2,108.68,279.05,108.68,279.05Z" style="fill:#d3766a"></path><path d="M122.84,305.65c.2,2,.41,4.05.43,6.08s0,4-.2,6.06a34.66,34.66,0,0,1-1.4,7.78c1-4.59,1.07-11.83,1-13.86s.06-4,0-6.06C122.76,305.6,122.83,305.61,122.84,305.65Z" style="fill:#263238"></path><path d="M115.53,305.59c.14,2.58.38,5.14.41,7.73s-.17,5-.32,7.59c0,.2-.11.13-.11-.07,0-2.58-.11-5-.09-7.54s.13-5.15,0-7.71A0,0,0,0,1,115.53,305.59Z" style="fill:#263238"></path><path d="M109.27,304.41a58.07,58.07,0,0,1-.28,11.86c0,.2-.14.09-.13-.11.16-3.94.32-7,.27-11.73C109.13,304.35,109.26,304.33,109.27,304.41Z" style="fill:#263238"></path><path d="M113.29,279.87s-26.14,17.35-26.4,17.24S63.1,281,63.13,274.55s20.6-10,29.57-5.83S113.29,279.87,113.29,279.87Z" style="fill:#455a64"></path><path d="M105,276.57c-1,.53-9.29,6.35-11.06,7.65s-9.06,6.57-10.77,8.06a.08.08,0,1,0,.09.13c2-1.14,9.33-6.43,11.16-7.72s9.89-7.23,10.68-8C105.2,276.62,105.1,276.54,105,276.57Z" style="fill:#263238"></path><path d="M65.92,273.36a1,1,0,1,1-1-1.05A1.06,1.06,0,0,1,65.92,273.36ZM79,272.31a1.06,1.06,0,1,0,1,1.05A1,1,0,0,0,79,272.31Zm14.16,0a1.06,1.06,0,1,0,1,1.05A1,1,0,0,0,93.19,272.31ZM72,282.51a1.05,1.05,0,1,0,1,1.05A1,1,0,0,0,72,282.51Zm14.16,0a1.05,1.05,0,1,0,1,1.05A1,1,0,0,0,86.11,282.51Zm14.16,0a1.05,1.05,0,1,0,1,1.05A1,1,0,0,0,100.27,282.51Z" style="fill:#fff"></path><path d="M81.68,267c2.16-.2,8.08-.31,12.69,2.4,0,0,0,.1,0,.07a39.32,39.32,0,0,0-12.64-2.39C81.64,267.12,81.63,267.05,81.68,267Z" style="fill:#263238"></path><path d="M111.68,280.94l1.57-1.13v.12c-6.28-3.66-12.83-7.45-19.37-10.58l-.38-.18.22-.35a146.85,146.85,0,0,1,14-19C103,256,98.52,262.54,94.36,269.21l-.16-.53a158.6,158.6,0,0,1,19.13,11.13l.09.06-.09.06-1.65,1Z" style="fill:#263238"></path><path d="M102.27,256.81A19.1,19.1,0,0,1,106.7,253a15.2,15.2,0,0,1-4.43,3.83Z" style="fill:#263238"></path><path d="M80,292.17a22.45,22.45,0,0,1,5.5,4,22.64,22.64,0,0,1-5.5-4Z" style="fill:#263238"></path><path d="M114.75,236.74c.07,1.54,2.73,8.83,7.34,9.28,2.36.23,3.5-8,3.5-8l.2-.59,2.74-8.28-10.66-8.37S114.73,236.3,114.75,236.74Z" style="fill:#d3766a"></path><path d="M116.71,226.56a17.49,17.49,0,0,0,9.08,10.85l2.75-8.28-10.67-8.38S117.33,223.41,116.71,226.56Z" style="fill:#263238"></path><path d="M140,213.73c2.74,15.06-6,18.4-9.22,19-2.95.54-13.06,2-17.34-12.72s1.84-20.73,8.52-22.31S137.29,198.66,140,213.73Z" style="fill:#d3766a"></path><path d="M137.11,210.56a7.58,7.58,0,0,1-1.06-.09,1.74,1.74,0,0,1-1.05-.29.53.53,0,0,1-.08-.66,1.34,1.34,0,0,1,1.28-.48,2,2,0,0,1,1.32.55A.57.57,0,0,1,137.11,210.56Z" style="fill:#263238"></path><path d="M127.39,211.8c.35-.09.66-.23,1-.35a1.66,1.66,0,0,0,1-.54.53.53,0,0,0-.08-.66,1.33,1.33,0,0,0-1.36-.15,1.9,1.9,0,0,0-1.15.85A.58.58,0,0,0,127.39,211.8Z" style="fill:#263238"></path><path d="M129.88,215.38s-.07.06-.06.1c.18,1,.22,2.24-.67,2.72,0,0,0,.06,0,.05C130.29,217.93,130.22,216.33,129.88,215.38Z" style="fill:#263238"></path><path d="M128.8,214.44c-1.67.12-1.32,3.46.24,3.35S130.21,214.34,128.8,214.44Z" style="fill:#263238"></path><path d="M128.17,214.69c-.28.22-.53.58-.88.65s-.75-.23-1.05-.54c0,0,0,0,0,0,.06.64.37,1.27,1.07,1.29s1-.59,1.12-1.25C128.4,214.76,128.27,214.6,128.17,214.69Z" style="fill:#263238"></path><path d="M135.57,214.6s.08,0,.09.08c.07,1,.32,2.22,1.29,2.47,0,0,0,.07,0,.06C135.79,217.17,135.47,215.6,135.57,214.6Z" style="fill:#263238"></path><path d="M136.39,213.42c1.65-.29,2.11,3.05.58,3.32S135,213.67,136.39,213.42Z" style="fill:#263238"></path><path d="M137.11,213.55c.29.14.6.42.91.4s.59-.43.78-.8c0,0,0,0,0,0,.11.63,0,1.32-.61,1.53s-1-.3-1.26-.91C136.93,213.68,137,213.49,137.11,213.55Z" style="fill:#263238"></path><path d="M130.34,223.59c.22.27.43.63.8.71a2.75,2.75,0,0,0,1.14-.13s.07,0,0,.06a1.39,1.39,0,0,1-1.38.41,1.1,1.1,0,0,1-.7-1C130.23,223.56,130.31,223.55,130.34,223.59Z" style="fill:#263238"></path><path d="M134.63,219.38s.39,1.52.48,2.25a4,4,0,0,1-4-.73c-.07-.06,0-.15.1-.11a5.23,5.23,0,0,0,3.27.53c0-.21-.77-2.58-.65-2.6a6.16,6.16,0,0,1,1.7.18c-.74-3.2-2-6.25-2.66-9.43a.1.1,0,0,1,.19-.07,53,53,0,0,1,3.29,10C136.5,219.84,134.93,219.47,134.63,219.38Z" style="fill:#263238"></path><path d="M134.1,221.67a3.81,3.81,0,0,1-1.39,1.32,1.7,1.7,0,0,1-1,.17c-.76-.12-.85-.81-.77-1.41a4.1,4.1,0,0,1,.24-.93A4.9,4.9,0,0,0,134.1,221.67Z" style="fill:#263238"></path><path d="M132.71,223a1.7,1.7,0,0,1-1,.17c-.76-.12-.85-.81-.77-1.41A1.78,1.78,0,0,1,132.71,223Z" style="fill:#ff9bbc"></path><path d="M114.29,219.5c2.88.14,3.11-6.44,3.11-6.44s12-3,12.26-12.95a16.78,16.78,0,0,0,9.14,8.51s-1.25-10.81-10-12.26c0,0-11-3.07-16.31,5.85S112.36,219.4,114.29,219.5Z" style="fill:#263238"></path><path d="M129.65,199.37a10.81,10.81,0,0,1-.2,4.56,11.16,11.16,0,0,1-2,4.17,10.27,10.27,0,0,1-.75.88l-.39.43-.44.38c-.3.25-.59.51-.89.74s-.65.42-1,.63c-.16.1-.32.21-.49.3l-.52.25-1,.49c-.72.26-1.45.48-2.17.69.67-.36,1.37-.64,2-1l1-.56.49-.28.44-.34.9-.66c.28-.23.54-.49.82-.74l.41-.37.36-.41a9.28,9.28,0,0,0,.7-.85,12.62,12.62,0,0,0,2-3.9,12.15,12.15,0,0,0,.52-2.16A13,13,0,0,0,129.65,199.37Z" style="fill:#263238"></path><path d="M127.42,221.25a4.94,4.94,0,1,1,4.83-6.12h0a5,5,0,0,1-3.61,6A5.14,5.14,0,0,1,127.42,221.25Zm.07-9.22a4.33,4.33,0,0,0-1.06.13,4.25,4.25,0,1,0,1.06-.13Z" style="fill:#407BFF"></path><path d="M138.68,220c-1.89,0-3.59-2-3.87-4.53a5.88,5.88,0,0,1,.66-3.54,3.07,3.07,0,0,1,5.24-.57,5.84,5.84,0,0,1,1.41,3.31c.29,2.71-1.11,5.09-3.12,5.31Zm-.43-9.19H138a2.66,2.66,0,0,0-2,1.44,5.26,5.26,0,0,0-.58,3.14c.26,2.35,1.81,4.11,3.47,3.93s2.79-2.24,2.53-4.58a5.21,5.21,0,0,0-1.24-3A2.7,2.7,0,0,0,138.25,210.77Z" style="fill:#407BFF"></path><path d="M132.15,215.72l-.48-.46c.68-.71,2.31-1.74,3.65-.58l-.43.5C133.69,214.14,132.21,215.65,132.15,215.72Z" style="fill:#407BFF"></path><path d="M110.41,219.37l-.61-.24c.11-.28,1.12-2.81,2.56-3.21s10.24-.51,10.61-.51v.66c-2.55,0-9.4.2-10.44.48S110.68,218.68,110.41,219.37Z" style="fill:#407BFF"></path><path d="M116.05,218.79s-3.78-4.44-5.82-3,1.1,8,3.72,8.75a2.59,2.59,0,0,0,3.33-1.71Z" style="fill:#d3766a"></path><path d="M111.18,217.62a0,0,0,0,0,0,.07,6.55,6.55,0,0,1,3.75,3.76,1.43,1.43,0,0,0-2.16-.19.05.05,0,0,0,0,.09,1.61,1.61,0,0,1,1.8.39,7.64,7.64,0,0,1,1,1.34c.1.15.38,0,.3-.14l0,0C115.69,220.63,113.63,217.62,111.18,217.62Z" style="fill:#263238"></path><path d="M114.19,223.9a.66.66,0,1,0,1.23-.46.67.67,0,0,0-.85-.39A.66.66,0,0,0,114.19,223.9Z" style="fill:#455a64"></path><path d="M114.51,223.78a.31.31,0,0,0,.4.18.32.32,0,0,0,.19-.4.31.31,0,0,0-.59.22Z" style="fill:#263238"></path><path d="M113,223.21a.47.47,0,1,0,.27-.6A.47.47,0,0,0,113,223.21Z" style="fill:#455a64"></path></g><g id="freepik--speech-bubble--inject-190"><path d="M700.07,119.9a22.28,22.28,0,0,1-24.48,19.84A22.05,22.05,0,0,1,662.85,134l-11.15,1.64,5.58-9.64a22.28,22.28,0,1,1,42.79-6.09Z" style="fill:#fff"></path><path d="M700.07,119.9a22.37,22.37,0,0,1-4.5,11.29,23.42,23.42,0,0,1-2,2.33,24.94,24.94,0,0,1-2.35,2,21.75,21.75,0,0,1-5.37,3,22.17,22.17,0,0,1-6,1.43,21.26,21.26,0,0,1-3.09.06,18.83,18.83,0,0,1-3.09-.32,22.58,22.58,0,0,1-11-5.44l.27.08L651.76,136l-.81.12.41-.71,5.55-9.65,0,.38a22.55,22.55,0,0,1,1.37-19.86,23,23,0,0,1,7-7.43,22.37,22.37,0,0,1,9.51-3.56,22.5,22.5,0,0,1,25.33,24.59Zm0,0a22.05,22.05,0,0,0-25.26-24.11,22,22,0,0,0-9.21,3.64,23,23,0,0,0-6.66,7.27,21.94,21.94,0,0,0-1.26,19.13l.08.2-.11.18-5.6,9.62-.4-.59,11.15-1.56.16,0,.11.11a21.85,21.85,0,0,0,10.66,5.49,19.31,19.31,0,0,0,3,.37,20.7,20.7,0,0,0,3,0,21.35,21.35,0,0,0,6-1.31,20.85,20.85,0,0,0,5.38-2.89,25.8,25.8,0,0,0,2.35-2,24.72,24.72,0,0,0,2-2.3A22.48,22.48,0,0,0,700.07,119.9Z" style="fill:#263238"></path><path d="M666.44,117.57a2,2,0,1,0,2-2A2.05,2.05,0,0,0,666.44,117.57Z" style="fill:#263238"></path><path d="M676.27,117.57a2,2,0,1,0,2.05-2A2.05,2.05,0,0,0,676.27,117.57Z" style="fill:#263238"></path><path d="M686.11,117.57a2.05,2.05,0,1,0,2-2A2,2,0,0,0,686.11,117.57Z" style="fill:#263238"></path></g></svg>