<svg xmlns="http://www.w3.org/2000/svg" viewBox="0 0 500 500"><g id="freepik--background-simple--inject-375"><path d="M437.4,318.93s51.09-57.42,34.85-157.33-99.67-136.72-155-117.49-67.81,52.7-113,71.84-131.06,6-174,70.29,11.88,170.82,81.67,237.62S359.8,448.84,437.4,318.93Z" style="fill:#92E3A9"></path><path d="M437.4,318.93s51.09-57.42,34.85-157.33-99.67-136.72-155-117.49-67.81,52.7-113,71.84-131.06,6-174,70.29,11.88,170.82,81.67,237.62S359.8,448.84,437.4,318.93Z" style="fill:#fff;opacity:0.7000000000000001"></path></g><g id="freepik--Map--inject-375"><polygon points="93.31 157.58 149.81 166.73 242.13 154 310.96 172.28 380.39 156.79 444.76 279.91 341.02 304.39 241.47 294.13 125.12 305.1 51.78 275.85 93.31 157.58" style="opacity:0.2"></polygon><polygon points="77.33 107.16 139.65 117.25 241.5 103.21 317.42 123.37 394.01 106.28 465.03 242.11 350.59 269.11 240.77 257.79 112.42 269.89 31.52 237.63 77.33 107.16" style="fill:#fff;stroke:#263238;stroke-linecap:round;stroke-linejoin:round"></polygon><polygon points="89.18 115.93 137.86 124.7 240.94 111.55 319.01 129.97 386.56 114.62 444.47 237.15 346.76 261.45 241.48 251.35 113.3 260.24 52.07 233.09 89.18 115.93" style="fill:#92E3A9;stroke:#263238;stroke-linecap:round;stroke-linejoin:round"></polygon><g style="opacity:0.64"><path d="M366.45,170.12,328.71,180H317.23s14.77,14.22,43.2,16.95,35-2.73,35-2.73Z" style="fill:#fff"></path><polygon points="202.39 120.36 177.23 125.83 173.95 134.58 189.81 131.3 185.98 150.98 204.58 148.8 207.86 126.37 202.39 120.36" style="fill:#fff"></polygon><polygon points="186.53 154.26 184.89 164.11 195.83 161.92 195.83 153.72 186.53 154.26" style="fill:#fff"></polygon><polygon points="179.97 154.26 177.78 165.2 156.45 167.94 157 160.28 179.97 154.26" style="fill:#fff"></polygon><path d="M306,202.94c-10.42,0-18.87,5.38-18.87,12s8.45,12,18.87,12,18.87-5.39,18.87-12S316.44,202.94,306,202.94Zm0,17.49c-4.74,0-8.58-2.44-8.58-5.46s3.84-5.47,8.58-5.47S314.6,212,314.6,215,310.76,220.43,306,220.43Z" style="fill:#fff"></path><polygon points="156.45 246.14 171.22 210.04 138.41 211.69 133.48 224.26 148.79 224.26 137.31 250.51 156.45 246.14" style="fill:#fff"></polygon><polygon points="219.89 167.39 241.76 162.47 270.2 171.22 248.32 175.04 242.31 170.12 219.89 174.5 219.89 167.39" style="fill:#fff"></polygon><polygon points="220.98 146.61 221.53 160.83 231.37 158.64 229.73 146.06 220.98 146.61" style="fill:#fff"></polygon><polygon points="84.81 154.26 76.06 179.42 111.61 188.72 117.08 169.03 101.77 154.81 84.81 154.26" style="fill:#fff"></polygon></g><path d="M437,221.33l-14.15-14c2.44-.31,4.8-.65,7.06-1l-1.77-3.76c-2.83.42-5.8.82-8.9,1.18L377.06,162c11.21-1.67,21.86-3.11,30-3.95l-1.81-3.82c-8.8.94-20,2.49-31.54,4.23l.12-.73-1.35-.21L357.61,142.8,391,123.93l-1.71-3.62-34.6,19.56-14.8-14.64-4.62,1,30.53,30.2L268.7,141.24c-.47-1.07-.94-2.14-1.37-3.24a130,130,0,0,1-6.44-21.75l-4.3-1a135,135,0,0,0,7,24.1l.48,1.17-22.75-3.57L217.84,139,217,114.6l-4,.51,2.19,66.75c-1.36,0-2.72,0-4-.06-36.95-1.07-76.86-11.85-82.77-15.07-4-2.21-13-12.62-17.79-18.53,9.79-.51,19.26-1.83,24.86-4.74,7.68-4,25.85-14.55,41.46-23.75L166.87,121c-13.33,7.81-26.88,15.63-33.21,18.91-11.33,5.88-41.67,4.66-53.32,3.94l-1.25,3.94c4.34.29,11.92.69,20.32.69,2,0,4.15,0,6.26-.08,1.5,1.9,14.65,18.46,20.84,21.84s46.37,14.45,84.57,15.55q2.11.06,4.29.06l.3,9.13-30.57.89-.46-.16-.06.17-60.72,1.77L67.8,183.45l-1.21,3.82L101.12,196l-32,44.63,3.74,1.65,32.46-45.22,18.14,4.59,59.73-1.74L165.8,249l-20.43,9,11.78-.81,84.32-37.12,60.17-32.23a99.12,99.12,0,0,0,22,11,176.87,176.87,0,0,0,21.53,6.05l-8.82,17.65L300,257l5.28.5,34.08-32.3.25-.24,9.62-19.24a211.31,211.31,0,0,0,30.68,3.52l-8.1,46,4.25-1.05L384,209.35c2.09.05,4.16.09,6.21.09a257.49,257.49,0,0,0,27.57-1.51l24.23,24ZM170.82,246.81l16.62-47L215.8,199l.91,27.63Zm192.36-86.68c-23.2,3.66-45.35,7.62-50.17,8.58l-4,.81c-4.28.89-10.95,2.28-19.05,3.8a99.09,99.09,0,0,1-19.33-27.72ZM218,143,241.15,141l24.74,3.88a106.52,106.52,0,0,0,19.51,29.32c-13.6,2.47-30.4,5.13-46.77,6.58l-.17-.25-.46.31c-6.4.55-12.72.92-18.76,1Zm1.4,42.8c3.88-.06,7.88-.24,11.93-.5l-11.68,7.88Zm20.42,30.62-19.14,8.42-.88-26.93,19.6-13.23c17.52-1.58,35.45-4.5,49.47-7.1a93.86,93.86,0,0,0,9.13,7.67ZM325,195a93.21,93.21,0,0,1-31.4-18.32c6.85-1.31,12.48-2.48,16.26-3.27l3.93-.81c7.14-1.43,33.4-6,58.33-9.85l42,41.53C388.87,206.71,356.47,206.12,325,195Z" style="fill:#fff;stroke:#263238;stroke-linecap:round;stroke-linejoin:round"></path><line x1="119.27" y1="225.81" x2="112.86" y2="263.31" style="fill:none;stroke:#263238;stroke-linecap:round;stroke-linejoin:round"></line><line x1="136.99" y1="122.07" x2="120.57" y2="218.19" style="fill:none;stroke:#263238;stroke-linecap:round;stroke-linejoin:round"></line><line x1="240.67" y1="107.23" x2="241.22" y2="146.06" style="fill:none;stroke:#263238;stroke-linecap:round;stroke-linejoin:round"></line><line x1="321.59" y1="153.3" x2="344.03" y2="247.78" style="fill:none;stroke:#263238;stroke-linecap:round;stroke-linejoin:round"></line><line x1="315.59" y1="128.01" x2="320.52" y2="148.79" style="fill:none;stroke:#263238;stroke-linecap:round;stroke-linejoin:round"></line><line x1="241.76" y1="254.89" x2="241.22" y2="231.92" style="fill:#fff;stroke:#263238;stroke-linecap:round;stroke-linejoin:round"></line></g><g id="freepik--Locators--inject-375"><path d="M103.1,144.67a9.29,9.29,0,0,0-9.29,9.3c0,5.13,9.29,14.7,9.29,14.7s9.3-9.57,9.3-14.7A9.3,9.3,0,0,0,103.1,144.67Zm0,13a3.15,3.15,0,1,1,3.15-3.14A3.15,3.15,0,0,1,103.1,157.66Z" style="fill:#263238;stroke:#263238;stroke-linecap:round;stroke-linejoin:round"></path><path d="M199.6,101.67a9.29,9.29,0,0,0-9.29,9.3c0,5.13,9.29,14.7,9.29,14.7s9.3-9.57,9.3-14.7A9.3,9.3,0,0,0,199.6,101.67Zm0,13a3.15,3.15,0,1,1,3.15-3.14A3.15,3.15,0,0,1,199.6,114.66Z" style="fill:#263238;stroke:#263238;stroke-linecap:round;stroke-linejoin:round"></path><path d="M183.86,167.16a9.29,9.29,0,0,0-9.3,9.29c0,5.14,9.3,14.7,9.3,14.7s9.29-9.56,9.29-14.7A9.29,9.29,0,0,0,183.86,167.16Zm0,13A3.14,3.14,0,1,1,187,177,3.14,3.14,0,0,1,183.86,180.14Z" style="fill:#263238;stroke:#263238;stroke-linecap:round;stroke-linejoin:round"></path><path d="M370.36,161.16a9.29,9.29,0,0,0-9.3,9.29c0,5.14,9.3,14.7,9.3,14.7s9.29-9.56,9.29-14.7A9.29,9.29,0,0,0,370.36,161.16Zm0,13A3.14,3.14,0,1,1,373.5,171,3.14,3.14,0,0,1,370.36,174.14Z" style="fill:#263238;stroke:#263238;stroke-linecap:round;stroke-linejoin:round"></path><path d="M263.86,190.66a9.29,9.29,0,0,0-9.3,9.29c0,5.14,9.3,14.7,9.3,14.7s9.29-9.56,9.29-14.7A9.29,9.29,0,0,0,263.86,190.66Zm0,13A3.14,3.14,0,1,1,267,200.5,3.14,3.14,0,0,1,263.86,203.64Z" style="fill:#263238;stroke:#263238;stroke-linecap:round;stroke-linejoin:round"></path><path d="M302.86,110.16a9.29,9.29,0,0,0-9.3,9.29c0,5.14,9.3,14.7,9.3,14.7s9.29-9.56,9.29-14.7A9.29,9.29,0,0,0,302.86,110.16Zm0,13A3.14,3.14,0,1,1,306,120,3.14,3.14,0,0,1,302.86,123.14Z" style="fill:#263238;stroke:#263238;stroke-linecap:round;stroke-linejoin:round"></path></g></svg>