<svg xmlns="http://www.w3.org/2000/svg" viewBox="0 0 500 500"><g id="freepik--Reviews--inject-28"><rect x="67.53" y="245.3" width="212.54" height="83.79" style="fill:#f5f5f5"></rect><path d="M280.07,329.09s0-.51,0-1.49,0-2.43,0-4.33c0-3.8,0-9.41,0-16.64,0-14.44-.06-35.37-.1-61.33l.18.18-212.53.08h0l.26-.26c0,29.31,0,57.63,0,83.79l-.25-.25L219.9,329l44.22.07,11.84,0H279l1.05,0h-1l-3,0-11.78,0-44.17.07-152.54.12h-.25v-.25c0-26.16,0-54.48,0-83.79V245h.27l212.53.08h.18v.18c0,26-.07,47-.09,61.44,0,7.21,0,12.8-.05,16.6,0,1.89,0,3.32,0,4.3S280.07,329.09,280.07,329.09Z" style="fill:#263238"></path><path d="M188.18,290c0,.14-22.76.26-50.83.26s-50.83-.12-50.83-.26,22.75-.27,50.83-.27S188.18,289.89,188.18,290Z" style="fill:#263238"></path><path d="M188.47,300.18c0,.15-22.89.26-51.12.26s-51.13-.11-51.13-.26,22.89-.26,51.13-.26S188.47,300,188.47,300.18Z" style="fill:#263238"></path><polygon points="92.94 260.57 95.21 265.18 100.3 265.92 96.62 269.5 97.49 274.56 92.94 272.17 88.4 274.56 89.26 269.5 85.59 265.92 90.67 265.18 92.94 260.57" style="fill:#FF725E"></polygon><polygon points="109.76 260.57 112.03 265.18 117.11 265.92 113.43 269.5 114.3 274.56 109.76 272.17 105.21 274.56 106.08 269.5 102.4 265.92 107.48 265.18 109.76 260.57" style="fill:#e0e0e0"></polygon><polygon points="126.57 260.57 128.84 265.18 133.93 265.92 130.25 269.5 131.12 274.56 126.57 272.17 122.03 274.56 122.89 269.5 119.22 265.92 124.3 265.18 126.57 260.57" style="fill:#e0e0e0"></polygon><polygon points="143.38 260.57 145.66 265.18 150.74 265.92 147.06 269.5 147.93 274.56 143.38 272.17 138.84 274.56 139.71 269.5 136.03 265.92 141.11 265.18 143.38 260.57" style="fill:#e0e0e0"></polygon><polygon points="160.2 260.57 162.47 265.18 167.56 265.92 163.88 269.5 164.75 274.56 160.2 272.17 155.66 274.56 156.52 269.5 152.85 265.92 157.93 265.18 160.2 260.57" style="fill:#e0e0e0"></polygon><path d="M122.6,313.61c0,.15-7.85.26-17.54.26s-17.54-.11-17.54-.26,7.86-.26,17.54-.26S122.6,313.47,122.6,313.61Z" style="fill:#e0e0e0"></path><circle cx="238.89" cy="290.52" r="28.72" style="fill:#FF725E"></circle><path d="M232.13,258.4c.61-2.93,2.7-4.48,5.47-5.61a9.32,9.32,0,0,1,8.57.88c1.67,1.12,3,2.81,4.94,3.35,3.17.9,6.68-1.64,9.74-.42a4.25,4.25,0,0,1-1.54,8.2c2.07.62,2.87,3.48,1.79,5.35a5.64,5.64,0,0,1-5.61,2.43,11.91,11.91,0,0,1-5.77-2.8c-1.69-1.35-3.22-2.9-5-4.11a9.34,9.34,0,0,0-6.09-1.84c-2.91.33-5.28,2.68-6.43,5.37a21.69,21.69,0,0,0-1.26,8.63,35.93,35.93,0,0,1-.58,8.74c-.08.34-.21.71-.53.83-.47.18-.9-.3-1.16-.72A43,43,0,0,1,222.82,271c-.52-3.21-.61-6.28,1-9.11s6-5.09,8.3-3.5" style="fill:#263238"></path><path d="M227.28,272.27l.42,32.84c.07,5.58,1.32,13.77,10.14,13.25h0c7.62-1,9.47-8.31,9.39-13.52,0-2.47,0-4.53,0-4.79,0,0,8.35-.89,8.84-9.17.24-4,.07-12.29-.18-19.78a15.44,15.44,0,0,0-14.71-14.91l-.8,0C231.7,256.24,227,263.64,227.28,272.27Z" style="fill:#ffbe9d"></path><path d="M247.21,299.93a19.28,19.28,0,0,1-10.66-3.58s2.27,6.08,10.58,5.73Z" style="fill:#eb996e"></path><path d="M252.52,276.1a1.19,1.19,0,0,1-1.2,1.14,1.14,1.14,0,0,1-1.17-1.13,1.2,1.2,0,0,1,1.2-1.14A1.14,1.14,0,0,1,252.52,276.1Z" style="fill:#263238"></path><path d="M253.88,275.09c-.16.14-1-.56-2.29-.62s-2.24.53-2.37.37.1-.34.52-.62a3.28,3.28,0,0,1,1.9-.49,3.11,3.11,0,0,1,1.82.69C253.83,274.73,254,275,253.88,275.09Z" style="fill:#263238"></path><path d="M240.27,275.68a1.17,1.17,0,0,1-1.19,1.14,1.12,1.12,0,0,1-1.17-1.12,1.18,1.18,0,0,1,1.19-1.14A1.12,1.12,0,0,1,240.27,275.68Z" style="fill:#263238"></path><path d="M241.35,274.73c-.15.14-1-.56-2.29-.62s-2.24.54-2.37.37.1-.34.52-.62a3.28,3.28,0,0,1,1.9-.49,3.15,3.15,0,0,1,1.82.69C241.31,274.38,241.43,274.66,241.35,274.73Z" style="fill:#263238"></path><path d="M245.52,284.39a9,9,0,0,1,2.09-.28c.32,0,.64-.06.7-.28a1.66,1.66,0,0,0-.17-1l-.84-2.52a43.52,43.52,0,0,1-1.86-6.58,42.58,42.58,0,0,1,2.38,6.42l.8,2.53a1.87,1.87,0,0,1,.11,1.29.84.84,0,0,1-.56.45,2.87,2.87,0,0,1-.55.05A8.83,8.83,0,0,1,245.52,284.39Z" style="fill:#263238"></path><path d="M246.12,288.82c-.18.11-.83-1.12-2.34-1.43s-2.73.51-2.83.34.16-.39.7-.69a3.42,3.42,0,0,1,2.33-.36,3,3,0,0,1,1.88,1.24C246.18,288.41,246.2,288.78,246.12,288.82Z" style="fill:#263238"></path><path d="M241.84,272.69c-.15.34-1.41.11-2.91.22s-2.73.46-2.91.14c-.09-.15.14-.47.64-.78a4.94,4.94,0,0,1,2.19-.65,5,5,0,0,1,2.25.37C241.64,272.24,241.9,272.53,241.84,272.69Z" style="fill:#263238"></path><path d="M253.58,271.38c-.23.28-1.1-.07-2.15-.13s-2,.1-2.15-.21c-.08-.15.07-.43.48-.69a3.12,3.12,0,0,1,3.46.27C253.58,270.94,253.69,271.24,253.58,271.38Z" style="fill:#263238"></path><path d="M227.66,278.44c-.14-.07-5.61-1.95-5.7,3.72s5.63,4.59,5.64,4.43S227.66,278.44,227.66,278.44Z" style="fill:#ffbe9d"></path><path d="M225.9,284.41s-.1.07-.27.14a1,1,0,0,1-.74,0,2.48,2.48,0,0,1-1.1-2.21,3.4,3.4,0,0,1,.3-1.42,1.15,1.15,0,0,1,.76-.74.5.5,0,0,1,.58.28c.07.16,0,.27.06.28s.13-.09.08-.33a.62.62,0,0,0-.21-.36.78.78,0,0,0-.55-.15,1.36,1.36,0,0,0-1,.86,3.26,3.26,0,0,0-.37,1.58,2.58,2.58,0,0,0,1.4,2.47,1.08,1.08,0,0,0,.91-.13C225.89,284.55,225.92,284.42,225.9,284.41Z" style="fill:#eb996e"></path><path d="M257.69,269.47a12,12,0,0,1-10.52-2.9c-1.93-1.81-3.37-4.34-5.86-5.24a6.78,6.78,0,0,0-5.18.46,13.05,13.05,0,0,0-4.07,3.4c1.4,4.29.1,8.94-1.2,13.26a2.22,2.22,0,0,1-.72,1.27,1.79,1.79,0,0,1-2.23-.6,7,7,0,0,1-1.36-3.77,23.32,23.32,0,0,1,.49-9.19,16,16,0,0,1,4.74-7.8,15.1,15.1,0,0,1,10.73-3.48A18.5,18.5,0,0,1,253,259.22a10.84,10.84,0,0,1,3.29,4.17" style="fill:#263238"></path><rect x="67.66" y="42.16" width="212.54" height="83.79" style="fill:#f5f5f5"></rect><path d="M280.2,126s0-.51,0-1.49,0-2.43,0-4.33c0-3.81,0-9.41,0-16.64,0-14.44-.06-35.37-.1-61.33l.18.18-212.53.08h0l.26-.26c0,29.31,0,57.62,0,83.79l-.25-.25,152.36.11,44.23.07,11.84,0h3.06l1.05,0h-1l-3,0-11.79,0-44.17.07-152.53.12h-.25V126c0-26.17,0-54.48,0-83.79V41.9h.27L280.2,42h.18v.18c0,26-.07,47-.1,61.44,0,7.21,0,12.8,0,16.6,0,1.88,0,3.32,0,4.3S280.2,126,280.2,126Z" style="fill:#263238"></path><path d="M188.18,85.18c0,.15-22.76.26-50.83.26s-50.83-.11-50.83-.26,22.75-.26,50.83-.26S188.18,85,188.18,85.18Z" style="fill:#263238"></path><path d="M188.47,95.33c0,.15-22.89.26-51.12.26s-51.13-.11-51.13-.26,22.89-.26,51.13-.26S188.47,95.19,188.47,95.33Z" style="fill:#263238"></path><polygon points="92.94 55.72 95.21 60.33 100.3 61.07 96.62 64.65 97.49 69.71 92.94 67.32 88.4 69.71 89.26 64.65 85.59 61.07 90.67 60.33 92.94 55.72" style="fill:#FF725E"></polygon><polygon points="109.76 55.72 112.03 60.33 117.11 61.07 113.43 64.65 114.3 69.71 109.76 67.32 105.21 69.71 106.08 64.65 102.4 61.07 107.48 60.33 109.76 55.72" style="fill:#FF725E"></polygon><polygon points="126.57 55.72 128.84 60.33 133.93 61.07 130.25 64.65 131.12 69.71 126.57 67.32 122.03 69.71 122.89 64.65 119.22 61.07 124.3 60.33 126.57 55.72" style="fill:#FF725E"></polygon><polygon points="143.38 55.72 145.66 60.33 150.74 61.07 147.06 64.65 147.93 69.71 143.38 67.32 138.84 69.71 139.71 64.65 136.03 61.07 141.11 60.33 143.38 55.72" style="fill:#FF725E"></polygon><polygon points="160.2 55.72 162.47 60.33 167.56 61.07 163.88 64.65 164.75 69.71 160.2 67.32 155.66 69.71 156.52 64.65 152.85 61.07 157.93 60.33 160.2 55.72" style="fill:#FF725E"></polygon><path d="M122.6,108.76c0,.14-7.85.26-17.54.26s-17.54-.12-17.54-.26,7.86-.26,17.54-.26S122.6,108.62,122.6,108.76Z" style="fill:#e0e0e0"></path><circle cx="238.89" cy="85.67" r="28.72" style="fill:#FF725E"></circle><path d="M224.52,65.91l2.25,36a10.57,10.57,0,0,0,10.55,9.91h0a10.57,10.57,0,0,0,10.56-10.65c0-4.4-.08-8.46-.08-8.46s8.28-1.29,8.38-9.57c.05-3.92-.5-11.93-1.08-19.27a15.89,15.89,0,0,0-15.83-14.6h-.38A15.33,15.33,0,0,0,224.52,65.91Z" style="fill:#eb996e"></path><path d="M247.82,92.62A19.31,19.31,0,0,1,237,89.55s2.56,6,10.81,5.21Z" style="fill:#d1734a"></path><path d="M253.16,69.2c-.15.16-1-.51-2.32-.5s-2.2.64-2.34.48.08-.35.49-.64a3.22,3.22,0,0,1,1.87-.58,3.14,3.14,0,0,1,1.84.6C253.1,68.86,253.23,69.13,253.16,69.2Z" style="fill:#263238"></path><path d="M240.78,69.2c-.15.16-1-.5-2.31-.5s-2.21.64-2.35.48.08-.34.49-.64a3.23,3.23,0,0,1,1.88-.58,3.14,3.14,0,0,1,1.84.6C240.72,68.86,240.85,69.13,240.78,69.2Z" style="fill:#263238"></path><path d="M245.4,77.2a8.9,8.9,0,0,1,2.06-.37c.33,0,.63-.1.69-.32a1.62,1.62,0,0,0-.22-1c-.3-.79-.62-1.61-1-2.47a43.6,43.6,0,0,1-2.16-6.47,42.15,42.15,0,0,1,2.68,6.28c.32.87.63,1.69.92,2.49a1.91,1.91,0,0,1,.17,1.27.85.85,0,0,1-.54.48,2.36,2.36,0,0,1-.55.07A7.67,7.67,0,0,1,245.4,77.2Z" style="fill:#263238"></path><path d="M241.11,62.79c-.13.34-1.4.18-2.89.36s-2.7.59-2.9.28c-.08-.15.13-.48.61-.81a4.75,4.75,0,0,1,2.15-.75,4.82,4.82,0,0,1,2.26.26C240.89,62.35,241.16,62.62,241.11,62.79Z" style="fill:#263238"></path><path d="M252.81,63.85c-.22.29-1.09,0-2.15,0s-1.94.19-2.15-.11.05-.44.44-.71a3,3,0,0,1,1.75-.47,2.93,2.93,0,0,1,1.72.58C252.79,63.42,252.91,63.71,252.81,63.85Z" style="fill:#263238"></path><path d="M233.51,56.84l0,0A6.55,6.55,0,0,0,231,61.08c0,.06,0,.12,0,.17-.32,2.36-.27,4.76-.61,7.12a10.75,10.75,0,0,1-2.91,6.38c-.72.67-2,1.13-2.57.34a2,2,0,0,1-.3-1.08c-.44-5.7-2-10.76-2-16.72a5.06,5.06,0,0,1,2.09-4.09c1.25-.89,2.77-1.82,4.16-1.16s3.18,3.25,4.26,4.35" style="fill:#263238"></path><path d="M227.31,69.66c-.14-.06-5.68-1.69-5.5,4s5.82,4.31,5.83,4.15S227.31,69.66,227.31,69.66Z" style="fill:#eb996e"></path><path d="M225.84,75.69s-.1.07-.26.16a1,1,0,0,1-.74,0,2.44,2.44,0,0,1-1.2-2.15,3.27,3.27,0,0,1,.23-1.42,1.13,1.13,0,0,1,.72-.78.5.5,0,0,1,.59.25c.08.16,0,.27.08.28s.12-.1.07-.33a.67.67,0,0,0-.24-.35.77.77,0,0,0-.55-.12,1.38,1.38,0,0,0-1,.91,3.26,3.26,0,0,0-.29,1.58,2.55,2.55,0,0,0,1.52,2.4,1,1,0,0,0,.89-.18C225.83,75.83,225.86,75.7,225.84,75.69Z" style="fill:#d1734a"></path><path d="M228.7,52.91c-1.4-2.26,2.42-5.51,5.21-6.39s6.48.48,9.25,1.4c1.76.58,3.51,1.4,5.35,1.32a12.55,12.55,0,0,0,3.59-.91,9.1,9.1,0,0,1,3.62-.72,3.41,3.41,0,0,1,3,1.89,2.14,2.14,0,0,1-1.43,2.89,2.78,2.78,0,1,1,.74,5.15c.8-.61,2,.39,1.94,1.4A2.92,2.92,0,0,1,258,61.08a10.52,10.52,0,0,1-7.55-.12c-2.44-.82-4.71-2.1-7.13-3s-6.48-2.47-8.91-1.61c-1.79.63-3,2.79-4,2.31a3.43,3.43,0,0,1-1.79-2.54,9.74,9.74,0,0,1,.11-3.23" style="fill:#263238"></path><path d="M258,52.23c-.05,0-.29.42-.9,1.08a7.76,7.76,0,0,1-3.14,2,7.17,7.17,0,0,1-5.4-.21c-1.92-.87-3.57-2.59-5.47-4.22a11.7,11.7,0,0,0-6.36-3,6.54,6.54,0,0,0-5.41,1.87A4.94,4.94,0,0,0,230,53.38a4,4,0,0,0,.24,1c.1.22.17.33.19.32a7.74,7.74,0,0,1-.21-1.37A4.85,4.85,0,0,1,231.56,50a6.22,6.22,0,0,1,5.07-1.63,11.46,11.46,0,0,1,6.05,3c1.86,1.59,3.56,3.36,5.62,4.26a7.67,7.67,0,0,0,8.91-2.14,4.59,4.59,0,0,0,.59-.88C257.92,52.36,258,52.24,258,52.23Z" style="fill:#455a64"></path><path d="M225.87,69.41s.25-.16.46-.61a3.79,3.79,0,0,0,.28-2c-.12-1.82-1.74-3.78-1.94-6.29a5.6,5.6,0,0,1,.63-3.38,4.26,4.26,0,0,1,2.1-1.82,3.83,3.83,0,0,1,1.89-.26,4,4,0,0,0,.72.14s-.2-.2-.68-.35a3.57,3.57,0,0,0-2.07.1,4.55,4.55,0,0,0-2.41,1.93,6,6,0,0,0-.74,3.69,10.55,10.55,0,0,0,1.09,3.56,10.76,10.76,0,0,1,1,2.74A4.31,4.31,0,0,1,225.87,69.41Z" style="fill:#455a64"></path><path d="M241.11,78.76A5.55,5.55,0,0,0,242.86,82a3.48,3.48,0,0,0,3.54.63,5.73,5.73,0,0,0,2.27-2.33Z" style="fill:#fff"></path><rect x="67.66" y="143.64" width="212.54" height="83.79" style="fill:#f5f5f5"></rect><path d="M280.2,227.42s0-.51,0-1.48,0-2.44,0-4.33c0-3.81,0-9.42,0-16.64,0-14.45-.06-35.37-.1-61.33l.18.18-212.53.08h0l.26-.26c0,29.31,0,57.62,0,83.78l-.25-.25,152.36.12,44.23.07,11.84,0,3.06,0h1.05l-1,0h-3l-11.79,0-44.17.07-152.53.12h-.25v-.25c0-26.16,0-54.47,0-83.78v-.26h.27l212.53.07h.18v.19c0,26-.07,47-.1,61.44,0,7.21,0,12.8,0,16.59,0,1.89,0,3.33,0,4.3S280.2,227.42,280.2,227.42Z" style="fill:#263238"></path><path d="M188.18,188.3c0,.14-22.76.26-50.83.26s-50.83-.12-50.83-.26,22.75-.26,50.83-.26S188.18,188.15,188.18,188.3Z" style="fill:#263238"></path><path d="M188.47,198.44c0,.15-22.89.26-51.12.26s-51.13-.11-51.13-.26,22.89-.26,51.13-.26S188.47,198.3,188.47,198.44Z" style="fill:#263238"></path><polygon points="92.94 158.84 95.21 163.44 100.3 164.18 96.62 167.76 97.49 172.82 92.94 170.44 88.4 172.82 89.26 167.76 85.59 164.18 90.67 163.44 92.94 158.84" style="fill:#FF725E"></polygon><polygon points="109.76 158.84 112.03 163.44 117.11 164.18 113.43 167.76 114.3 172.82 109.76 170.44 105.21 172.82 106.08 167.76 102.4 164.18 107.48 163.44 109.76 158.84" style="fill:#FF725E"></polygon><polygon points="126.57 158.84 128.84 163.44 133.93 164.18 130.25 167.76 131.12 172.82 126.57 170.44 122.03 172.82 122.89 167.76 119.22 164.18 124.3 163.44 126.57 158.84" style="fill:#FF725E"></polygon><polygon points="143.38 158.84 145.66 163.44 150.74 164.18 147.06 167.76 147.93 172.82 143.38 170.44 138.84 172.82 139.71 167.76 136.03 164.18 141.11 163.44 143.38 158.84" style="fill:#e0e0e0"></polygon><polygon points="160.2 158.84 162.47 163.44 167.56 164.18 163.88 167.76 164.75 172.82 160.2 170.44 155.66 172.82 156.52 167.76 152.85 164.18 157.93 163.44 160.2 158.84" style="fill:#e0e0e0"></polygon><path d="M122.6,211.87c0,.15-7.85.26-17.54.26s-17.54-.11-17.54-.26,7.86-.26,17.54-.26S122.6,211.73,122.6,211.87Z" style="fill:#e0e0e0"></path><circle cx="238.89" cy="188.78" r="28.72" transform="translate(0.82 378.59) rotate(-76.88)" style="fill:#FF725E"></circle><path d="M268.46,185.24c-.78-.63-1.89-.71-2.69-1.32-1.66-1.24-1.18-3.78-1.54-5.81-.38-2.22-1.89-4.05-3.09-6s-2.59-4.67-1.7-6.74L243.28,195h25.35s.77-4.66.9-6S269.53,186.09,268.46,185.24Z" style="fill:#263238"></path><path d="M234.88,155.81c.78-2.38,3.38-3.73,5.87-4s3.71.72,6.16.17c3.37-.76,5.32-1.9,7.55-1.54a10.18,10.18,0,0,1,6.37,3.06c1.33,1.53,1.38,5.14.82,7.1-.5,1.78-1.89,3.25-2.26,5.07s.23,3.4.6,5.08c1.12,5.05.25,10.7-3.09,14.64s-9.37,5.68-14,3.36" style="fill:#263238"></path><path d="M248.6,204.83l-.14-7.37s7.33-1.08,9-10.59c.84-4.72.74-12.5.45-18.86-.26-5.72-6.32-11.54-12-11l-18.54,3.19v3.07l.51,41.92a10.36,10.36,0,0,0,10.36,10.24h0A10.38,10.38,0,0,0,248.6,204.83Z" style="fill:#a36957"></path><path d="M254.75,173.81a1.22,1.22,0,0,1-1.21,1.21,1.17,1.17,0,0,1-1.24-1.12,1.23,1.23,0,0,1,1.2-1.22A1.18,1.18,0,0,1,254.75,173.81Z" style="fill:#263238"></path><path d="M256.16,172c-.15.16-1.07-.54-2.38-.56s-2.29.62-2.43.46.09-.36.51-.66a3.32,3.32,0,0,1,1.95-.56,3.24,3.24,0,0,1,1.9.65C256.1,171.66,256.24,172,256.16,172Z" style="fill:#263238"></path><path d="M242,173.59a1.22,1.22,0,0,1-1.2,1.21,1.17,1.17,0,0,1-1.24-1.12,1.23,1.23,0,0,1,1.2-1.22A1.17,1.17,0,0,1,242,173.59Z" style="fill:#263238"></path><path d="M243.23,172c-.16.16-1.07-.54-2.39-.56s-2.29.62-2.43.45.09-.35.52-.65a3.4,3.4,0,0,1,1.95-.57,3.25,3.25,0,0,1,1.89.65C243.17,171.68,243.3,172,243.23,172Z" style="fill:#263238"></path><path d="M247.83,181.88a8.42,8.42,0,0,1,2.14-.35c.34,0,.66-.09.72-.32a1.72,1.72,0,0,0-.21-1l-.95-2.57a44.39,44.39,0,0,1-2.11-6.73,44.69,44.69,0,0,1,2.65,6.54c.31.91.62,1.77.9,2.59a2,2,0,0,1,.16,1.32.89.89,0,0,1-.57.49,2,2,0,0,1-.57.06A8.89,8.89,0,0,1,247.83,181.88Z" style="fill:#263238"></path><path d="M248.46,197.46a24.23,24.23,0,0,1-12.7-3.63s3,6.6,12.53,5.88Z" style="fill:#7c3b29"></path><path d="M247.21,185a2.38,2.38,0,0,0-2.1-.92,2.14,2.14,0,0,0-1.51.78,1.35,1.35,0,0,0-.13,1.56,1.57,1.57,0,0,0,1.71.47,5.07,5.07,0,0,0,1.7-1,1.56,1.56,0,0,0,.38-.39.44.44,0,0,0,0-.49" style="fill:#7c3b29"></path><path d="M243.94,182.72c.21,0,.19,1.42,1.4,2.45s2.72.91,2.73,1.11-.34.27-1,.28a3.57,3.57,0,0,1-2.28-.84,3.14,3.14,0,0,1-1.08-2.06C243.68,183.06,243.84,182.71,243.94,182.72Z" style="fill:#263238"></path><path d="M243.66,166.89c-.14.36-1.45.16-3,.32s-2.81.56-3,.24c-.08-.16.14-.49.65-.83a5,5,0,0,1,2.23-.74,5,5,0,0,1,2.33.32C243.44,166.44,243.72,166.72,243.66,166.89Z" style="fill:#263238"></path><path d="M255.74,168.21c-.23.29-1.13,0-2.22-.07s-2,.17-2.22-.15c-.1-.15.06-.45.46-.72a3,3,0,0,1,1.82-.46,3.15,3.15,0,0,1,1.77.63C255.73,167.76,255.85,168.07,255.74,168.21Z" style="fill:#263238"></path><path d="M238.36,152.39a13.27,13.27,0,0,1-4.68,18.53,7.46,7.46,0,0,0-2.91,2.16c-.82,1.31-.47,3-.32,4.55a15.88,15.88,0,0,1-3.65,11.68c-1.82-3.54-3.65-7.13-4.45-11a37.62,37.62,0,0,0-1.26-5.89c-.42-1.12-1.05-2.16-1.42-3.3a10.48,10.48,0,0,1,.28-6.45,15.23,15.23,0,0,1,19.2-9.55" style="fill:#263238"></path><path d="M221.79,159c-4.29,6.28-2.2,10.37-3.87,13.59-1.2,2.33-4,3.26-6,5-2.7,2.33-3.8,6.11-3.7,9.68s1.25,7,2.39,10.4l23.07.11c1.78-5.62-2.68-11.71-1.25-17.43.49-2,1.65-3.76,1.72-5.77a15.4,15.4,0,0,0-.7-3.95,17.76,17.76,0,0,1,1.07-11.07" style="fill:#263238"></path><path d="M261.67,156.23s-.15-.3-.52-.78a5.48,5.48,0,0,0-2-1.52,8,8,0,0,0-3.67-.67,16.07,16.07,0,0,0-4.51,1c-1.56.54-3,1.13-4.45,1.47a11.43,11.43,0,0,1-3.82.34,6.79,6.79,0,0,1-2.49-.7,5,5,0,0,1-.6-.38,1.5,1.5,0,0,1-.19-.15s.29.18.83.44a7.07,7.07,0,0,0,2.46.61,11.4,11.4,0,0,0,3.75-.39c1.39-.35,2.86-.94,4.43-1.49a16.17,16.17,0,0,1,4.58-1,8.09,8.09,0,0,1,3.76.74,5.32,5.32,0,0,1,2,1.63,4,4,0,0,1,.35.61A.76.76,0,0,1,261.67,156.23Z" style="fill:#455a64"></path><path d="M258.34,172.37l.21.15a1.46,1.46,0,0,1,.25.21,3.4,3.4,0,0,1,.29.33,5.38,5.38,0,0,1,1,2.58,12.63,12.63,0,0,1,.14,1.92c0,.69,0,1.42,0,2.19a9.82,9.82,0,0,0,.27,2.38,4.48,4.48,0,0,0,1.23,2.17,12.67,12.67,0,0,0,2.18,1.37,4.48,4.48,0,0,1,1.76,1.72,5.88,5.88,0,0,1,.42,4.07,13.67,13.67,0,0,1-.94,2.62c-.14.3-.25.52-.33.68a.86.86,0,0,1-.13.23s0-.09.09-.25.17-.42.28-.7a15.2,15.2,0,0,0,.85-2.62,6.28,6.28,0,0,0,.13-1.87,4.78,4.78,0,0,0-.58-2.05,4.21,4.21,0,0,0-1.68-1.61,12.5,12.5,0,0,1-2.22-1.41,4.53,4.53,0,0,1-1.3-2.29,10.42,10.42,0,0,1-.27-2.44c0-.77,0-1.51.05-2.19a12.55,12.55,0,0,0-.11-1.9,5.39,5.39,0,0,0-.92-2.54C258.62,172.6,258.32,172.4,258.34,172.37Z" style="fill:#455a64"></path><path d="M219.08,196.77s0,0-.07-.12-.1-.2-.17-.36c-.14-.32-.34-.8-.55-1.44a14,14,0,0,1-.55-2.37,10.64,10.64,0,0,1,0-3.23,8.68,8.68,0,0,1,1.46-3.62,15.56,15.56,0,0,1,3.31-3,9.93,9.93,0,0,0,1.73-1.64,5.53,5.53,0,0,0,1.06-2.21,12.44,12.44,0,0,0-.24-5.2,21,21,0,0,1-.74-5.28,7,7,0,0,1,.56-2.49,6.56,6.56,0,0,1,1.44-2,12.06,12.06,0,0,1,3.83-2.33c1.29-.54,2.53-1,3.61-1.46a11.73,11.73,0,0,0,2.73-1.63,7.37,7.37,0,0,0,1.58-1.8,5.17,5.17,0,0,0,.61-1.39c.09-.34.11-.52.12-.52a2.93,2.93,0,0,1-.07.53,5.08,5.08,0,0,1-.57,1.43,7.31,7.31,0,0,1-1.58,1.86,11.75,11.75,0,0,1-2.75,1.69c-1.08.5-2.32.94-3.6,1.48a12.18,12.18,0,0,0-3.75,2.31,6,6,0,0,0-1.37,1.92,6.47,6.47,0,0,0-.53,2.41,20.76,20.76,0,0,0,.73,5.2,12.47,12.47,0,0,1,.23,5.32,5.66,5.66,0,0,1-1.11,2.3,10.77,10.77,0,0,1-1.77,1.68,15.55,15.55,0,0,0-3.29,3,8.63,8.63,0,0,0-1.46,3.53,12.08,12.08,0,0,0,.45,5.53c.19.64.37,1.12.5,1.45l.15.37A.93.93,0,0,1,219.08,196.77Z" style="fill:#455a64"></path><path d="M238.58,154.67s-.05,0-.16,0l-.45,0c-.4,0-1-.1-1.76-.13a19.54,19.54,0,0,0-6.38.7,12.85,12.85,0,0,0-4,2,10.33,10.33,0,0,0-3.18,3.89,12.76,12.76,0,0,0-.87,5.51,29.87,29.87,0,0,1-.21,6.09,8.54,8.54,0,0,1-1.08,2.93,7,7,0,0,1-2.14,2.15c-1.66,1.1-3.47,1.76-4.84,2.92a7.38,7.38,0,0,0-2.46,4.3,10.42,10.42,0,0,0,.1,4.4,14.61,14.61,0,0,0,1.31,3.42,24.37,24.37,0,0,0,1.43,2.38c.43.63.78,1.11,1,1.43l.27.37c.05.09.08.13.08.14l-.11-.12-.29-.35c-.24-.32-.61-.79-1-1.42a22.76,22.76,0,0,1-1.48-2.36,14.69,14.69,0,0,1-1.35-3.45,10.44,10.44,0,0,1-.13-4.48,7.61,7.61,0,0,1,2.51-4.45c1.41-1.19,3.23-1.86,4.85-2.94a6.78,6.78,0,0,0,2.06-2.07,8.44,8.44,0,0,0,1.05-2.84,30.82,30.82,0,0,0,.21-6,13.05,13.05,0,0,1,.91-5.61,10.35,10.35,0,0,1,3.27-4,12.73,12.73,0,0,1,4-2,19,19,0,0,1,6.44-.63c.76,0,1.35.12,1.75.17l.46.07Z" style="fill:#455a64"></path><path d="M226.42,197.77a6,6,0,0,0,1.51-1.09,6.47,6.47,0,0,0,1.22-1.81,8.4,8.4,0,0,0,.68-2.8,11.08,11.08,0,0,0-.34-3.49,38.15,38.15,0,0,0-1.25-3.86,30.65,30.65,0,0,1-1.34-4.31,10.73,10.73,0,0,1,0-4.85,7.36,7.36,0,0,1,1-2.26,11.46,11.46,0,0,1,1.58-1.81c1.16-1.07,2.41-1.92,3.55-2.79a16.28,16.28,0,0,0,3-2.73,11.81,11.81,0,0,0,1.79-3,12.56,12.56,0,0,0,.93-5c0-.3,0-.57-.05-.8a4.32,4.32,0,0,0-.06-.59l-.05-.36q0-.12,0-.12a9.25,9.25,0,0,1,.26,1.87,12.41,12.41,0,0,1-.86,5,12.15,12.15,0,0,1-1.79,3.09,16.39,16.39,0,0,1-3,2.79c-1.14.88-2.39,1.73-3.52,2.79a10.93,10.93,0,0,0-1.54,1.77,7.07,7.07,0,0,0-1,2.18,10.35,10.35,0,0,0,0,4.73,31.48,31.48,0,0,0,1.31,4.28,34.56,34.56,0,0,1,1.23,3.89,11.08,11.08,0,0,1,.32,3.55,8.56,8.56,0,0,1-.73,2.85,6.44,6.44,0,0,1-1.28,1.82,4.7,4.7,0,0,1-1.13.83l-.33.15Z" style="fill:#455a64"></path><path d="M239.57,158.78c2.44,1.71,5.14,3.49,8.11,3.28a21.76,21.76,0,0,0,5.06-1.5c1.68-.56,3.63-.82,5.13.11,1-.08,1.43-1.4,1-2.28a3.78,3.78,0,0,0-2.31-1.66c-5.34-1.82-10.67.24-16.67.63" style="fill:#263238"></path><path d="M261.45,160.34a3.1,3.1,0,0,0,.2-1,2.57,2.57,0,0,0-1.26-2.17,3.59,3.59,0,0,0-1.72-.51,5.23,5.23,0,0,0-2.05.34c-1.41.47-2.75,1.49-4.38,2.17a10.07,10.07,0,0,1-2.45.72,10.88,10.88,0,0,1-2.38.18,11.47,11.47,0,0,1-3.94-.79,10,10,0,0,1-2.38-1.29,6.44,6.44,0,0,1-.57-.46,1.07,1.07,0,0,1-.19-.18,13.39,13.39,0,0,0,3.21,1.76,12.06,12.06,0,0,0,6.2.54,11.32,11.32,0,0,0,2.4-.71c1.59-.67,2.94-1.69,4.4-2.17a5.67,5.67,0,0,1,2.15-.33,3.83,3.83,0,0,1,1.8.57,2.72,2.72,0,0,1,1,1.18,2.63,2.63,0,0,1,.23,1.16,2,2,0,0,1-.17.72A.77.77,0,0,1,261.45,160.34Z" style="fill:#455a64"></path></g></svg>